<?xml version="1.0" encoding="UTF-8" standalone="no"?>
<!-- Created with Inkscape (http://www.inkscape.org/) -->

<svg
   xmlns:dc="http://purl.org/dc/elements/1.1/"
   xmlns:cc="http://creativecommons.org/ns#"
   xmlns:rdf="http://www.w3.org/1999/02/22-rdf-syntax-ns#"
   xmlns:svg="http://www.w3.org/2000/svg"
   xmlns="http://www.w3.org/2000/svg"
   xmlns:sodipodi="http://sodipodi.sourceforge.net/DTD/sodipodi-0.dtd"
   xmlns:inkscape="http://www.inkscape.org/namespaces/inkscape"
   width="113mm"
   height="113mm"
   viewBox="0 0 400.39346 400.39346"
   id="svg2"
   version="1.1"
   inkscape:version="0.91 r13725"
   sodipodi:docname="addPET.svg">
  <defs
     id="defs4">
    <clipPath
       id="clipPath3350"
       clipPathUnits="userSpaceOnUse">
      <path
         inkscape:connector-curvature="0"
         id="path3352"
         d="M 0,318 318,318 318,0 0,0 0,318 Z" />
    </clipPath>
    <clipPath
       id="clipPath3362"
       clipPathUnits="userSpaceOnUse">
      <path
         inkscape:connector-curvature="0"
         id="path3364"
         d="M 49.5,318 C 22.3,318 0,295.7 0,268.5 l 0,0 0,-219 C 0,22.3 22.3,0 49.5,0 l 0,0 219,0 C 295.7,0 318,22.3 318,49.5 l 0,0 0,219 c 0,27.2 -22.3,49.5 -49.5,49.5 l 0,0 -219,0 z" />
    </clipPath>
    <clipPath
       id="clipPath3370"
       clipPathUnits="userSpaceOnUse">
      <path
         inkscape:connector-curvature="0"
         id="path3372"
         d="m 54.748,252.664 471.738,0 0,-455.588 -471.738,0 0,455.588 z" />
    </clipPath>
    <clipPath
       id="clipPath3386"
       clipPathUnits="userSpaceOnUse">
      <path
         inkscape:connector-curvature="0"
         id="path3388"
         d="M 0,318 318,318 318,0 0,0 0,318 Z" />
    </clipPath>
  </defs>
  <sodipodi:namedview
     id="base"
     pagecolor="#ffffff"
     bordercolor="#666666"
     borderopacity="1.0"
     inkscape:pageopacity="0.0"
     inkscape:pageshadow="2"
     inkscape:zoom="0.7"
     inkscape:cx="31.040652"
     inkscape:cy="417.9626"
     inkscape:document-units="px"
     inkscape:current-layer="layer1"
     showgrid="false"
     inkscape:window-width="1366"
     inkscape:window-height="711"
     inkscape:window-x="0"
     inkscape:window-y="0"
     inkscape:window-maximized="1" />
  <metadata
     id="metadata7">
    <rdf:RDF>
      <cc:Work
         rdf:about="">
        <dc:format>image/svg+xml</dc:format>
        <dc:type
           rdf:resource="http://purl.org/dc/dcmitype/StillImage" />
        <dc:title></dc:title>
      </cc:Work>
    </rdf:RDF>
  </metadata>
  <g
     inkscape:label="Camada 1"
     inkscape:groupmode="layer"
     id="layer1"
     transform="translate(0,-651.96857)">
    <g
       transform="matrix(1.25,0,0,-1.25,1.7976287,1051.394)"
       inkscape:label="addPET"
       id="g3344">
      <g
         id="g3346">
        <g
           clip-path="url(#clipPath3350)"
           id="g3348">
          <g
             transform="translate(268.5,318)"
             id="g3354">
            <path
               inkscape:connector-curvature="0"
               id="path3356"
               style="fill:#009885;fill-opacity:1;fill-rule:nonzero;stroke:none"
               d="m 0,0 -219,0 c -27.2,0 -49.5,-22.3 -49.5,-49.5 l 0,-219 c 0,-27.2 22.3,-49.5 49.5,-49.5 l 219,0 c 27.2,0 49.5,22.3 49.5,49.5 l 0,219 C 49.5,-22.3 27.2,0 0,0" />
          </g>
        </g>
      </g>
      <g
         id="g3358">
        <g
           clip-path="url(#clipPath3362)"
           id="g3360">
          <g
             id="g3366">
            <g
               id="g3368" />
            <g
               id="g3374">
              <g
                 style="opacity:0.49000501"
                 id="g3376"
                 clip-path="url(#clipPath3370)">
                <g
                   id="g3378"
                   transform="translate(412.9308,-67.7056)">
                  <path
                     inkscape:connector-curvature="0"
                     id="path3380"
                     style="fill:#606060;fill-opacity:1;fill-rule:nonzero;stroke:none"
                     d="m 0,0 c 0.23,-0.242 0.466,-0.478 0.708,-0.708 0.229,-0.242 0.465,-0.477 0.707,-0.707 0.23,-0.243 0.466,-0.478 0.708,-0.708 0.23,-0.242 0.466,-0.478 0.708,-0.708 0.229,-0.242 0.465,-0.477 0.707,-0.707 0.23,-0.242 0.466,-0.478 0.708,-0.707 0.229,-0.243 0.465,-0.478 0.707,-0.708 0.229,-0.242 0.466,-0.478 0.708,-0.708 0.229,-0.242 0.466,-0.478 0.707,-0.707 0.23,-0.243 0.466,-0.478 0.708,-0.708 0.23,-0.242 0.466,-0.478 0.708,-0.708 0.229,-0.242 0.465,-0.477 0.707,-0.707 0.23,-0.242 0.466,-0.478 0.708,-0.708 0.229,-0.242 0.466,-0.477 0.707,-0.707 0.23,-0.242 0.466,-0.478 0.707,-0.707 0.23,-0.243 0.467,-0.479 0.709,-0.709 0.229,-0.242 0.465,-0.477 0.707,-0.707 0.23,-0.242 0.466,-0.478 0.708,-0.708 0.229,-0.242 0.466,-0.477 0.707,-0.707 0.23,-0.243 0.466,-0.478 0.708,-0.708 0.229,-0.242 0.466,-0.478 0.707,-0.707 0.23,-0.243 0.466,-0.478 0.708,-0.708 0.23,-0.242 0.466,-0.478 0.707,-0.707 0.23,-0.242 0.466,-0.478 0.707,-0.707 0.23,-0.243 0.467,-0.479 0.709,-0.709 0.229,-0.242 0.466,-0.478 0.708,-0.708 0.229,-0.242 0.465,-0.477 0.707,-0.707 0.23,-0.242 0.466,-0.478 0.708,-0.708 0.229,-0.242 0.465,-0.477 0.707,-0.707 0.23,-0.242 0.466,-0.478 0.707,-0.707 0.23,-0.243 0.466,-0.478 0.708,-0.708 0.23,-0.242 0.466,-0.478 0.707,-0.707 0.23,-0.243 0.467,-0.479 0.709,-0.709 0.229,-0.242 0.465,-0.477 0.707,-0.707 0.23,-0.242 0.466,-0.478 0.708,-0.708 0.229,-0.242 0.465,-0.477 0.707,-0.707 0.23,-0.242 0.466,-0.478 0.708,-0.708 0.229,-0.242 0.465,-0.477 0.707,-0.707 0.23,-0.242 0.466,-0.478 0.708,-0.708 0.23,-0.242 0.466,-0.478 0.708,-0.708 0.229,-0.242 0.465,-0.477 0.707,-0.707 0.23,-0.242 0.466,-0.478 0.708,-0.708 0.229,-0.242 0.465,-0.477 0.707,-0.707 0.23,-0.242 0.466,-0.478 0.708,-0.708 0.229,-0.242 0.466,-0.478 0.707,-0.707 0.23,-0.243 0.466,-0.478 0.708,-0.708 0.23,-0.242 0.466,-0.478 0.708,-0.708 0.23,-0.242 0.466,-0.477 0.707,-0.707 0.23,-0.242 0.466,-0.478 0.707,-0.707 0.23,-0.243 0.466,-0.478 0.708,-0.708 0.23,-0.243 0.466,-0.478 0.708,-0.708 0.23,-0.242 0.466,-0.478 0.707,-0.707 0.23,-0.243 0.467,-0.479 0.708,-0.708 0.23,-0.243 0.466,-0.478 0.708,-0.708 0.23,-0.242 0.466,-0.478 0.707,-0.707 0.23,-0.242 0.466,-0.478 0.708,-0.708 0.229,-0.242 0.466,-0.478 0.707,-0.707 0.23,-0.242 0.466,-0.478 0.707,-0.707 0.23,-0.243 0.467,-0.479 0.709,-0.709 0.23,-0.242 0.466,-0.478 0.707,-0.707 0.23,-0.243 0.466,-0.478 0.708,-0.708 0.23,-0.242 0.466,-0.478 0.707,-0.707 0.23,-0.243 0.466,-0.478 0.708,-0.708 0.23,-0.242 0.466,-0.478 0.708,-0.707 0.229,-0.243 0.465,-0.478 0.707,-0.708 0.23,-0.242 0.466,-0.478 0.708,-0.707 0.229,-0.243 0.466,-0.479 0.708,-0.708 0.229,-0.243 0.465,-0.478 0.707,-0.708 0.23,-0.242 0.466,-0.478 0.707,-0.707 0.23,-0.243 0.466,-0.478 0.708,-0.708 0.23,-0.242 0.466,-0.478 0.708,-0.708 0.229,-0.242 0.466,-0.478 0.708,-0.708 0.229,-0.242 0.465,-0.477 0.707,-0.707 0.23,-0.242 0.466,-0.477 0.707,-0.707 0.23,-0.243 0.466,-0.478 0.708,-0.708 0.23,-0.243 0.466,-0.478 0.708,-0.708 0.23,-0.242 0.466,-0.477 0.707,-0.707 0.23,-0.243 0.466,-0.478 0.708,-0.708 0.23,-0.242 0.466,-0.478 0.708,-0.707 0.229,-0.243 0.465,-0.478 0.707,-0.708 0.23,-0.242 0.466,-0.478 0.708,-0.708 0.229,-0.242 0.466,-0.477 0.707,-0.707 0.23,-0.242 0.466,-0.478 0.708,-0.707 0.229,-0.243 0.466,-0.479 0.708,-0.709 0.229,-0.242 0.466,-0.477 0.707,-0.707 0.23,-0.242 0.466,-0.478 0.708,-0.708 0.229,-0.242 0.466,-0.477 0.707,-0.707 0.23,-0.243 0.466,-0.478 0.708,-0.708 0.23,-0.242 0.466,-0.478 0.707,-0.707 0.23,-0.243 0.467,-0.478 0.709,-0.708 0.229,-0.242 0.465,-0.478 0.706,-0.707 0.23,-0.243 0.466,-0.478 0.708,-0.708 3.269,-3.449 7.745,-5.653 13.511,-5.653 20.185,0 34.946,24.728 34.946,43.021 0,7.527 -2.487,15.288 -7.598,20.151 -0.229,0.242 -0.465,0.477 -0.707,0.707 -0.23,0.243 -0.467,0.478 -0.708,0.709 -0.23,0.242 -0.466,0.477 -0.707,0.707 -0.23,0.242 -0.467,0.477 -0.708,0.707 -0.23,0.243 -0.466,0.478 -0.708,0.708 -0.229,0.242 -0.466,0.478 -0.707,0.707 -0.23,0.243 -0.466,0.478 -0.708,0.708 -0.23,0.242 -0.466,0.478 -0.707,0.707 -0.23,0.243 -0.466,0.478 -0.708,0.708 -0.23,0.243 -0.466,0.478 -0.708,0.708 -0.229,0.242 -0.466,0.477 -0.707,0.707 -0.23,0.243 -0.466,0.478 -0.708,0.708 C 97.237,1.154 97,1.39 96.759,1.619 96.529,1.862 96.293,2.097 96.051,2.327 95.821,2.569 95.585,2.805 95.344,3.035 95.114,3.277 94.877,3.513 94.635,3.743 94.406,3.985 94.17,4.22 93.928,4.45 93.699,4.692 93.463,4.927 93.221,5.157 92.991,5.399 92.755,5.635 92.513,5.865 92.283,6.107 92.047,6.343 91.806,6.573 91.576,6.815 91.34,7.05 91.098,7.28 90.868,7.523 90.632,7.758 90.39,7.988 90.161,8.23 89.924,8.466 89.683,8.695 c -0.23,0.243 -0.467,0.478 -0.708,0.708 -0.23,0.243 -0.466,0.478 -0.707,0.707 -0.23,0.243 -0.466,0.478 -0.707,0.708 -0.23,0.242 -0.467,0.478 -0.709,0.708 -0.229,0.242 -0.466,0.477 -0.707,0.707 -0.23,0.243 -0.466,0.478 -0.708,0.708 -0.229,0.242 -0.466,0.478 -0.707,0.707 -0.23,0.243 -0.467,0.479 -0.708,0.709 -0.23,0.242 -0.466,0.477 -0.707,0.707 -0.23,0.242 -0.467,0.477 -0.708,0.707 -0.23,0.242 -0.466,0.478 -0.707,0.707 -0.23,0.243 -0.467,0.478 -0.708,0.708 -0.23,0.243 -0.466,0.478 -0.708,0.708 -0.23,0.242 -0.466,0.478 -0.707,0.708 -0.23,0.242 -0.467,0.478 -0.709,0.708 -0.229,0.242 -0.465,0.477 -0.707,0.707 -0.229,0.242 -0.466,0.478 -0.707,0.707 -0.23,0.243 -0.466,0.478 -0.708,0.708 -0.23,0.242 -0.466,0.478 -0.707,0.707 -0.23,0.243 -0.466,0.478 -0.707,0.707 -0.23,0.243 -0.467,0.479 -0.709,0.709 -0.229,0.242 -0.466,0.478 -0.708,0.708 -0.229,0.242 -0.465,0.477 -0.707,0.707 -0.23,0.242 -0.466,0.478 -0.707,0.707 -0.23,0.243 -0.466,0.478 -0.708,0.708 -0.152,0.161 -0.308,0.318 -0.466,0.473 0.005,0.265 0.017,0.534 0.017,0.795 0,9.019 -2.987,19.11 -9.375,25.236 -0.231,0.241 -0.467,0.476 -0.707,0.707 -0.232,0.242 -0.468,0.477 -0.709,0.708 -0.231,0.242 -0.467,0.477 -0.707,0.707 -0.231,0.242 -0.467,0.477 -0.708,0.708 -0.231,0.242 -0.467,0.477 -0.707,0.708 -0.231,0.241 -0.467,0.477 -0.708,0.707 -0.231,0.242 -0.467,0.477 -0.707,0.708 -0.231,0.241 -0.468,0.477 -0.709,0.708 -0.23,0.241 -0.466,0.476 -0.706,0.706 -0.231,0.242 -0.468,0.478 -0.708,0.708 -0.231,0.242 -0.467,0.477 -0.708,0.708 -0.231,0.242 -0.467,0.477 -0.707,0.708 -0.231,0.241 -0.467,0.477 -0.708,0.707 -0.231,0.242 -0.467,0.478 -0.708,0.708 -0.231,0.242 -0.467,0.477 -0.707,0.707 -0.231,0.242 -0.467,0.477 -0.708,0.708 -0.231,0.242 -0.467,0.477 -0.707,0.708 -0.231,0.241 -0.467,0.476 -0.707,0.707 -0.231,0.241 -0.468,0.477 -0.709,0.708 -0.231,0.242 -0.467,0.477 -0.708,0.708 -0.23,0.241 -0.466,0.476 -0.707,0.707 -0.231,0.242 -0.467,0.477 -0.707,0.708 -0.231,0.241 -0.467,0.476 -0.708,0.707 -0.231,0.242 -0.467,0.477 -0.707,0.708 -0.231,0.241 -0.468,0.477 -0.708,0.707 -0.231,0.242 -0.467,0.477 -0.708,0.708 -0.231,0.242 -0.467,0.477 -0.707,0.707 -0.231,0.242 -0.467,0.477 -0.708,0.708 -0.231,0.242 -0.467,0.477 -0.707,0.708 -0.231,0.241 -0.467,0.477 -0.708,0.707 -0.231,0.242 -0.467,0.477 -0.708,0.708 -0.23,0.241 -0.467,0.477 -0.707,0.707 -0.231,0.242 -0.468,0.478 -0.708,0.709 -0.231,0.241 -0.467,0.476 -0.707,0.706 -0.231,0.242 -0.467,0.477 -0.708,0.708 -0.231,0.242 -0.467,0.477 -0.708,0.708 -0.23,0.241 -0.467,0.477 -0.707,0.707 -0.231,0.242 -0.467,0.477 -0.708,0.708 -0.231,0.242 -0.467,0.477 -0.708,0.708 -0.231,0.241 -0.467,0.477 -0.707,0.707 -0.231,0.242 -0.467,0.477 -0.708,0.708 -0.23,0.241 -0.467,0.477 -0.707,0.707 -0.231,0.242 -0.467,0.477 -0.707,0.707 -0.231,0.242 -0.468,0.478 -0.708,0.708 -0.231,0.242 -0.468,0.478 -0.708,0.709 -0.231,0.241 -0.467,0.476 -0.707,0.707 -0.231,0.241 -0.468,0.477 -0.708,0.707 -0.231,0.242 -0.467,0.477 -0.708,0.708 -0.23,0.241 -0.467,0.477 -0.707,0.707 -0.231,0.242 -0.467,0.477 -0.708,0.708 -0.231,0.242 -0.467,0.477 -0.707,0.708 -0.231,0.241 -0.467,0.477 -0.708,0.707 -0.231,0.242 -0.467,0.477 -0.708,0.708 -0.23,0.241 -0.467,0.477 -0.707,0.707 -0.231,0.242 -0.467,0.477 -0.708,0.708 -0.231,0.241 -0.467,0.477 -0.707,0.707 -0.231,0.242 -0.468,0.478 -0.708,0.709 -0.231,0.241 -0.467,0.476 -0.708,0.707 -0.23,0.241 -0.467,0.477 -0.707,0.707 -0.231,0.242 -0.467,0.477 -0.707,0.707 -0.231,0.242 -0.468,0.478 -0.708,0.708 -0.231,0.242 -0.467,0.477 -0.708,0.708 -0.231,0.242 -0.467,0.477 -0.707,0.708 -0.232,0.241 -0.468,0.477 -0.709,0.708 -0.23,0.241 -0.466,0.476 -0.707,0.707 -0.231,0.241 -0.467,0.477 -0.707,0.707 -0.231,0.242 -0.467,0.477 -0.708,0.708 -0.231,0.241 -0.467,0.477 -0.707,0.707 -0.231,0.242 -0.467,0.477 -0.708,0.708 -0.231,0.242 -0.467,0.478 -0.708,0.708 -0.231,0.242 -0.467,0.477 -0.707,0.707 -0.231,0.242 -0.467,0.477 -0.708,0.708 -0.231,0.241 -0.467,0.477 -0.707,0.707 -0.231,0.242 -0.467,0.477 -0.708,0.708 -0.231,0.242 -0.467,0.477 -0.708,0.708 -0.231,0.241 -0.467,0.477 -0.708,0.708 -0.23,0.241 -0.466,0.476 -0.706,0.706 -0.231,0.242 -0.468,0.478 -0.708,0.708 -0.231,0.242 -0.467,0.477 -0.708,0.708 -0.231,0.242 -0.467,0.477 -0.708,0.708 -0.23,0.241 -0.467,0.477 -0.707,0.707 -0.231,0.242 -0.468,0.478 -0.708,0.708 -0.231,0.242 -0.467,0.477 -0.707,0.707 -0.231,0.242 -0.467,0.477 -0.708,0.708 -0.231,0.241 -0.467,0.477 -0.707,0.707 -0.231,0.242 -0.467,0.477 -0.708,0.708 -0.231,0.242 -0.467,0.477 -0.708,0.708 -0.231,0.241 -0.467,0.477 -0.708,0.708 -0.231,0.241 -0.467,0.476 -0.707,0.707 -0.231,0.241 -0.467,0.477 -0.707,0.707 -0.231,0.242 -0.468,0.477 -0.708,0.708 -0.231,0.242 -0.467,0.477 -0.708,0.708 -0.23,0.241 -0.467,0.477 -0.707,0.707 -0.231,0.242 -0.467,0.477 -0.707,0.707 -0.232,0.242 -0.468,0.478 -0.709,0.709 -0.231,0.241 -0.467,0.477 -0.707,0.707 -0.231,0.242 -0.467,0.477 -0.708,0.708 -0.23,0.241 -0.467,0.477 -0.707,0.707 -0.231,0.242 -0.467,0.477 -0.708,0.708 -0.231,0.241 -0.467,0.477 -0.707,0.707 -0.231,0.242 -0.468,0.478 -0.708,0.708 -0.231,0.242 -0.467,0.477 -0.707,0.707 -0.231,0.242 -0.467,0.477 -0.708,0.708 -0.231,0.242 -0.467,0.477 -0.708,0.708 -0.231,0.241 -0.467,0.477 -0.707,0.707 -0.231,0.242 -0.467,0.477 -0.708,0.708 -0.231,0.242 -0.467,0.477 -0.708,0.708 -0.231,0.241 -0.467,0.477 -0.707,0.707 -0.231,0.242 -0.467,0.477 -0.708,0.708 -0.231,0.241 -0.467,0.477 -0.707,0.707 -0.231,0.242 -0.467,0.477 -0.707,0.707 -0.231,0.242 -0.468,0.478 -0.708,0.708 -0.231,0.242 -0.468,0.478 -0.709,0.709 -0.23,0.241 -0.466,0.476 -0.707,0.707 -0.23,0.241 -0.467,0.477 -0.707,0.707 -0.231,0.242 -0.467,0.477 -0.708,0.708 -0.231,0.241 -0.467,0.477 -0.707,0.707 -0.231,0.242 -0.467,0.477 -0.708,0.708 -0.231,0.242 -0.467,0.477 -0.708,0.708 -0.23,0.241 -0.467,0.477 -0.707,0.707 -0.231,0.242 -0.467,0.477 -0.708,0.708 -0.231,0.241 -0.467,0.477 -0.707,0.707 -0.231,0.242 -0.467,0.477 -0.708,0.708 -0.231,0.241 -0.467,0.477 -0.708,0.707 -0.23,0.242 -0.467,0.477 -0.707,0.708 -0.231,0.242 -0.467,0.477 -0.708,0.708 -0.231,0.241 -0.467,0.476 -0.707,0.707 -0.231,0.242 -0.467,0.477 -0.708,0.708 -0.231,0.241 -0.467,0.477 -0.707,0.707 -0.231,0.242 -0.468,0.477 -0.708,0.708 -0.231,0.242 -0.467,0.477 -0.708,0.708 -0.231,0.241 -0.467,0.477 -0.708,0.708 -0.23,0.241 -0.467,0.476 -0.707,0.707 -0.231,0.241 -0.467,0.477 -0.707,0.707 -0.231,0.242 -0.467,0.477 -0.708,0.708 -0.231,0.241 -0.467,0.477 -0.707,0.707 -0.231,0.242 -0.467,0.477 -0.708,0.708 -0.231,0.242 -0.468,0.477 -0.708,0.708 -0.231,0.242 -0.467,0.477 -0.707,0.707 -0.231,0.242 -0.467,0.477 -0.708,0.708 -0.231,0.241 -0.467,0.477 -0.708,0.707 -0.23,0.242 -0.467,0.477 -0.707,0.708 -0.231,0.242 -0.467,0.477 -0.708,0.708 -0.231,0.241 -0.467,0.477 -0.707,0.707 -0.231,0.242 -0.467,0.477 -0.708,0.708 -0.231,0.241 -0.467,0.477 -0.708,0.707 -0.23,0.242 -0.467,0.477 -0.707,0.708 -0.231,0.242 -0.467,0.477 -0.708,0.708 -0.231,0.241 -0.467,0.477 -0.707,0.707 -0.231,0.242 -0.468,0.478 -0.708,0.708 -0.231,0.242 -0.467,0.477 -0.707,0.707 -0.231,0.242 -0.468,0.477 -0.708,0.708 -0.231,0.241 -0.467,0.477 -0.707,0.707 -0.231,0.242 -0.468,0.477 -0.708,0.708 -0.231,0.242 -0.467,0.477 -0.708,0.708 -0.231,0.241 -0.467,0.477 -0.707,0.707 -0.231,0.242 -0.468,0.478 -0.709,0.708 -0.23,0.242 -0.466,0.477 -0.707,0.707 -0.23,0.242 -0.467,0.477 -0.707,0.708 -0.231,0.242 -0.467,0.477 -0.708,0.708 -0.23,0.241 -0.466,0.476 -0.707,0.707 -0.231,0.242 -0.467,0.477 -0.708,0.708 -0.231,0.242 -0.467,0.477 -0.708,0.708 -0.231,0.241 -0.467,0.477 -0.707,0.707 -0.231,0.242 -0.467,0.477 -0.708,0.708 -0.231,0.241 -0.467,0.477 -0.707,0.707 -0.231,0.242 -0.467,0.477 -0.708,0.708 -0.231,0.241 -0.467,0.477 -0.707,0.707 -0.232,0.242 -0.468,0.478 -0.709,0.708 -0.23,0.242 -0.466,0.477 -0.706,0.707 -0.231,0.242 -0.468,0.477 -0.708,0.708 -0.231,0.242 -0.467,0.477 -0.708,0.708 -0.231,0.241 -0.467,0.477 -0.707,0.707 -0.231,0.242 -0.467,0.477 -0.708,0.708 -0.231,0.242 -0.467,0.477 -0.708,0.708 -0.231,0.241 -0.467,0.477 -0.707,0.707 -0.231,0.242 -0.467,0.477 -0.708,0.708 -0.231,0.241 -0.467,0.476 -0.707,0.707 -0.231,0.242 -0.467,0.477 -0.708,0.708 -0.231,0.241 -0.467,0.477 -0.708,0.707 -0.231,0.242 -0.467,0.478 -0.708,0.709 -0.23,0.241 -0.466,0.476 -0.707,0.707 -0.231,0.241 -0.467,0.477 -0.707,0.707 -0.231,0.242 -0.467,0.477 -0.708,0.708 -0.231,0.241 -0.467,0.477 -0.708,0.707 -0.23,0.242 -0.467,0.477 -0.707,0.708 -0.231,0.241 -0.467,0.477 -0.707,0.707 -0.231,0.242 -0.468,0.478 -0.709,0.709 -0.231,0.241 -0.467,0.476 -0.707,0.707 -0.231,0.241 -0.467,0.477 -0.707,0.707 -0.231,0.242 -0.468,0.477 -0.708,0.708 -0.231,0.241 -0.467,0.477 -0.708,0.707 -0.23,0.242 -0.467,0.477 -0.707,0.708 -0.231,0.242 -0.468,0.477 -0.708,0.708 -0.231,0.241 -0.467,0.476 -0.707,0.707 -0.231,0.241 -0.467,0.477 -0.708,0.708 -0.231,0.241 -0.467,0.477 -0.708,0.707 -0.23,0.242 -0.467,0.477 -0.707,0.708 -0.231,0.242 -0.467,0.477 -0.708,0.708 -0.231,0.241 -0.467,0.477 -0.708,0.708 -0.231,0.241 -0.467,0.476 -0.707,0.707 -0.231,0.241 -0.467,0.477 -0.708,0.707 -0.23,0.242 -0.467,0.477 -0.707,0.708 -0.231,0.241 -0.467,0.476 -0.707,0.707 -0.231,0.242 -0.468,0.477 -0.708,0.708 -0.231,0.242 -0.468,0.477 -0.708,0.708 -0.231,0.242 -0.467,0.477 -0.708,0.707 -0.23,0.242 -0.467,0.477 -0.707,0.708 -0.231,0.241 -0.467,0.477 -0.708,0.707 -0.231,0.242 -0.467,0.477 -0.707,0.708 -0.231,0.242 -0.467,0.477 -0.708,0.708 -0.231,0.241 -0.467,0.477 -0.707,0.707 -0.231,0.242 -0.468,0.477 -0.708,0.708 -0.231,0.241 -0.467,0.477 -0.708,0.707 -0.231,0.242 -0.467,0.477 -0.707,0.708 -0.231,0.242 -0.467,0.477 -0.708,0.708 -0.231,0.241 -0.467,0.477 -0.707,0.707 -0.231,0.242 -0.467,0.477 -0.708,0.708 -0.231,0.241 -0.467,0.477 -0.708,0.708 -0.231,0.241 -0.466,0.476 -0.707,0.706 -0.231,0.242 -0.467,0.478 -0.708,0.709 -0.231,0.241 -0.467,0.476 -0.707,0.707 -0.231,0.242 -0.467,0.477 -0.708,0.708 -0.231,0.241 -0.467,0.477 -0.708,0.707 -0.231,0.242 -0.467,0.478 -0.708,0.708 -0.23,0.242 -0.466,0.477 -0.707,0.707 -0.231,0.242 -0.467,0.477 -0.707,0.708 -0.231,0.242 -0.467,0.477 -0.708,0.708 -0.231,0.241 -0.467,0.476 -0.707,0.707 -0.231,0.241 -0.467,0.477 -0.708,0.708 -0.231,0.242 -0.467,0.477 -0.708,0.708 -0.231,0.241 -0.467,0.476 -0.707,0.707 -0.231,0.242 -0.467,0.477 -0.708,0.708 -0.231,0.241 -0.467,0.477 -0.707,0.707 -0.231,0.242 -0.468,0.477 -0.708,0.708 -0.231,0.241 -0.467,0.477 -0.708,0.707 -0.231,0.242 -0.467,0.477 -0.707,0.708 -0.231,0.242 -0.467,0.477 -0.708,0.707 -0.231,0.242 -0.467,0.477 -0.707,0.708 -0.231,0.242 -0.467,0.477 -0.708,0.708 -0.231,0.241 -0.467,0.477 -0.708,0.707 -0.23,0.242 -0.467,0.477 -0.707,0.708 -0.231,0.242 -0.468,0.477 -0.708,0.708 -0.231,0.241 -0.467,0.477 -0.707,0.707 -0.231,0.242 -0.467,0.477 -0.708,0.708 -0.231,0.241 -0.467,0.476 -0.707,0.707 -0.231,0.241 -0.467,0.477 -0.708,0.708 -0.231,0.241 -0.467,0.477 -0.708,0.707 -0.231,0.242 -0.467,0.477 -0.707,0.708 -0.231,0.242 -0.468,0.477 -0.708,0.708 -0.231,0.241 -0.467,0.477 -0.708,0.707 -0.23,0.242 -0.467,0.477 -0.707,0.708 -0.231,0.241 -0.467,0.477 -0.708,0.707 -0.23,0.242 -0.466,0.477 -0.707,0.707 -0.231,0.242 -0.467,0.478 -0.708,0.708 -0.231,0.242 -0.467,0.478 -0.708,0.709 -0.231,0.241 -0.467,0.476 -0.707,0.707 -0.231,0.241 -0.467,0.477 -0.708,0.707 -0.23,0.242 -0.467,0.477 -0.707,0.708 -0.231,0.241 -0.467,0.477 -0.708,0.707 -0.231,0.242 -0.467,0.477 -0.707,0.708 -0.231,0.242 -0.468,0.477 -0.709,0.708 -0.23,0.241 -0.466,0.476 -0.706,0.707 -0.231,0.241 -0.467,0.477 -0.708,0.708 -0.231,0.241 -0.467,0.477 -0.708,0.707 -0.231,0.242 -0.467,0.477 -0.707,0.708 -0.231,0.242 -0.467,0.477 -0.708,0.708 -0.231,0.241 -0.467,0.477 -0.708,0.708 -0.231,0.241 -0.467,0.476 -0.707,0.707 -0.231,0.241 -0.467,0.477 -0.708,0.707 -0.23,0.242 -0.466,0.477 -0.707,0.707 -0.231,0.242 -0.467,0.478 -0.708,0.708 -0.231,0.242 -0.467,0.477 -0.707,0.708 -0.231,0.242 -0.468,0.477 -0.709,0.708 -0.23,0.242 -0.466,0.477 -0.707,0.707 -0.231,0.242 -0.467,0.477 -0.707,0.708 -0.231,0.241 -0.467,0.477 -0.708,0.707 -0.231,0.242 -0.467,0.477 -0.707,0.708 -0.231,0.242 -0.467,0.477 -0.708,0.708 -0.231,0.241 -0.467,0.476 -0.707,0.707 -0.231,0.242 -0.468,0.477 -0.709,0.708 -0.23,0.242 -0.466,0.477 -0.707,0.707 -0.231,0.242 -0.467,0.477 -0.707,0.708 -0.231,0.242 -0.467,0.477 -0.708,0.708 -0.231,0.241 -0.467,0.476 -0.708,0.707 -0.23,0.242 -0.467,0.477 -0.707,0.708 -0.231,0.241 -0.468,0.477 -0.708,0.708 -0.231,0.241 -0.467,0.476 -0.707,0.706 -0.231,0.242 -0.467,0.478 -0.708,0.708 -0.231,0.242 -0.467,0.477 -0.708,0.708 -0.23,0.242 -0.467,0.477 -0.707,0.708 -0.231,0.241 -0.467,0.477 -0.708,0.707 -0.231,0.242 -0.467,0.478 -0.708,0.708 -0.231,0.242 -0.467,0.477 -0.707,0.707 -0.231,0.242 -0.467,0.477 -0.707,0.708 -0.231,0.242 -0.468,0.477 -0.708,0.708 -0.231,0.241 -0.467,0.476 -0.707,0.707 -0.231,0.241 -0.468,0.477 -0.708,0.708 -0.231,0.242 -0.468,0.477 -0.708,0.708 -0.231,0.241 -0.467,0.476 -0.707,0.707 -0.231,0.241 -0.468,0.477 -0.708,0.707 -0.231,0.242 -0.467,0.477 -0.708,0.708 -0.23,0.242 -0.467,0.477 -0.707,0.708 -0.231,0.241 -0.467,0.477 -0.708,0.707 -0.231,0.242 -0.467,0.477 -0.707,0.708 -0.231,0.242 -0.467,0.477 -0.708,0.707 -0.231,0.242 -0.467,0.477 -0.708,0.708 -0.23,0.242 -0.467,0.477 -0.707,0.708 -0.231,0.241 -0.467,0.477 -0.708,0.707 -0.231,0.242 -0.467,0.477 -0.707,0.708 -0.231,0.241 -0.467,0.477 -0.708,0.707 -0.231,0.242 -0.467,0.478 -0.708,0.708 -0.231,0.242 -0.466,0.477 -0.707,0.707 -0.231,0.242 -0.467,0.477 -0.708,0.708 -0.231,0.242 -0.467,0.477 -0.707,0.708 -0.231,0.241 -0.467,0.477 -0.708,0.707 -0.231,0.242 -0.467,0.477 -0.707,0.708 -0.231,0.242 -0.468,0.477 -0.709,0.708 -0.23,0.241 -0.466,0.477 -0.707,0.707 -0.231,0.242 -0.467,0.477 -0.707,0.708 -0.231,0.241 -0.467,0.477 -0.708,0.707 -0.231,0.242 -0.467,0.477 -0.707,0.707 -0.231,0.242 -0.467,0.478 -0.708,0.708 -0.231,0.242 -0.467,0.478 -0.708,0.709 -0.231,0.241 -0.467,0.476 -0.707,0.707 -0.231,0.241 -0.467,0.477 -0.708,0.707 -0.231,0.242 -0.467,0.477 -0.707,0.708 -0.231,0.241 -0.467,0.477 -0.708,0.707 -0.231,0.242 -0.467,0.477 -0.708,0.708 -0.23,0.242 -0.467,0.477 -0.707,0.708 -0.231,0.241 -0.467,0.477 -0.708,0.707 -0.231,0.242 -0.467,0.477 -0.707,0.708 -0.231,0.241 -0.467,0.477 -0.708,0.707 -0.231,0.242 -0.467,0.477 -0.708,0.708 -0.23,0.241 -0.467,0.477 -0.707,0.707 -0.231,0.242 -0.468,0.478 -0.708,0.709 -0.231,0.241 -0.467,0.476 -0.707,0.707 -0.231,0.241 -0.467,0.477 -0.708,0.707 -0.231,0.242 -0.467,0.477 -0.707,0.707 -0.231,0.242 -0.467,0.478 -0.708,0.708 -0.231,0.242 -0.467,0.477 -0.708,0.708 -0.23,0.242 -0.467,0.477 -0.707,0.708 -0.231,0.241 -0.468,0.477 -0.708,0.708 -0.231,0.241 -0.467,0.476 -0.707,0.707 -0.231,0.241 -0.467,0.477 -0.708,0.707 -0.231,0.242 -0.467,0.477 -0.708,0.708 -0.23,0.241 -0.466,0.477 -0.707,0.707 -0.231,0.242 -0.467,0.477 -0.708,0.708 -0.231,0.242 -0.467,0.478 -0.708,0.708 -0.231,0.242 -0.467,0.477 -0.707,0.707 -0.231,0.242 -0.467,0.477 -0.708,0.708 -0.23,0.241 -0.467,0.477 -0.707,0.707 -0.231,0.242 -0.467,0.477 -0.708,0.708 -0.231,0.242 -0.467,0.477 -0.707,0.708 -0.231,0.241 -0.468,0.477 -0.708,0.708 -0.231,0.241 -0.467,0.476 -0.707,0.706 -0.231,0.242 -0.467,0.478 -0.708,0.708 -0.231,0.242 -0.467,0.477 -0.708,0.708 -0.231,0.242 -0.467,0.477 -0.707,0.708 -0.231,0.241 -0.467,0.477 -0.708,0.707 -0.231,0.242 -0.467,0.478 -0.708,0.708 -0.231,0.242 -0.467,0.477 -0.707,0.707 -0.231,0.242 -0.467,0.477 -0.708,0.708 -0.23,0.241 -0.466,0.477 -0.707,0.707 -0.231,0.242 -0.467,0.477 -0.708,0.708 -0.231,0.242 -0.467,0.477 -0.707,0.708 -0.231,0.241 -0.468,0.477 -0.709,0.708 -0.23,0.241 -0.466,0.476 -0.707,0.707 -0.23,0.241 -0.467,0.477 -0.707,0.707 -3.707,3.879 -8.646,6.382 -14.924,6.382 -17.897,0 -29.482,-19.491 -32.188,-36.19 -0.055,0.053 -0.108,0.108 -0.163,0.16 -0.235,0.237 -0.467,0.48 -0.708,0.709 -0.235,0.236 -0.467,0.478 -0.707,0.707 -0.236,0.237 -0.467,0.479 -0.708,0.708 -0.235,0.236 -0.467,0.478 -0.707,0.707 -0.236,0.237 -0.467,0.479 -0.708,0.708 -0.235,0.236 -0.467,0.479 -0.708,0.708 -0.235,0.236 -0.467,0.478 -0.707,0.707 -0.236,0.237 -0.467,0.479 -0.708,0.708 -0.235,0.236 -0.466,0.478 -0.707,0.706 -0.235,0.237 -0.467,0.479 -0.708,0.709 -0.235,0.236 -0.467,0.478 -0.707,0.707 -0.236,0.237 -0.467,0.479 -0.708,0.708 -0.235,0.237 -0.467,0.479 -0.708,0.708 -0.235,0.236 -0.467,0.478 -0.708,0.707 -0.235,0.237 -0.467,0.479 -0.707,0.708 -0.236,0.237 -0.467,0.478 -0.707,0.707 -0.236,0.237 -0.467,0.478 -0.707,0.707 -0.236,0.237 -0.468,0.479 -0.709,0.708 -0.235,0.237 -0.467,0.479 -0.707,0.708 -0.236,0.237 -0.467,0.479 -0.708,0.708 -0.235,0.236 -0.467,0.478 -0.708,0.707 -0.235,0.237 -0.467,0.479 -0.707,0.708 -0.236,0.237 -0.467,0.479 -0.708,0.708 -0.235,0.236 -0.467,0.478 -0.707,0.707 -0.236,0.237 -0.467,0.479 -0.708,0.708 -0.235,0.236 -0.466,0.478 -0.707,0.707 -0.236,0.237 -0.467,0.479 -0.708,0.708 -0.236,0.237 -0.467,0.479 -0.708,0.708 -0.235,0.236 -0.467,0.478 -0.707,0.707 -0.236,0.237 -0.467,0.479 -0.708,0.708 -0.236,0.237 -0.467,0.478 -0.708,0.707 -0.235,0.237 -0.466,0.479 -0.707,0.708 -0.236,0.237 -0.467,0.478 -0.708,0.707 -0.235,0.237 -0.466,0.479 -0.707,0.707 -0.235,0.237 -0.467,0.48 -0.708,0.709 -0.235,0.236 -0.467,0.478 -0.707,0.707 -0.236,0.237 -0.468,0.479 -0.709,0.708 -0.235,0.237 -0.466,0.479 -0.707,0.707 -0.235,0.237 -0.467,0.479 -0.707,0.708 -5.062,5.09 -11.377,8.433 -18.777,8.433 -16.274,0 -23.592,-16.779 -23.592,-30.909 0,-11.601 5.334,-26.683 14.786,-35.67 0.235,-0.237 0.467,-0.479 0.707,-0.708 0.236,-0.237 0.468,-0.479 0.709,-0.708 0.235,-0.236 0.466,-0.478 0.707,-0.707 0.235,-0.237 0.466,-0.479 0.707,-0.708 0.235,-0.236 0.467,-0.478 0.707,-0.707 0.236,-0.236 0.467,-0.479 0.708,-0.708 0.236,-0.236 0.467,-0.478 0.708,-0.707 0.235,-0.237 0.467,-0.479 0.708,-0.708 0.235,-0.237 0.467,-0.479 0.707,-0.708 0.236,-0.236 0.467,-0.478 0.708,-0.707 0.235,-0.237 0.467,-0.479 0.707,-0.708 0.236,-0.236 0.467,-0.478 0.708,-0.707 0.235,-0.237 0.466,-0.479 0.707,-0.707 0.236,-0.237 0.468,-0.48 0.709,-0.709 0.235,-0.236 0.466,-0.478 0.707,-0.707 0.235,-0.237 0.467,-0.479 0.707,-0.708 0.236,-0.236 0.467,-0.478 0.708,-0.707 0.235,-0.237 0.467,-0.479 0.707,-0.708 0.236,-0.236 0.467,-0.478 0.708,-0.707 0.236,-0.237 0.467,-0.479 0.708,-0.709 0.235,-0.236 0.467,-0.478 0.707,-0.707 0.235,-0.236 0.467,-0.478 0.707,-0.707 0.236,-0.236 0.468,-0.479 0.708,-0.708 0.236,-0.236 0.467,-0.478 0.708,-0.707 0.235,-0.237 0.467,-0.479 0.708,-0.708 0.235,-0.237 0.467,-0.479 0.708,-0.708 0.235,-0.237 0.466,-0.478 0.707,-0.707 0.235,-0.237 0.467,-0.479 0.707,-0.708 0.236,-0.236 0.467,-0.478 0.708,-0.707 0.235,-0.237 0.466,-0.479 0.707,-0.707 0.236,-0.237 0.467,-0.479 0.708,-0.708 0.235,-0.237 0.467,-0.479 0.708,-0.708 0.235,-0.237 0.467,-0.479 0.708,-0.708 0.235,-0.237 0.466,-0.479 0.707,-0.707 0.235,-0.237 0.467,-0.479 0.708,-0.708 0.235,-0.236 0.466,-0.478 0.707,-0.707 0.235,-0.237 0.467,-0.479 0.708,-0.708 0.235,-0.237 0.467,-0.479 0.707,-0.708 0.236,-0.236 0.467,-0.478 0.708,-0.707 0.235,-0.237 0.467,-0.479 0.707,-0.708 0.236,-0.236 0.467,-0.478 0.708,-0.707 0.235,-0.237 0.467,-0.479 0.708,-0.708 0.235,-0.237 0.466,-0.479 0.707,-0.707 0.236,-0.237 0.467,-0.479 0.708,-0.708 0.235,-0.237 0.467,-0.479 0.708,-0.708 0.235,-0.237 0.466,-0.479 0.707,-0.707 0.235,-0.237 0.466,-0.479 0.707,-0.707 0.236,-0.237 0.467,-0.479 0.708,-0.708 0.236,-0.237 0.467,-0.479 0.708,-0.708 0.235,-0.237 0.467,-0.479 0.707,-0.708 0.236,-0.236 0.467,-0.478 0.708,-0.707 0.065,-0.065 0.13,-0.131 0.195,-0.196 -4.559,-1.404 -9.202,-3.527 -13.787,-6.207 -0.063,0.061 -0.125,0.124 -0.188,0.184 -0.235,0.237 -0.467,0.478 -0.707,0.708 -0.236,0.236 -0.468,0.478 -0.709,0.708 -0.235,0.236 -0.467,0.477 -0.707,0.707 -0.235,0.236 -0.467,0.478 -0.707,0.707 -0.236,0.237 -0.468,0.478 -0.708,0.708 -0.235,0.237 -0.467,0.478 -0.707,0.708 -0.235,0.236 -0.467,0.477 -0.707,0.706 -0.236,0.237 -0.468,0.479 -0.708,0.709 -0.236,0.237 -0.468,0.478 -0.709,0.708 -0.235,0.236 -0.467,0.477 -0.707,0.707 -0.235,0.237 -0.467,0.478 -0.707,0.707 -0.236,0.237 -0.468,0.478 -0.708,0.708 -0.235,0.237 -0.467,0.478 -0.707,0.708 -0.236,0.236 -0.468,0.477 -0.708,0.707 -0.235,0.237 -0.467,0.478 -0.707,0.707 -0.236,0.237 -0.468,0.479 -0.709,0.709 -0.235,0.236 -0.467,0.477 -0.707,0.707 -0.235,0.237 -0.467,0.478 -0.707,0.708 -0.236,0.236 -0.468,0.477 -0.708,0.707 -0.235,0.237 -0.467,0.478 -0.708,0.708 -0.235,0.236 -0.467,0.478 -0.707,0.707 -0.236,0.237 -0.468,0.478 -0.708,0.708 -0.235,0.237 -0.468,0.478 -0.708,0.708 -0.235,0.236 -0.467,0.477 -0.706,0.706 -0.236,0.237 -0.468,0.479 -0.708,0.709 -0.236,0.236 -0.468,0.477 -0.708,0.707 -0.235,0.237 -0.468,0.478 -0.708,0.708 -0.235,0.237 -0.467,0.478 -0.707,0.707 -0.236,0.237 -0.468,0.478 -0.708,0.708 -0.235,0.237 -0.468,0.478 -0.708,0.708 -0.235,0.237 -0.467,0.478 -0.707,0.707 -0.235,0.237 -0.467,0.478 -0.707,0.707 -0.236,0.237 -0.468,0.478 -0.708,0.708 -0.236,0.237 -0.468,0.478 -0.708,0.708 -0.235,0.237 -0.467,0.478 -0.707,0.708 -0.236,0.236 -0.468,0.477 -0.708,0.707 -0.235,0.237 -0.467,0.478 -0.708,0.708 -0.235,0.237 -0.467,0.478 -0.708,0.708 -0.235,0.236 -0.467,0.477 -0.707,0.707 -0.235,0.237 -0.467,0.478 -0.707,0.708 -0.235,0.236 -0.467,0.477 -0.707,0.706 -0.236,0.237 -0.468,0.479 -0.708,0.709 -0.236,0.236 -0.468,0.477 -0.708,0.707 -0.235,0.237 -0.468,0.478 -0.708,0.708 -0.235,0.237 -0.468,0.478 -0.708,0.708 -0.235,0.236 -0.467,0.477 -0.707,0.707 -0.235,0.237 -0.467,0.478 -0.707,0.708 -0.236,0.236 -0.468,0.477 -0.708,0.707 -0.235,0.237 -0.467,0.478 -0.707,0.707 -0.236,0.237 -0.468,0.478 -0.708,0.708 -0.236,0.237 -0.468,0.478 -0.708,0.708 -0.235,0.237 -0.468,0.478 -0.708,0.708 -0.235,0.237 -0.467,0.478 -0.707,0.707 -0.235,0.237 -0.467,0.478 -0.708,0.708 -5.668,5.698 -12.709,9.488 -20.582,9.488 -13.751,0 -20.312,-12.869 -20.312,-25.106 0,-11.441 5.775,-25.399 15.039,-34.251 0.236,-0.236 0.468,-0.478 0.708,-0.707 0.236,-0.237 0.468,-0.478 0.708,-0.708 0.235,-0.236 0.467,-0.478 0.707,-0.707 0.236,-0.237 0.467,-0.478 0.708,-0.708 0.235,-0.236 0.466,-0.477 0.707,-0.707 0.235,-0.236 0.467,-0.478 0.708,-0.708 0.235,-0.236 0.467,-0.478 0.707,-0.708 0.236,-0.236 0.468,-0.478 0.708,-0.707 0.236,-0.237 0.468,-0.479 0.708,-0.708 0.236,-0.237 0.467,-0.478 0.707,-0.707 0.236,-0.237 0.467,-0.478 0.708,-0.708 0.235,-0.236 0.467,-0.478 0.707,-0.708 0.236,-0.236 0.467,-0.477 0.707,-0.707 0.236,-0.236 0.468,-0.478 0.709,-0.708 0.235,-0.236 0.467,-0.478 0.707,-0.707 0.236,-0.237 0.468,-0.479 0.708,-0.709 0.236,-0.236 0.467,-0.477 0.707,-0.707 0.236,-0.236 0.468,-0.478 0.708,-0.707 0.235,-0.236 0.467,-0.478 0.707,-0.708 0.236,-0.236 0.468,-0.478 0.708,-0.707 0.236,-0.237 0.467,-0.478 0.708,-0.708 0.235,-0.236 0.466,-0.477 0.707,-0.707 0.235,-0.236 0.467,-0.478 0.708,-0.708 0.236,-0.237 0.468,-0.478 0.708,-0.708 0.235,-0.236 0.467,-0.478 0.707,-0.707 0.236,-0.237 0.467,-0.478 0.708,-0.708 0.235,-0.236 0.467,-0.478 0.707,-0.707 0.236,-0.237 0.467,-0.478 0.708,-0.708 0.235,-0.236 0.467,-0.478 0.707,-0.708 0.236,-0.236 0.467,-0.477 0.707,-0.707 0.236,-0.236 0.468,-0.478 0.709,-0.708 0.236,-0.237 0.467,-0.478 0.707,-0.707 0.236,-0.237 0.467,-0.478 0.708,-0.708 0.235,-0.236 0.467,-0.478 0.707,-0.708 0.236,-0.236 0.468,-0.478 0.708,-0.707 0.235,-0.236 0.467,-0.478 0.707,-0.708 0.236,-0.236 0.468,-0.478 0.708,-0.707 0.104,-0.105 0.207,-0.21 0.312,-0.313 -5.727,-9.663 -9.235,-19.539 -9.235,-28.198 0,-5.918 1.873,-10.092 4.935,-12.955 0.228,-0.245 0.464,-0.48 0.707,-0.708 0.228,-0.244 0.465,-0.48 0.708,-0.708 0.228,-0.244 0.464,-0.48 0.708,-0.707 0.227,-0.245 0.464,-0.48 0.707,-0.708 0.228,-0.244 0.464,-0.479 0.707,-0.707 0.228,-0.244 0.465,-0.48 0.708,-0.708 0.228,-0.244 0.464,-0.48 0.708,-0.707 0.228,-0.245 0.464,-0.48 0.707,-0.708 0.229,-0.245 0.465,-0.48 0.708,-0.708 0.228,-0.244 0.464,-0.48 0.708,-0.707 0.228,-0.245 0.464,-0.48 0.707,-0.708 0.228,-0.244 0.464,-0.48 0.708,-0.707 0.228,-0.245 0.464,-0.48 0.707,-0.707 0.228,-0.245 0.464,-0.481 0.708,-0.709 0.228,-0.244 0.464,-0.479 0.708,-0.707 0.228,-0.245 0.464,-0.48 0.708,-0.708 0.227,-0.244 0.464,-0.48 0.707,-0.707 0.228,-0.245 0.464,-0.48 0.707,-0.708 0.228,-0.244 0.465,-0.48 0.708,-0.707 0.228,-0.245 0.464,-0.48 0.708,-0.708 0.227,-0.244 0.464,-0.48 0.707,-0.708 0.228,-0.244 0.464,-0.479 0.707,-0.707 0.228,-0.244 0.465,-0.48 0.708,-0.708 0.228,-0.244 0.465,-0.48 0.708,-0.708 0.228,-0.244 0.464,-0.479 0.707,-0.707 0.228,-0.244 0.465,-0.48 0.708,-0.708 0.228,-0.244 0.464,-0.479 0.708,-0.707 0.228,-0.245 0.464,-0.48 0.707,-0.708 0.228,-0.244 0.464,-0.48 0.708,-0.707 0.228,-0.245 0.464,-0.48 0.707,-0.707 0.228,-0.245 0.465,-0.481 0.708,-0.709 0.228,-0.244 0.464,-0.48 0.708,-0.707 0.228,-0.245 0.464,-0.48 0.707,-0.708 0.228,-0.244 0.464,-0.48 0.708,-0.707 0.228,-0.245 0.464,-0.48 0.707,-0.708 0.228,-0.244 0.465,-0.48 0.708,-0.707 0.228,-0.245 0.464,-0.48 0.707,-0.708 0.229,-0.245 0.465,-0.48 0.709,-0.708 0.227,-0.244 0.463,-0.479 0.706,-0.707 0.228,-0.244 0.465,-0.48 0.708,-0.708 0.228,-0.244 0.465,-0.48 0.708,-0.707 0.228,-0.245 0.464,-0.48 0.707,-0.708 0.228,-0.244 0.465,-0.48 0.708,-0.708 0.228,-0.244 0.464,-0.479 0.708,-0.707 0.228,-0.245 0.464,-0.48 0.708,-0.708 0.228,-0.244 0.464,-0.48 0.707,-0.707 0.228,-0.245 0.464,-0.48 0.707,-0.707 0.228,-0.245 0.464,-0.481 0.708,-0.708 0.228,-0.245 0.464,-0.48 0.708,-0.708 0.228,-0.245 0.464,-0.48 0.707,-0.708 0.228,-0.244 0.464,-0.48 0.708,-0.707 0.228,-0.245 0.464,-0.481 0.708,-0.708 0.228,-0.245 0.464,-0.48 0.707,-0.707 0.228,-0.245 0.464,-0.48 0.708,-0.708 0.228,-0.244 0.464,-0.48 0.707,-0.708 0.228,-0.244 0.464,-0.479 0.707,-0.707 0.228,-0.244 0.465,-0.48 0.708,-0.708 0.228,-0.244 0.465,-0.48 0.708,-0.707 0.228,-0.245 0.464,-0.481 0.708,-0.708 0.228,-0.245 0.464,-0.48 0.707,-0.708 0.228,-0.244 0.464,-0.479 0.708,-0.707 0.228,-0.245 0.464,-0.48 0.707,-0.708 0.228,-0.244 0.464,-0.48 0.708,-0.707 0.228,-0.245 0.464,-0.48 0.707,-0.707 0.228,-0.245 0.464,-0.481 0.708,-0.708 0.228,-0.245 0.465,-0.481 0.708,-0.709 0.228,-0.244 0.464,-0.479 0.707,-0.707 0.228,-0.244 0.464,-0.48 0.708,-0.707 0.228,-0.245 0.464,-0.48 0.707,-0.708 0.228,-0.244 0.465,-0.48 0.708,-0.707 0.228,-0.245 0.464,-0.48 0.708,-0.708 0.227,-0.244 0.463,-0.48 0.707,-0.707 0.228,-0.245 0.464,-0.48 0.708,-0.708 0.228,-0.245 0.464,-0.48 0.708,-0.708 0.228,-0.245 0.464,-0.48 0.707,-0.707 0.228,-0.245 0.464,-0.48 0.708,-0.708 0.227,-0.244 0.464,-0.48 0.707,-0.708 0.228,-0.244 0.464,-0.479 0.708,-0.707 0.228,-0.245 0.464,-0.48 0.707,-0.708 0.228,-0.244 0.464,-0.48 0.708,-0.707 0.228,-0.245 0.464,-0.48 0.707,-0.708 0.228,-0.244 0.465,-0.48 0.708,-0.707 0.228,-0.245 0.464,-0.48 0.708,-0.708 0.228,-0.245 0.464,-0.48 0.707,-0.708 0.228,-0.244 0.464,-0.48 0.708,-0.707 0.228,-0.245 0.464,-0.48 0.707,-0.708 0.228,-0.244 0.465,-0.48 0.708,-0.707 0.228,-0.245 0.464,-0.481 0.708,-0.708 0.228,-0.245 0.464,-0.48 0.707,-0.707 0.228,-0.245 0.464,-0.48 0.708,-0.708 0.228,-0.245 0.464,-0.48 0.707,-0.708 0.228,-0.244 0.465,-0.48 0.708,-0.707 0.228,-0.245 0.464,-0.48 0.707,-0.708 0.228,-0.244 0.465,-0.48 0.708,-0.707 0.228,-0.245 0.465,-0.481 0.708,-0.709 0.228,-0.244 0.464,-0.479 0.707,-0.707 0.228,-0.244 0.465,-0.48 0.708,-0.707 0.228,-0.245 0.464,-0.48 0.707,-0.707 0.228,-0.245 0.464,-0.481 0.708,-0.708 0.228,-0.245 0.464,-0.48 0.708,-0.708 0.228,-0.245 0.464,-0.48 0.707,-0.708 0.228,-0.244 0.465,-0.48 0.708,-0.708 0.228,-0.244 0.464,-0.479 0.707,-0.707 0.228,-0.244 0.465,-0.48 0.708,-0.707 0.228,-0.245 0.464,-0.48 0.708,-0.708 0.227,-0.244 0.463,-0.48 0.707,-0.707 0.228,-0.245 0.464,-0.48 0.708,-0.708 0.228,-0.245 0.464,-0.48 0.707,-0.708 0.228,-0.244 0.465,-0.48 0.708,-0.708 0.228,-0.244 0.464,-0.479 0.708,-0.707 0.227,-0.244 0.464,-0.48 0.707,-0.707 0.228,-0.245 0.464,-0.48 0.708,-0.708 0.228,-0.245 0.464,-0.48 0.707,-0.708 0.228,-0.244 0.465,-0.48 0.708,-0.707 0.228,-0.245 0.464,-0.48 0.707,-0.707 0.228,-0.245 0.464,-0.481 0.708,-0.708 0.228,-0.245 0.465,-0.481 0.708,-0.709 0.228,-0.244 0.464,-0.479 0.707,-0.707 0.228,-0.244 0.464,-0.48 0.708,-0.707 0.228,-0.245 0.464,-0.48 0.707,-0.708 0.228,-0.244 0.465,-0.48 0.708,-0.707 0.228,-0.245 0.464,-0.48 0.708,-0.708 0.227,-0.244 0.463,-0.48 0.707,-0.707 0.228,-0.245 0.464,-0.481 0.708,-0.709 0.228,-0.244 0.464,-0.479 0.707,-0.707 0.228,-0.244 0.465,-0.48 0.708,-0.707 0.228,-0.245 0.464,-0.48 0.708,-0.708 0.227,-0.244 0.464,-0.48 0.707,-0.707 0.228,-0.245 0.464,-0.48 0.708,-0.708 0.228,-0.245 0.464,-0.48 0.707,-0.708 0.228,-0.244 0.465,-0.48 0.708,-0.708 0.228,-0.244 0.464,-0.479 0.707,-0.706 0.228,-0.245 0.465,-0.481 0.708,-0.708 0.228,-0.245 0.464,-0.48 0.708,-0.708 0.228,-0.245 0.464,-0.48 0.707,-0.708 0.228,-0.244 0.464,-0.48 0.708,-0.707 0.228,-0.245 0.464,-0.48 0.707,-0.708 0.228,-0.244 0.465,-0.48 0.708,-0.708 0.228,-0.244 0.464,-0.479 0.708,-0.707 0.227,-0.244 0.463,-0.48 0.707,-0.707 0.228,-0.245 0.464,-0.48 0.708,-0.708 0.228,-0.245 0.464,-0.48 0.707,-0.708 0.228,-0.244 0.465,-0.48 0.708,-0.707 0.228,-0.245 0.464,-0.48 0.708,-0.708 0.228,-0.245 0.464,-0.48 0.708,-0.708 0.227,-0.244 0.464,-0.48 0.707,-0.707 0.228,-0.245 0.464,-0.48 0.707,-0.708 0.228,-0.244 0.465,-0.48 0.708,-0.707 0.228,-0.245 0.464,-0.48 0.707,-0.707 0.228,-0.245 0.465,-0.481 0.708,-0.708 0.228,-0.245 0.464,-0.48 0.708,-0.708 0.228,-0.245 0.464,-0.48 0.708,-0.708 0.228,-0.244 0.464,-0.48 0.707,-0.707 0.228,-0.245 0.464,-0.48 0.707,-0.708 0.228,-0.244 0.465,-0.48 0.708,-0.707 0.228,-0.245 0.464,-0.48 0.708,-0.708 0.227,-0.244 0.463,-0.48 0.707,-0.707 0.228,-0.245 0.464,-0.48 0.708,-0.708 0.228,-0.245 0.464,-0.48 0.708,-0.708 0.228,-0.245 0.464,-0.48 0.707,-0.707 0.228,-0.245 0.464,-0.48 0.708,-0.708 0.228,-0.244 0.464,-0.48 0.707,-0.707 0.228,-0.245 0.464,-0.48 0.708,-0.708 0.228,-0.245 0.464,-0.48 0.707,-0.708 0.228,-0.244 0.464,-0.479 0.707,-0.707 0.229,-0.244 0.465,-0.48 0.708,-0.708 0.229,-0.244 0.465,-0.48 0.709,-0.708 0.227,-0.244 0.463,-0.48 0.707,-0.707 0.228,-0.245 0.464,-0.48 0.707,-0.708 0.228,-0.244 0.464,-0.48 0.708,-0.707 0.228,-0.245 0.464,-0.48 0.707,-0.708 0.228,-0.244 0.465,-0.48 0.708,-0.707 0.228,-0.245 0.464,-0.48 0.708,-0.708 0.228,-0.244 0.464,-0.48 0.707,-0.707 0.228,-0.245 0.464,-0.48 0.708,-0.708 0.228,-0.245 0.464,-0.48 0.707,-0.708 0.228,-0.244 0.465,-0.48 0.708,-0.707 0.228,-0.245 0.464,-0.48 0.708,-0.708 0.228,-0.244 0.464,-0.48 0.707,-0.707 0.228,-0.245 0.464,-0.48 0.708,-0.708 0.228,-0.245 0.464,-0.48 0.708,-0.708 0.228,-0.244 0.463,-0.479 0.706,-0.707 0.229,-0.244 0.465,-0.48 0.709,-0.708 0.227,-0.244 0.464,-0.48 0.707,-0.707 0.228,-0.245 0.464,-0.48 0.708,-0.708 0.228,-0.245 0.464,-0.48 0.707,-0.708 0.228,-0.244 0.464,-0.479 0.708,-0.707 0.228,-0.245 0.464,-0.48 0.708,-0.708 0.228,-0.245 0.464,-0.48 0.707,-0.707 0.228,-0.245 0.464,-0.48 0.708,-0.708 0.227,-0.244 0.464,-0.48 0.707,-0.707 0.228,-0.245 0.464,-0.48 0.708,-0.708 0.228,-0.245 0.464,-0.48 0.707,-0.708 0.228,-0.244 0.465,-0.48 0.708,-0.707 0.228,-0.245 0.465,-0.481 0.708,-0.708 0.228,-0.245 0.464,-0.48 0.707,-0.707 0.228,-0.245 0.464,-0.48 0.708,-0.708 0.228,-0.245 0.464,-0.48 0.707,-0.708 0.228,-0.244 0.464,-0.479 0.707,-0.707 0.229,-0.244 0.465,-0.48 0.709,-0.708 0.227,-0.244 0.464,-0.48 0.707,-0.707 0.228,-0.245 0.465,-0.481 0.708,-0.708 0.228,-0.245 0.464,-0.48 0.707,-0.708 0.228,-0.244 0.464,-0.479 0.708,-0.707 0.228,-0.245 0.464,-0.48 0.707,-0.708 0.228,-0.244 0.465,-0.48 0.708,-0.707 0.228,-0.245 0.464,-0.48 0.708,-0.708 0.227,-0.244 0.464,-0.48 0.707,-0.707 0.228,-0.245 0.464,-0.48 0.708,-0.708 0.228,-0.245 0.464,-0.48 0.708,-0.708 0.228,-0.245 0.464,-0.48 0.707,-0.707 0.228,-0.245 0.464,-0.48 0.708,-0.708 0.228,-0.244 0.464,-0.48 0.707,-0.707 0.228,-0.245 0.464,-0.48 0.708,-0.708 0.228,-0.245 0.464,-0.48 0.707,-0.708 0.228,-0.244 0.464,-0.479 0.707,-0.707 0.229,-0.245 0.465,-0.48 0.709,-0.708 0.228,-0.245 0.464,-0.48 0.707,-0.707 0.228,-0.245 0.464,-0.48 0.708,-0.708 0.228,-0.244 0.464,-0.48 0.707,-0.708 0.228,-0.244 0.464,-0.479 0.708,-0.707 0.228,-0.245 0.464,-0.48 0.707,-0.708 0.228,-0.244 0.465,-0.48 0.708,-0.707 0.228,-0.245 0.465,-0.481 0.708,-0.708 0.228,-0.245 0.464,-0.48 0.707,-0.707 0.228,-0.245 0.464,-0.48 0.708,-0.708 0.228,-0.245 0.464,-0.48 0.707,-0.708 0.228,-0.244 0.465,-0.48 0.708,-0.707 0.228,-0.245 0.464,-0.48 0.708,-0.708 0.228,-0.244 0.464,-0.48 0.707,-0.707 0.228,-0.245 0.465,-0.481 0.708,-0.708 0.228,-0.245 0.464,-0.48 0.707,-0.708 0.228,-0.244 0.464,-0.479 0.708,-0.707 0.228,-0.244 0.464,-0.48 0.708,-0.708 0.228,-0.244 0.464,-0.48 0.707,-0.707 0.228,-0.245 0.464,-0.48 0.708,-0.708 0.228,-0.244 0.464,-0.48 0.707,-0.708 0.228,-0.244 0.465,-0.48 0.708,-0.708 0.228,-0.244 0.464,-0.479 0.708,-0.707 0.228,-0.244 0.464,-0.48 0.707,-0.707 0.228,-0.245 0.464,-0.48 0.708,-0.708 0.227,-0.244 0.464,-0.479 0.707,-0.707 0.228,-0.245 0.464,-0.48 0.708,-0.708 0.228,-0.245 0.464,-0.48 0.707,-0.708 0.228,-0.244 0.465,-0.48 0.708,-0.708 0.228,-0.244 0.464,-0.479 0.708,-0.707 0.228,-0.244 0.464,-0.48 0.707,-0.707 0.228,-0.245 0.464,-0.48 0.708,-0.708 0.228,-0.245 0.464,-0.48 0.707,-0.708 0.228,-0.244 0.464,-0.479 0.707,-0.707 0.229,-0.244 0.465,-0.48 0.708,-0.708 0.229,-0.244 0.465,-0.48 0.709,-0.708 0.227,-0.244 0.464,-0.479 0.707,-0.707 0.228,-0.244 0.464,-0.48 0.707,-0.708 0.228,-0.244 0.465,-0.479 0.708,-0.707 0.228,-0.245 0.464,-0.48 0.708,-0.708 0.227,-0.244 0.464,-0.48 0.707,-0.707 0.228,-0.244 0.464,-0.48 0.707,-0.707 0.228,-0.245 0.465,-0.481 0.708,-0.708 0.228,-0.245 0.465,-0.481 0.708,-0.708 0.228,-0.245 0.464,-0.48 0.707,-0.708 0.228,-0.244 0.465,-0.48 0.708,-0.707 0.228,-0.245 0.464,-0.48 0.708,-0.708 0.227,-0.244 0.464,-0.48 0.707,-0.707 0.228,-0.245 0.464,-0.48 0.708,-0.708 0.228,-0.244 0.464,-0.48 0.707,-0.707 0.228,-0.245 0.464,-0.48 0.708,-0.708 0.228,-0.245 0.464,-0.48 0.708,-0.708 0.228,-0.244 0.464,-0.48 0.707,-0.707 0.228,-0.245 0.464,-0.48 0.708,-0.708 0.228,-0.244 0.464,-0.48 0.707,-0.707 0.228,-0.245 0.464,-0.48 0.708,-0.708 0.228,-0.245 0.464,-0.48 0.707,-0.708 0.229,-0.244 0.465,-0.48 0.708,-0.708 0.228,-0.244 0.464,-0.479 0.707,-0.706 0.228,-0.245 0.465,-0.481 0.708,-0.708 0.228,-0.245 0.464,-0.48 0.708,-0.708 0.228,-0.244 0.464,-0.48 0.707,-0.708 0.228,-0.244 0.465,-0.479 0.708,-0.707 0.228,-0.245 0.464,-0.48 0.708,-0.708 0.228,-0.244 0.464,-0.48 0.708,-0.708 0.227,-0.244 0.464,-0.479 0.707,-0.707 0.228,-0.244 0.464,-0.48 0.707,-0.707 0.228,-0.245 0.464,-0.48 0.707,-0.708 0.229,-0.244 0.465,-0.48 0.708,-0.708 0.228,-0.244 0.465,-0.48 0.708,-0.707 0.228,-0.245 0.464,-0.48 0.708,-0.708 0.228,-0.245 0.464,-0.48 0.708,-0.708 0.227,-0.244 0.464,-0.479 0.707,-0.707 0.228,-0.244 0.464,-0.48 0.707,-0.708 0.228,-0.244 0.465,-0.479 0.708,-0.707 0.228,-0.244 0.464,-0.48 0.707,-0.707 0.228,-0.245 0.465,-0.481 0.708,-0.708 0.228,-0.245 0.464,-0.48 0.708,-0.708 0.228,-0.245 0.464,-0.48 0.708,-0.708 0.228,-0.244 0.464,-0.48 0.707,-0.707 0.228,-0.245 0.464,-0.48 0.708,-0.708 0.228,-0.244 0.464,-0.48 0.707,-0.707 0.228,-0.245 0.464,-0.48 0.708,-0.708 0.228,-0.244 0.464,-0.48 0.707,-0.707 0.228,-0.245 0.464,-0.48 0.707,-0.708 0.229,-0.244 0.465,-0.48 0.708,-0.708 0.229,-0.244 0.465,-0.48 0.709,-0.708 0.227,-0.244 0.464,-0.479 0.707,-0.707 0.228,-0.244 0.464,-0.48 0.707,-0.707 0.228,-0.245 0.465,-0.48 0.708,-0.708 0.228,-0.244 0.464,-0.48 0.707,-0.708 0.228,-0.244 0.465,-0.479 0.708,-0.707 0.228,-0.244 0.464,-0.48 0.707,-0.707 0.228,-0.245 0.465,-0.481 0.709,-0.709 0.227,-0.244 0.464,-0.479 0.707,-0.707 0.228,-0.244 0.464,-0.48 0.707,-0.708 0.228,-0.244 0.465,-0.479 0.708,-0.707 0.228,-0.245 0.464,-0.48 0.708,-0.708 0.228,-0.244 0.464,-0.48 0.707,-0.707 0.228,-0.245 0.464,-0.48 0.708,-0.708 0.228,-0.245 0.464,-0.48 0.708,-0.708 0.227,-0.244 0.463,-0.479 0.706,-0.707 0.229,-0.244 0.465,-0.48 0.709,-0.708 0.227,-0.244 0.464,-0.48 0.707,-0.707 0.228,-0.245 0.464,-0.48 0.708,-0.708 0.228,-0.244 0.464,-0.48 0.707,-0.707 0.228,-0.245 0.465,-0.48 0.708,-0.708 0.228,-0.245 0.464,-0.48 0.708,-0.708 0.228,-0.244 0.464,-0.48 0.707,-0.707 0.228,-0.244 0.464,-0.48 0.707,-0.707 0.228,-0.245 0.465,-0.481 0.708,-0.708 0.228,-0.245 0.464,-0.48 0.708,-0.708 0.228,-0.244 0.464,-0.48 0.707,-0.708 0.228,-0.244 0.465,-0.479 0.708,-0.707 0.228,-0.245 0.465,-0.48 0.708,-0.708 0.228,-0.244 0.464,-0.48 0.707,-0.707 0.228,-0.245 0.464,-0.48 0.708,-0.708 0.228,-0.244 0.464,-0.48 0.707,-0.707 0.228,-0.245 0.464,-0.48 0.707,-0.708 0.229,-0.244 0.465,-0.48 0.709,-0.708 0.227,-0.244 0.464,-0.48 0.707,-0.707 0.228,-0.245 0.465,-0.481 0.708,-0.708 0.228,-0.245 0.464,-0.48 0.707,-0.707 0.228,-0.245 0.465,-0.48 0.708,-0.708 0.228,-0.244 0.464,-0.48 0.707,-0.708 0.228,-0.244 0.465,-0.479 0.708,-0.707 0.228,-0.244 0.464,-0.48 0.707,-0.707 0.228,-0.245 0.465,-0.481 0.708,-0.708 0.228,-0.245 0.465,-0.481 0.708,-0.708 0.228,-0.245 0.464,-0.48 0.707,-0.708 0.228,-0.244 0.465,-0.479 0.708,-0.707 0.228,-0.245 0.464,-0.48 0.708,-0.708 0.228,-0.244 0.464,-0.48 0.707,-0.707 0.228,-0.245 0.464,-0.48 0.708,-0.708 0.228,-0.244 0.464,-0.48 0.707,-0.707 0.228,-0.245 0.464,-0.48 0.708,-0.708 0.228,-0.245 0.464,-0.48 0.708,-0.708 0.228,-0.244 0.464,-0.48 0.707,-0.707 0.228,-0.245 0.464,-0.48 0.708,-0.708 0.228,-0.244 0.464,-0.48 0.707,-0.707 0.228,-0.245 0.465,-0.48 0.708,-0.708 0.228,-0.244 0.464,-0.48 0.707,-0.708 0.228,-0.244 0.465,-0.479 0.708,-0.707 0.228,-0.245 0.464,-0.48 0.708,-0.708 0.228,-0.244 0.464,-0.48 0.707,-0.707 0.228,-0.245 0.465,-0.48 0.708,-0.708 0.228,-0.244 0.464,-0.48 0.707,-0.707 0.228,-0.245 0.465,-0.48 0.708,-0.708 0.228,-0.245 0.464,-0.48 0.708,-0.708 0.228,-0.244 0.464,-0.48 0.707,-0.707 0.228,-0.245 0.465,-0.481 0.708,-0.708 0.228,-0.245 0.464,-0.48 0.707,-0.707 0.228,-0.245 0.464,-0.48 0.708,-0.708 4.27,-4.579 11.298,-6.173 18.861,-6.173 18.293,0 32.675,11.229 49.58,11.229 16.148,0 29.773,-11.355 46.68,-11.355 12.868,0 25.988,2.524 25.988,18.546 0,15.512 -11.336,35.027 -26.566,50.166 -0.234,0.237 -0.47,0.471 -0.705,0.706 -0.236,0.238 -0.474,0.475 -0.712,0.711 -0.234,0.237 -0.47,0.471 -0.706,0.706 -0.234,0.237 -0.471,0.472 -0.707,0.707 -0.235,0.238 -0.471,0.473 -0.708,0.708 -0.234,0.237 -0.471,0.472 -0.707,0.708 -0.235,0.237 -0.471,0.472 -0.708,0.707 -0.234,0.237 -0.471,0.473 -0.707,0.708 -0.235,0.237 -0.472,0.472 -0.708,0.707 -0.235,0.238 -0.471,0.473 -0.708,0.708 -0.234,0.237 -0.471,0.472 -0.707,0.708 -0.235,0.237 -0.471,0.472 -0.708,0.707 -0.234,0.237 -0.471,0.473 -0.707,0.708 -0.235,0.237 -0.471,0.472 -0.708,0.707 -0.235,0.238 -0.471,0.473 -0.708,0.708 -0.235,0.238 -0.472,0.474 -0.709,0.709 -0.234,0.237 -0.47,0.471 -0.706,0.706 -0.234,0.237 -0.47,0.471 -0.706,0.706 -0.235,0.238 -0.472,0.473 -0.709,0.709 -0.235,0.237 -0.471,0.473 -0.708,0.708 -0.234,0.237 -0.471,0.472 -0.707,0.707 -0.235,0.238 -0.471,0.473 -0.708,0.708 -0.234,0.237 -0.471,0.472 -0.707,0.708 -0.236,0.237 -0.473,0.473 -0.71,0.709 -0.234,0.237 -0.47,0.471 -0.705,0.706 -0.235,0.236 -0.47,0.471 -0.706,0.705 -0.236,0.238 -0.472,0.474 -0.71,0.71 -0.234,0.237 -0.471,0.472 -0.707,0.708 -0.235,0.237 -0.471,0.472 -0.708,0.707 -0.234,0.237 -0.471,0.473 -0.707,0.708 -0.236,0.238 -0.473,0.473 -0.71,0.709 -0.234,0.237 -0.47,0.471 -0.706,0.706 -0.234,0.237 -0.471,0.472 -0.707,0.707 -0.234,0.237 -0.47,0.472 -0.706,0.706 -0.235,0.238 -0.472,0.474 -0.709,0.71 -0.235,0.237 -0.471,0.472 -0.708,0.707 -0.235,0.237 -0.471,0.473 -0.708,0.708 -0.235,0.238 -0.472,0.474 -0.709,0.709 -0.234,0.237 -0.47,0.471 -0.706,0.706 -0.234,0.237 -0.471,0.472 -0.707,0.708 -0.235,0.237 -0.471,0.472 -0.708,0.707 -0.235,0.237 -0.471,0.473 -0.707,0.708 -0.234,0.236 -0.47,0.471 -0.706,0.705 -0.236,0.238 -0.472,0.474 -0.71,0.71 -0.235,0.238 -0.472,0.474 -0.709,0.709 -0.234,0.237 -0.47,0.472 -0.706,0.706 -0.234,0.237 -0.471,0.473 -0.707,0.708 -0.235,0.237 -0.472,0.472 -0.708,0.707 -0.235,0.238 -0.471,0.473 -0.708,0.708 -0.234,0.237 -0.471,0.472 -0.707,0.707 -0.234,0.237 -0.47,0.472 -0.706,0.706 -0.236,0.239 -0.473,0.475 -0.711,0.712 -0.234,0.236 -0.47,0.471 -0.706,0.705 -0.235,0.237 -0.471,0.473 -0.708,0.708 -0.234,0.237 -0.471,0.472 -0.707,0.707 -0.235,0.238 -0.471,0.473 -0.708,0.708 -0.234,0.237 -0.471,0.472 -0.707,0.708 -0.235,0.237 -0.471,0.472 -0.708,0.707 -0.235,0.238 -0.472,0.474 -0.709,0.71 -0.234,0.236 -0.469,0.47 -0.704,0.703 -0.236,0.238 -0.473,0.474 -0.71,0.71 -0.234,0.237 -0.471,0.472 -0.707,0.708 -0.235,0.237 -0.471,0.472 -0.708,0.707 -0.234,0.237 -0.471,0.473 -0.707,0.708 -0.235,0.237 -0.472,0.472 -0.708,0.707 -0.235,0.238 -0.472,0.474 -0.709,0.71 -0.235,0.236 -0.47,0.471 -0.706,0.705 -0.234,0.237 -0.47,0.472 -0.706,0.706 -0.235,0.238 -0.472,0.474 -0.709,0.71 -0.235,0.237 -0.471,0.472 -0.708,0.707 -0.235,0.237 -0.471,0.473 -0.708,0.708 -0.234,0.237 -0.471,0.472 -0.707,0.707 -0.235,0.238 -0.471,0.473 -0.708,0.708 -0.235,0.238 -0.472,0.474 -0.709,0.709 -0.234,0.237 -0.47,0.472 -0.706,0.706 -0.235,0.237 -0.471,0.473 -0.708,0.708 -0.234,0.236 -0.469,0.471 -0.705,0.705 -0.236,0.238 -0.473,0.474 -0.71,0.71 -0.234,0.237 -0.471,0.472 -0.707,0.708 -0.235,0.237 -0.471,0.472 -0.708,0.707 -0.235,0.238 -0.472,0.474 -0.709,0.71 -0.234,0.236 -0.47,0.471 -0.706,0.705 -0.235,0.238 -0.471,0.473 -0.708,0.708 -0.226,0.229 -0.454,0.456 -0.683,0.683 1.711,2.286 3.088,4.893 4.138,7.668 C -0.394,0.377 -0.198,0.188 0,0" />
                </g>
              </g>
            </g>
          </g>
        </g>
      </g>
      <g
         id="g3382">
        <g
           clip-path="url(#clipPath3386)"
           id="g3384">
          <g
             transform="translate(212.6696,133.5016)"
             id="g3390">
            <path
               inkscape:connector-curvature="0"
               id="path3392"
               style="fill:#ebf0f1;fill-opacity:1;fill-rule:nonzero;stroke:none"
               d="m 0,0 15.411,0 0,37.013 c 0,2.648 2.337,4.985 4.985,4.985 l 29.84,0 C 47.878,51.076 41.56,58.683 30.989,58.683 10.803,58.683 -3.957,33.829 -3.957,15.536 -3.957,10.062 -2.665,4.49 0,0" />
          </g>
          <g
             transform="translate(228.0807,93.6207)"
             id="g3394">
            <path
               inkscape:connector-curvature="0"
               id="path3396"
               style="fill:#ebf0f1;fill-opacity:1;fill-rule:nonzero;stroke:none"
               d="m 0,0 -35.998,0 c -2.648,0 -4.985,2.337 -4.985,4.985 l 0,29.911 c 0,2.648 2.337,4.985 4.985,4.985 l 7.442,0 c -12.85,11.192 -27.628,18.943 -40.519,18.943 -30.91,0 -72.668,-44.409 -72.668,-74.308 0,-14.257 10.849,-18.42 23.087,-18.42 18.293,0 32.675,11.229 49.581,11.229 16.148,0 29.773,-11.355 46.679,-11.355 8.753,0 17.618,1.173 22.396,6.962 L 0,0 Z" />
          </g>
          <g
             transform="translate(189.1576,179.0645)"
             id="g3398">
            <path
               inkscape:connector-curvature="0"
               id="path3400"
               style="fill:#ebf0f1;fill-opacity:1;fill-rule:nonzero;stroke:none"
               d="m 0,0 c 20.437,0 32.801,25.736 32.801,43.398 0,14.13 -7.317,30.91 -23.592,30.91 -20.563,0 -32.801,-25.737 -32.801,-43.399 C -23.592,16.778 -16.275,0 0,0" />
          </g>
          <g
             transform="translate(128.8529,179.0645)"
             id="g3402">
            <path
               inkscape:connector-curvature="0"
               id="path3404"
               style="fill:#ebf0f1;fill-opacity:1;fill-rule:nonzero;stroke:none"
               d="m 0,0 c 16.275,0 23.592,16.778 23.592,30.909 0,17.662 -12.238,43.399 -32.801,43.399 -16.275,0 -23.592,-16.78 -23.592,-30.91 C -32.801,25.736 -20.437,0 0,0" />
          </g>
          <g
             transform="translate(109.2982,149.0381)"
             id="g3406">
            <path
               inkscape:connector-curvature="0"
               id="path3408"
               style="fill:#ebf0f1;fill-opacity:1;fill-rule:nonzero;stroke:none"
               d="m 0,0 c 0,18.293 -14.761,43.146 -34.946,43.146 -13.751,0 -20.312,-12.868 -20.312,-25.105 0,-18.293 14.761,-43.02 34.946,-43.02 C -6.434,-24.979 0,-12.237 0,0" />
          </g>
          <g
             transform="translate(300.5722,126.3206)"
             id="g3410">
            <path
               inkscape:connector-curvature="0"
               id="path3412"
               style="fill:#ebf0f1;fill-opacity:1;fill-rule:nonzero;stroke:none"
               d="m 0,0 c 1.792,0 3.374,-1.582 3.374,-3.374 l 0,-20.246 c 0,-1.792 -1.582,-3.374 -3.374,-3.374 l -37.117,0 0,-37.118 c 0,-1.792 -1.582,-3.374 -3.374,-3.374 l -20.246,0 c -1.793,0 -3.375,1.582 -3.375,3.374 l 0,37.118 -37.117,0 c -1.792,0 -3.374,1.582 -3.374,3.374 l 0,20.246 c 0,1.792 1.582,3.374 3.374,3.374 l 37.117,0 0,37.117 c 0,1.793 1.582,3.374 3.375,3.374 l 20.246,0 c 1.792,0 3.374,-1.581 3.374,-3.374 L -37.117,0 0,0 Z" />
          </g>
        </g>
      </g>
    </g>
  </g>
</svg>
