<?xml version="1.0" encoding="UTF-8" standalone="no"?>
<svg
   xmlns:dc="http://purl.org/dc/elements/1.1/"
   xmlns:cc="http://creativecommons.org/ns#"
   xmlns:rdf="http://www.w3.org/1999/02/22-rdf-syntax-ns#"
   xmlns:svg="http://www.w3.org/2000/svg"
   xmlns="http://www.w3.org/2000/svg"
   xmlns:sodipodi="http://sodipodi.sourceforge.net/DTD/sodipodi-0.dtd"
   xmlns:inkscape="http://www.inkscape.org/namespaces/inkscape"
   version="1.1"
   width="765"
   height="191"
   id="svg920"
   inkscape:version="0.91 r13725"
   viewBox="0 0 765 191"
   sodipodi:docname="Logo Lades3.svg">
  <metadata
     id="metadata1070">
    <rdf:RDF>
      <cc:Work
         rdf:about="">
        <dc:format>image/svg+xml</dc:format>
        <dc:type
           rdf:resource="http://purl.org/dc/dcmitype/StillImage" />
        <dc:title></dc:title>
      </cc:Work>
    </rdf:RDF>
  </metadata>
  <defs
     id="defs1068" />
  <sodipodi:namedview
     pagecolor="#ffffff"
     bordercolor="#666666"
     borderopacity="1"
     objecttolerance="10"
     gridtolerance="10"
     guidetolerance="10"
     inkscape:pageopacity="0"
     inkscape:pageshadow="2"
     inkscape:window-width="1366"
     inkscape:window-height="709"
     id="namedview1066"
     showgrid="false"
     inkscape:zoom="0.46194732"
     inkscape:cx="703.4902"
     inkscape:cy="-161.55694"
     inkscape:window-x="0"
     inkscape:window-y="0"
     inkscape:window-maximized="1"
     inkscape:current-layer="svg920"
     showguides="true"
     inkscape:guide-bbox="true" />
  <g
     id="g4956"
     style="fill:#ffffff">
    <g
       transform="translate(-2.988494,-124.64749)"
       id="g4501"
       style="fill:#ffffff">
      <path
         d="m 243.16475,254.96216 45.9472,0 0,32.2602 -45.9472,0 -35.193,0 0,-95.506 35.193,-35.3247 0,98.5705 z"
         style="fill:#ffffff;fill-rule:evenodd"
         id="path922"
         inkscape:connector-curvature="0" />
      <path
         d="m 250.35345,287.25476 128.0966,-128.4892 30.5006,0 0,128.4568 -35.193,0 0,-16.6197 -55.4613,0 31.4774,-31.2834 23.9839,0 0,-34.0199 -81.7268,81.923 -41.6774,0.032 z"
         style="fill:#ffffff;fill-rule:evenodd"
         id="path924"
         inkscape:connector-curvature="0" />
      <path
         d="m 449.84745,158.88106 23.0972,-0.1155 c 35.4817,0 64.2434,28.7618 64.2434,64.2434 0,35.4817 -28.7617,64.2434 -64.3519,64.2411 l -54.7178,0 0,-87.8024 35.193,0 0,55.5421 19.4716,0 c 17.7166,0 32.0363,-14.3197 32.0363,-31.9855 0,-17.6634 -14.3197,-31.9831 -32.0363,-31.9831 l -54.9071,0 31.9716,-32.1448 z"
         style="fill:#ffffff;fill-rule:evenodd"
         id="path926"
         inkscape:connector-curvature="0" />
      <path
         d="m 579.99165,158.73316 78.7941,0 -33.2394,33.2396 -45.5547,0 0,15.7051 45.9473,0 0,31.4799 -45.9473,0 0,14.8898 78.7618,0 -33.2071,33.2073 -80.7477,0 0,-93.1969 35.193,-35.3248 z"
         style="fill:#ffffff;fill-rule:evenodd"
         id="path928"
         inkscape:connector-curvature="0" />
      <path
         d="m 671.65755,254.04756 -33.2393,33.2396 94.3098,-0.032 34.1215,-34.251 0,-13.6177 -31.7038,-31.7083 -61.075,0 0,-15.7051 59.9967,0 33.2393,-33.2396 -94.3053,0.032 -34.1237,34.251 0,13.6177 31.7129,31.7083 61.0659,0 0,15.7051 -59.999,0 z"
         style="fill:#ffffff;fill-rule:evenodd"
         id="path930"
         inkscape:connector-curvature="0" />
    </g>
    <g
       transform="matrix(0.8888908,0,0,0.8888908,-394.83933,-338.02447)"
       id="g932"
       style="fill:#ffffff">
      <path
         inkscape:connector-curvature="0"
         id="path934"
         style="fill:#ffffff;fill-rule:evenodd"
         d="m 643.0981,519.5143 c 6.7068,-14.4289 10.4524,-29.4896 11.2143,-44.1685 l -34.4168,-4.0805 c -1.2885,10.5547 -4.513,21.3115 -9.6453,31.6687 l 32.8478,16.5803 z" />
      <path
         inkscape:connector-curvature="0"
         id="path936"
         style="fill:#ffffff;fill-rule:evenodd"
         d="m 654.4521,468.5167 c -0.0952,-8.2089 -1.1388,-16.2454 -3.1424,-23.9255 l -31.7298,3.8693 c 0.9182,5.763 1.1776,11.7452 0.7841,17.8284 l 34.0881,2.2278 z" />
      <path
         inkscape:connector-curvature="0"
         id="path938"
         style="fill:#ffffff;fill-rule:evenodd"
         d="m 649.2615,437.8118 c -2.0679,-5.9841 -4.7554,-11.7018 -8.0597,-17.0611 L 613.9,429.8634 c 1.9982,4.2251 3.5473,8.6895 4.6423,13.3309 l 30.7192,-5.3825 z" />
      <path
         inkscape:connector-curvature="0"
         id="path940"
         style="fill:#ffffff;fill-rule:evenodd"
         d="m 636.506,413.9341 c -3.2638,-4.2651 -6.9674,-8.2456 -11.1251,-11.8747 -0.258,-0.2252 -0.5217,-0.4405 -0.7819,-0.662 l -21.5022,12.5917 c 3.0289,3.2033 5.6591,6.6974 7.8961,10.4265 l 25.5131,-10.4815 z" />
      <path
         inkscape:connector-curvature="0"
         id="path942"
         style="fill:#ffffff;fill-rule:evenodd"
         d="m 514.3421,592.9295 c 2.1496,0.4188 4.32,0.7611 6.5079,1.0259 l 0.0144,-31.9449 c -1.6432,-0.0282 -3.2755,-0.1139 -4.8962,-0.2504 l -1.6261,31.1694 z" />
      <path
         inkscape:connector-curvature="0"
         id="path944"
         style="fill:#ffffff;fill-rule:evenodd"
         d="m 488.7827,583.5752 c 1.553,0.8775 3.1282,1.7072 4.7287,2.4788 l 6.1109,-27.7134 c -1.273,-0.4413 -2.5302,-0.9226 -3.7707,-1.4442 l -7.0689,26.6788 z" />
      <path
         inkscape:connector-curvature="0"
         id="path946"
         style="fill:#ffffff;fill-rule:evenodd"
         d="m 468.8446,567.7378 c 1.338,1.4567 2.734,2.8724 4.1909,4.2424 l 9.8083,-22.5715 c -1.1092,-0.8393 -2.1971,-1.7169 -3.2572,-2.6422 -0.0947,-0.0827 -0.1853,-0.1685 -0.2793,-0.2516 l -10.4627,21.2229 z" />
      <path
         inkscape:connector-curvature="0"
         id="path948"
         style="fill:#ffffff;fill-rule:evenodd"
         d="m 455.9402,549.0319 c 0.8705,1.7281 1.8024,3.4236 2.7899,5.0878 l 11.7131,-17.3804 c -0.8861,-1.2245 -1.7249,-2.4796 -2.5158,-3.7639 l -11.9872,16.0565 z" />
      <path
         inkscape:connector-curvature="0"
         id="path950"
         style="fill:#ffffff;fill-rule:evenodd"
         d="m 448.5264,528.0508 c 0.4703,2.1268 1.0115,4.2288 1.6245,6.3028 l 12.3167,-12.612 c -0.599,-1.6129 -1.1383,-3.2538 -1.6164,-4.9209 l -12.3248,11.2301 z" />
      <path
         inkscape:connector-curvature="0"
         id="path952"
         style="fill:#ffffff;fill-rule:evenodd"
         d="m 446.2066,507.5036 c 0.0243,2.2059 0.1139,4.4 0.2757,6.5775 l 12.1057,-8.467 c -0.2155,-1.7604 -0.3739,-3.5382 -0.4697,-5.332 l -11.9117,7.2215 z" />
      <path
         inkscape:connector-curvature="0"
         id="path954"
         style="fill:#ffffff;fill-rule:evenodd"
         d="m 447.9786,486.6198 c -0.4667,2.5987 -0.8407,5.1955 -1.1241,7.7851 l 11.3989,-4.9039 c 0.1633,-2.143 0.405,-4.2971 0.7295,-6.4583 l -11.0043,3.5771 z" />
      <path
         inkscape:connector-curvature="0"
         id="path956"
         style="fill:#ffffff;fill-rule:evenodd"
         d="m 452.8475,468.1606 c -0.7643,2.1867 -1.459,4.3816 -2.0917,6.581 l 10.3487,-1.9011 c 0.4938,-1.8558 1.0494,-3.7103 1.6607,-5.5606 l -9.9177,0.8807 z" />
      <path
         inkscape:connector-curvature="0"
         id="path958"
         style="fill:#ffffff;fill-rule:evenodd"
         d="m 461.0873,449.5523 c -1.2957,2.3959 -2.5074,4.8142 -3.6343,7.2507 l 9.1231,0.679 c 0.9278,-2.0668 1.9294,-4.1204 3.0069,-6.1566 l -8.4957,-1.7731 z" />
      <path
         inkscape:connector-curvature="0"
         id="path960"
         style="fill:#ffffff;fill-rule:evenodd"
         d="m 471.9101,432.7125 c -1.7359,2.3041 -3.3843,4.6437 -4.9451,7.0145 l 7.6493,3.0588 c 1.3083,-2.006 2.6951,-3.986 4.1566,-5.9371 l -6.8608,-4.1362 z" />
      <path
         inkscape:connector-curvature="0"
         id="path962"
         style="fill:#ffffff;fill-rule:evenodd"
         d="m 485.232,417.5012 c -2.2765,2.2429 -4.4954,4.5851 -6.6493,7.0275 l 6.0207,5.1607 c 1.8324,-2.0715 3.7188,-4.0579 5.6559,-5.9531 l -5.0273,-6.2351 z" />
      <path
         inkscape:connector-curvature="0"
         id="path964"
         style="fill:#ffffff;fill-rule:evenodd"
         d="m 500.3096,404.6904 c -2.5962,1.8915 -5.1473,3.8904 -7.6419,6.0037 l 4.1664,7.1041 c 2.1247,-1.7692 4.2943,-3.4405 6.502,-5.0128 l -3.0265,-8.095 z" />
      <path
         inkscape:connector-curvature="0"
         id="path966"
         style="fill:#ffffff;fill-rule:evenodd"
         d="m 517.9035,393.9106 c -3.2129,1.623 -6.3855,3.4007 -9.5055,5.3318 l 1.9926,8.9294 c 2.6504,-1.5845 5.3411,-3.0316 8.0607,-4.3412 l -0.5478,-9.92 z" />
      <path
         inkscape:connector-curvature="0"
         id="path968"
         style="fill:#ffffff;fill-rule:evenodd"
         d="m 536.4862,386.3828 c -3.6376,1.1278 -7.2549,2.4445 -10.8361,3.9506 l -0.3686,10.5192 c 3.0033,-1.1733 6.0289,-2.18 9.0615,-3.0181 l 2.1432,-11.4517 z" />
      <path
         inkscape:connector-curvature="0"
         id="path970"
         style="fill:#ffffff;fill-rule:evenodd"
         d="m 557.4676,382.0146 c -4.2257,0.4505 -8.4666,1.1618 -12.6974,2.1308 l -3.418,12.0576 c 3.4547,-0.656 6.9027,-1.092 10.3224,-1.3009 l 5.793,-12.8875 z" />
      <path
         inkscape:connector-curvature="0"
         id="path972"
         style="fill:#ffffff;fill-rule:evenodd"
         d="m 577.9297,381.9207 c -4.1198,-0.4143 -8.2955,-0.5606 -12.5033,-0.4408 l -7.1116,13.3015 c 3.3471,0.0862 6.6505,0.399 9.8898,0.9385 l 9.7251,-13.7992 z" />
      <path
         inkscape:connector-curvature="0"
         id="path974"
         style="fill:#ffffff;fill-rule:evenodd"
         d="m 600.0086,386.9934 c -4.5525,-1.6936 -9.2523,-2.9939 -14.0567,-3.9099 l -11.4065,14.0034 c 3.6451,0.9784 7.1826,2.2691 10.5794,3.8753 l 14.8838,-13.9688 z" />
      <path
         inkscape:connector-curvature="0"
         id="path976"
         style="fill:#ffffff;fill-rule:evenodd"
         d="m 618.9436,396.9954 c -4.0019,-2.8376 -8.2094,-5.2825 -12.5842,-7.335 l -16.3393,13.8966 c 3.1367,1.8521 6.1272,3.9999 8.9381,6.4535 0.0452,0.0395 0.0883,0.0806 0.1334,0.1202 l 19.852,-13.1353 z" />
      <path
         inkscape:connector-curvature="0"
         id="path978"
         style="fill:#ffffff;fill-rule:evenodd"
         d="m 610.3229,465.6327 c 0.3831,-5.4457 0.1907,-10.8038 -0.5836,-15.9722 l -23.3861,2.8518 c 0.2754,3.7492 0.1648,7.6143 -0.3334,11.5321 l 24.3031,1.5883 z" />
      <path
         inkscape:connector-curvature="0"
         id="path980"
         style="fill:#ffffff;fill-rule:evenodd"
         d="m 608.8461,444.8932 c -0.9407,-4.1722 -2.2768,-8.1932 -4.0178,-12.002 l -21.0513,7.0265 c 1.0101,2.8698 1.7389,5.8773 2.1866,8.9848 l 22.8825,-4.0093 z" />
      <path
         inkscape:connector-curvature="0"
         id="path982"
         style="fill:#ffffff;fill-rule:evenodd"
         d="m 602.2917,427.9904 c -1.96,-3.379 -4.2722,-6.5503 -6.9384,-9.4669 l -17.4992,10.2476 c 1.7387,2.3125 3.2129,4.8042 4.4248,7.441 l 20.0128,-8.2217 z" />
      <path
         inkscape:connector-curvature="0"
         id="path984"
         style="fill:#ffffff;fill-rule:evenodd"
         d="m 538.9818,549.8885 c 1.3437,-0.3307 2.6867,-0.6986 4.0276,-1.1024 L 536.57,525.011 c -0.9381,0.3391 -1.8782,0.6537 -2.819,0.9459 l 5.2308,23.9316 z" />
      <path
         inkscape:connector-curvature="0"
         id="path986"
         style="fill:#ffffff;fill-rule:evenodd"
         d="m 516.4808,551.9336 c 1.4525,0.103 2.9165,0.1533 4.3881,0.1611 l 0.0107,-23.6219 c -1.0662,0.0841 -2.1277,0.1362 -3.1831,0.1558 l -1.2157,23.305 z" />
      <path
         inkscape:connector-curvature="0"
         id="path988"
         style="fill:#ffffff;fill-rule:evenodd"
         d="m 498.2594,547.809 c 1.1225,0.4511 2.2592,0.8675 3.4102,1.2467 l 4.7475,-21.5299 c -0.8782,-0.1966 -1.7466,-0.4213 -2.6058,-0.6706 l -5.5519,20.9538 z" />
      <path
         inkscape:connector-curvature="0"
         id="path990"
         style="fill:#ffffff;fill-rule:evenodd"
         d="m 483.168,538.6837 c 1.0501,0.8957 2.1255,1.748 3.227,2.5526 l 8.0139,-18.442 c -0.8794,-0.5225 -1.741,-1.0796 -2.5828,-1.6731 l -8.6581,17.5625 z" />
      <path
         inkscape:connector-curvature="0"
         id="path992"
         style="fill:#ffffff;fill-rule:evenodd"
         d="m 472.6703,526.6225 c 0.7329,1.1465 1.5096,2.2658 2.3281,3.3576 l 10.0629,-14.9316 c -0.6856,-0.7782 -1.3339,-1.5832 -1.9522,-2.4086 l -10.4388,13.9826 z" />
      <path
         inkscape:connector-curvature="0"
         id="path994"
         style="fill:#ffffff;fill-rule:evenodd"
         d="m 466.0345,512.0977 c 0.4543,1.5012 0.9602,2.98 1.5242,4.4307 l 11.1173,-11.3839 c -0.4958,-1.087 -0.9473,-2.198 -1.3543,-3.3314 l -11.2872,10.2846 z" />
      <path
         inkscape:connector-curvature="0"
         id="path996"
         style="fill:#ffffff;fill-rule:evenodd"
         d="m 463.3564,497.1066 c 0.1064,1.6272 0.2656,3.2402 0.4815,4.8356 l 11.424,-7.9902 c -0.2134,-1.2364 -0.3812,-2.4896 -0.5043,-3.7573 l -11.4012,6.9119 z" />
      <path
         inkscape:connector-curvature="0"
         id="path998"
         style="fill:#ffffff;fill-rule:evenodd"
         d="m 463.9726,481.4207 c -0.2759,1.9688 -0.4808,3.9311 -0.6088,5.8818 l 11.1933,-4.8155 c 0.0649,-1.5319 0.1901,-3.0762 0.3765,-4.6294 l -10.961,3.5631 z" />
      <path
         inkscape:connector-curvature="0"
         id="path1000"
         style="fill:#ffffff;fill-rule:evenodd"
         d="m 467.338,466.8739 c -0.548,1.6953 -1.0412,3.3939 -1.4805,5.0934 l 10.5145,-1.9316 c 0.3348,-1.3547 0.7139,-2.7104 1.1383,-4.0651 l -10.1723,0.9033 z" />
      <path
         inkscape:connector-curvature="0"
         id="path1002"
         style="fill:#ffffff;fill-rule:evenodd"
         d="m 473.5433,452.152 c -0.9794,1.8673 -1.89,3.7503 -2.731,5.6452 l 9.5014,0.7071 c 0.6609,-1.5057 1.3753,-3.0042 2.1481,-4.4909 l -8.9185,-1.8614 z" />
      <path
         inkscape:connector-curvature="0"
         id="path1004"
         style="fill:#ffffff;fill-rule:evenodd"
         d="m 481.9806,438.7838 c -1.3336,1.7849 -2.5996,3.5961 -3.7922,5.4313 l 8.1011,3.2394 c 0.9379,-1.4437 1.9303,-2.8707 2.9788,-4.2771 l -7.2877,-4.3936 z" />
      <path
         inkscape:connector-curvature="0"
         id="path1006"
         style="fill:#ffffff;fill-rule:evenodd"
         d="m 492.6117,426.6538 c -1.7782,1.7339 -3.5088,3.5538 -5.1902,5.4512 l 6.4052,5.4903 c 1.3387,-1.502 2.7159,-2.9415 4.1292,-4.3134 l -5.3442,-6.6281 z" />
      <path
         inkscape:connector-curvature="0"
         id="path1008"
         style="fill:#ffffff;fill-rule:evenodd"
         d="m 504.7464,416.5575 c -2.0257,1.4283 -4.018,2.9456 -5.9679,4.556 l 4.4075,7.5154 c 1.5509,-1.2624 3.1323,-2.4529 4.7392,-3.5695 l -3.1788,-8.5019 z" />
      <path
         inkscape:connector-curvature="0"
         id="path1010"
         style="fill:#ffffff;fill-rule:evenodd"
         d="m 518.7034,408.3982 c -2.4921,1.1772 -4.9577,2.4864 -7.388,3.9175 l 2.0717,9.284 c 1.937,-1.1122 3.8993,-2.1224 5.8781,-3.0276 l -0.5618,-10.1739 z" />
      <path
         inkscape:connector-curvature="0"
         id="path1012"
         style="fill:#ffffff;fill-rule:evenodd"
         d="m 533.3721,403.0223 c -2.7628,0.7313 -5.5204,1.6169 -8.2596,2.6551 l -0.3739,10.6721 c 2.1622,-0.7696 4.3331,-1.4166 6.5016,-1.9362 l 2.1319,-11.391 z" />
      <path
         inkscape:connector-curvature="0"
         id="path1014"
         style="fill:#ffffff;fill-rule:evenodd"
         d="m 549.1379,400.5454 c -3.0833,0.1483 -6.1943,0.4959 -9.3137,1.0477 l -3.3476,11.8093 c 2.3997,-0.3497 4.7836,-0.5377 7.1369,-0.5673 l 5.5244,-12.2897 z" />
      <path
         inkscape:connector-curvature="0"
         id="path1016"
         style="fill:#ffffff;fill-rule:evenodd"
         d="m 564.1334,401.4966 c -2.9079,-0.531 -5.8767,-0.8546 -8.8863,-0.9776 l -6.6816,12.4973 c 2.2761,0.1992 4.5096,0.5597 6.6863,1.0828 l 8.8816,-12.6025 z" />
      <path
         inkscape:connector-curvature="0"
         id="path1018"
         style="fill:#ffffff;fill-rule:evenodd"
         d="m 579.2696,406.4573 c -3.0184,-1.4859 -6.1644,-2.6903 -9.4086,-3.6194 L 559.6285,415.4 c 2.3462,0.8394 4.6064,1.8869 6.7588,3.1476 l 12.8823,-12.0903 z" />
      <path
         inkscape:connector-curvature="0"
         id="path1020"
         style="fill:#ffffff;fill-rule:evenodd"
         d="m 591.7832,414.9663 c -0.2613,-0.2372 -0.5203,-0.4762 -0.7871,-0.7091 -2.2984,-2.0063 -4.7316,-3.783 -7.2735,-5.3442 l -13.9493,11.8639 c 0.8733,0.6419 1.7267,1.3192 2.5538,2.0411 1.086,0.948 2.105,1.9491 3.065,2.9936 l 16.3911,-10.8453 z" />
      <path
         inkscape:connector-curvature="0"
         id="path1022"
         style="fill:#ffffff;fill-rule:evenodd"
         d="m 578.9987,450.1229 c -0.3315,-2.7753 -0.9092,-5.4638 -1.7373,-8.0305 l -16.1322,5.3846 c 0.5393,1.7879 0.9123,3.6554 1.122,5.5803 l 16.7475,-2.9344 z" />
      <path
         inkscape:connector-curvature="0"
         id="path1024"
         style="fill:#ffffff;fill-rule:evenodd"
         d="m 576.0262,438.7809 c -1.0186,-2.3842 -2.2743,-4.6388 -3.7684,-6.7326 l -14.386,8.4244 c 0.9838,1.4851 1.8074,3.0754 2.4729,4.7507 l 15.6815,-6.4425 z" />
      <path
         inkscape:connector-curvature="0"
         id="path1026"
         style="fill:#ffffff;fill-rule:evenodd"
         d="m 547.4524,511.2975 c 0.6098,-0.4051 1.2164,-0.8206 1.8188,-1.2487 l -8.6719,-13.8463 c -0.4116,0.2931 -0.826,0.5779 -1.2423,0.8562 l 8.0954,14.2388 z" />
      <path
         inkscape:connector-curvature="0"
         id="path1028"
         style="fill:#ffffff;fill-rule:evenodd"
         d="m 532.1896,518.8137 c 0.8221,-0.2737 1.6434,-0.5675 2.4634,-0.881 l -4.363,-16.1085 c -0.5587,0.219 -1.1183,0.4256 -1.6786,0.6192 l 3.5782,16.3703 z" />
      <path
         inkscape:connector-curvature="0"
         id="path1030"
         style="fill:#ffffff;fill-rule:evenodd"
         d="m 518.0673,521.5235 c 0.9339,-0.0445 1.8724,-0.1141 2.8155,-0.2148 l 0.008,-17.0176 c -0.6476,0.0856 -1.2925,0.1518 -1.9347,0.2011 l -0.8884,17.0313 z" />
      <path
         inkscape:connector-curvature="0"
         id="path1032"
         style="fill:#ffffff;fill-rule:evenodd"
         d="m 505.5477,520.3016 c 0.7734,0.1998 1.5554,0.3768 2.3456,0.5293 l 3.6639,-16.616 c -0.5598,-0.0897 -1.1141,-0.1959 -1.6629,-0.3179 l -4.3466,16.4046 z" />
      <path
         inkscape:connector-curvature="0"
         id="path1034"
         style="fill:#ffffff;fill-rule:evenodd"
         d="m 494.6317,515.4301 c 0.7654,0.5151 1.5484,0.9979 2.3483,1.4474 l 6.6244,-15.2446 c -0.5768,-0.2982 -1.1425,-0.6193 -1.6957,-0.9635 l -7.277,14.7607 z" />
      <path
         inkscape:connector-curvature="0"
         id="path1036"
         style="fill:#ffffff;fill-rule:evenodd"
         d="m 486.6399,507.9106 c 0.5641,0.7366 1.1622,1.4496 1.7885,2.1417 l 8.849,-13.1305 c -0.4627,-0.4795 -0.9056,-0.974 -1.3243,-1.4859 l -9.3132,12.4747 z" />
      <path
         inkscape:connector-curvature="0"
         id="path1038"
         style="fill:#ffffff;fill-rule:evenodd"
         d="m 481.3556,498.1374 c 0.3675,1.0242 0.7772,2.0269 1.2268,3.0071 l 10.284,-10.5306 c -0.3387,-0.6897 -0.649,-1.3958 -0.9293,-2.1181 l -10.5815,9.6416 z" />
      <path
         inkscape:connector-curvature="0"
         id="path1040"
         style="fill:#ffffff;fill-rule:evenodd"
         d="m 479.0715,487.5794 c 0.1039,1.1489 0.2493,2.2839 0.4362,3.4031 l 10.9646,-7.6689 c -0.1496,-0.7978 -0.2691,-1.6078 -0.359,-2.4283 l -11.0418,6.6941 z" />
      <path
         inkscape:connector-curvature="0"
         id="path1042"
         style="fill:#ffffff;fill-rule:evenodd"
         d="m 479.3145,476.4336 c -0.179,1.3986 -0.3033,2.7888 -0.3727,4.1672 l 10.9883,-4.7273 c 0.0325,-0.9783 0.1031,-1.9656 0.2127,-2.9598 l -10.8283,3.5199 z" />
      <path
         inkscape:connector-curvature="0"
         id="path1044"
         style="fill:#ffffff;fill-rule:evenodd"
         d="m 481.7597,465.5933 c -0.3923,1.2156 -0.7446,2.4319 -1.0571,3.6469 l 10.4472,-1.9193 c 0.2184,-0.8749 0.4663,-1.7512 0.7419,-2.6273 l -10.132,0.8997 z" />
      <path
         inkscape:connector-curvature="0"
         id="path1046"
         style="fill:#ffffff;fill-rule:evenodd"
         d="m 486.3144,454.8175 c -0.6968,1.321 -1.3432,2.6518 -1.943,3.9887 l 9.4896,0.7062 c 0.4238,-0.9494 0.8808,-1.8945 1.3721,-2.8334 l -8.9187,-1.8615 z" />
      <path
         inkscape:connector-curvature="0"
         id="path1048"
         style="fill:#ffffff;fill-rule:evenodd"
         d="m 492.4692,445.1072 c -0.927,1.2382 -1.8079,2.4931 -2.6413,3.7623 l 8.0992,3.2388 c 0.5795,-0.8787 1.1901,-1.7481 1.8313,-2.6065 l -7.2892,-4.3946 z" />
      <path
         inkscape:connector-curvature="0"
         id="path1050"
         style="fill:#ffffff;fill-rule:evenodd"
         d="m 500.3011,436.1904 c -1.2498,1.2171 -2.4694,2.492 -3.6565,3.8204 l 6.4052,5.4904 c 0.8434,-0.9326 1.7094,-1.827 2.595,-2.6833 l -5.3437,-6.6275 z" />
      <path
         inkscape:connector-curvature="0"
         id="path1052"
         style="fill:#ffffff;fill-rule:evenodd"
         d="m 509.2961,428.7263 c -1.4195,0.9957 -2.8177,2.0545 -4.1904,3.1756 l 4.4076,7.5156 c 0.971,-0.7738 1.958,-1.5069 2.9595,-2.1948 l -3.1767,-8.4964 z" />
      <path
         inkscape:connector-curvature="0"
         id="path1054"
         style="fill:#ffffff;fill-rule:evenodd"
         d="m 519.4993,422.8112 c -1.7601,0.8201 -3.5066,1.732 -5.2319,2.7336 l 2.07,9.2758 c 1.2289,-0.6881 2.4708,-1.316 3.7213,-1.8776 l -0.5594,-10.1318 z" />
      <path
         inkscape:connector-curvature="0"
         id="path1056"
         style="fill:#ffffff;fill-rule:evenodd"
         d="m 530.3919,418.9461 c -1.9351,0.4763 -3.8739,1.0655 -5.8061,1.7642 l -0.3718,10.612 c 1.3576,-0.4516 2.7172,-0.8268 4.0724,-1.1262 l 2.1055,-11.25 z" />
      <path
         inkscape:connector-curvature="0"
         id="path1058"
         style="fill:#ffffff;fill-rule:evenodd"
         d="m 541.536,417.457 c -2.0959,0.0368 -4.221,0.2171 -6.3616,0.5394 l -3.2837,11.5836 c 1.4512,-0.1745 2.8899,-0.258 4.3074,-0.2481 l 5.3379,-11.8749 z" />
      <path
         inkscape:connector-curvature="0"
         id="path1060"
         style="fill:#ffffff;fill-rule:evenodd"
         d="m 552.0941,418.5797 c -1.9455,-0.4712 -3.9458,-0.7913 -5.9855,-0.9681 l -6.3848,11.9421 c 1.3895,0.1695 2.7498,0.4358 4.0722,0.8003 l 8.2981,-11.7743 z" />
      <path
         inkscape:connector-curvature="0"
         id="path1062"
         style="fill:#ffffff;fill-rule:evenodd"
         d="m 562.0447,422.6232 c -1.9015,-1.1386 -3.9024,-2.0852 -5.9836,-2.8438 l -9.4033,11.5444 c 1.3749,0.5569 2.6961,1.2335 3.9533,2.03 l 11.4336,-10.7306 z" />
      <path
         inkscape:connector-curvature="0"
         id="path1064"
         style="fill:#ffffff;fill-rule:evenodd"
         d="m 570.0929,429.3179 c -0.9748,-1.1071 -2.027,-2.1576 -3.1579,-3.1448 -0.5835,-0.5093 -1.1811,-0.995 -1.7914,-1.4586 l -12.1634,10.3451 c 0.2032,0.1661 0.4045,0.3354 0.6033,0.509 1.0085,0.8803 1.9292,1.8314 2.7641,2.844 l 13.7453,-9.0947 z" />
    </g>
    <g
       id="text4510"
       style="font-style:normal;font-weight:normal;font-size:27.80392075px;line-height:125%;font-family:sans-serif;letter-spacing:0px;word-spacing:0px;fill:#ffffff;fill-opacity:1;stroke:none;stroke-width:1px;stroke-linecap:butt;stroke-linejoin:miter;stroke-opacity:1">
      <path
         id="path4880"
         style="font-style:normal;font-variant:normal;font-weight:normal;font-stretch:normal;font-family:Arial;-inkscape-font-specification:Arial;fill:#ffffff;fill-opacity:1"
         d="m 205.59234,189.88528 0,-19.90261 2.63377,0 0,17.55394 9.80197,0 0,2.34867 -12.43574,0 z" />
      <path
         id="path4882"
         style="font-style:normal;font-variant:normal;font-weight:normal;font-stretch:normal;font-family:Arial;-inkscape-font-specification:Arial;fill:#ffffff;fill-opacity:1"
         d="m 230.27375,188.10681 q -1.35761,1.15397 -2.62019,1.62914 -1.249,0.47516 -2.68807,0.47516 -2.37583,0 -3.65198,-1.15397 -1.27616,-1.16755 -1.27616,-2.97317 0,-1.05894 0.47516,-1.92781 0.48874,-0.88245 1.26258,-1.41192 0.78742,-0.52947 1.7649,-0.80099 0.71954,-0.19007 2.17218,-0.36656 2.9596,-0.35298 4.35794,-0.84172 0.0136,-0.50232 0.0136,-0.63808 0,-1.49337 -0.69239,-2.1043 -0.93675,-0.82814 -2.7831,-0.82814 -1.72417,0 -2.55232,0.61092 -0.81456,0.59735 -1.20827,2.13146 l -2.3894,-0.32583 q 0.32583,-1.5341 1.07251,-2.47086 0.74669,-0.95033 2.15861,-1.45264 1.41192,-0.5159 3.27185,-0.5159 1.84635,0 3.00032,0.43444 1.15397,0.43444 1.69702,1.09967 0.54304,0.65165 0.76026,1.65629 0.12219,0.6245 0.12219,2.25363 l 0,3.25828 q 0,3.4076 0.14933,4.31721 0.16292,0.89602 0.62451,1.72416 l -2.55232,0 q -0.38013,-0.76026 -0.48874,-1.77847 z m -0.20364,-5.4576 q -1.33046,0.54304 -3.99138,0.92317 -1.50695,0.21722 -2.13145,0.48874 -0.62451,0.27153 -0.96391,0.801 -0.3394,0.51589 -0.3394,1.15397 0,0.97748 0.73311,1.62913 0.74668,0.65166 2.17218,0.65166 1.41192,0 2.51158,-0.61093 1.09967,-0.6245 1.61556,-1.69702 0.39371,-0.82814 0.39371,-2.4437 l 0,-0.89602 z" />
      <path
         id="path4884"
         style="font-style:normal;font-variant:normal;font-weight:normal;font-stretch:normal;font-family:Arial;-inkscape-font-specification:Arial;fill:#ffffff;fill-opacity:1"
         d="m 238.59592,189.88528 -2.26721,0 0,-19.90261 2.4437,0 0,7.10032 q 1.54768,-1.94139 3.95066,-1.94139 1.33046,0 2.51158,0.54305 1.1947,0.52947 1.95496,1.50695 0.77384,0.96391 1.20828,2.33509 0.43444,1.37119 0.43444,2.93245 0,3.70628 -1.83278,5.72913 -1.83278,2.02284 -4.39867,2.02284 -2.55231,0 -4.00496,-2.13145 l 0,1.80562 z m -0.0272,-7.31753 q 0,2.59304 0.70596,3.74701 1.15397,1.88708 3.12251,1.88708 1.60198,0 2.76953,-1.38476 1.16755,-1.39834 1.16755,-4.1543 0,-2.82383 -1.12682,-4.16787 -1.11324,-1.34404 -2.70165,-1.34404 -1.60199,0 -2.76953,1.39834 -1.16755,1.38477 -1.16755,4.01854 z" />
      <path
         id="path4886"
         style="font-style:normal;font-variant:normal;font-weight:normal;font-stretch:normal;font-family:Arial;-inkscape-font-specification:Arial;fill:#ffffff;fill-opacity:1"
         d="m 250.90947,182.67636 q 0,-4.00496 2.22649,-5.93277 1.85993,-1.60199 4.53443,-1.60199 2.97317,0 4.86025,1.95497 1.88709,1.94138 1.88709,5.37615 0,2.7831 -0.84172,4.38509 -0.82815,1.5884 -2.43013,2.47085 -1.58841,0.88245 -3.47549,0.88245 -3.02748,0 -4.90099,-1.94139 -1.85993,-1.94138 -1.85993,-5.59336 z m 2.51159,0 q 0,2.76953 1.20828,4.15429 1.20827,1.37119 3.04105,1.37119 1.8192,0 3.02748,-1.38476 1.20827,-1.38477 1.20827,-4.22218 0,-2.6745 -1.22185,-4.04569 -1.20828,-1.38476 -3.0139,-1.38476 -1.83278,0 -3.04105,1.37119 -1.20828,1.37119 -1.20828,4.14072 z" />
      <path
         id="path4888"
         style="font-style:normal;font-variant:normal;font-weight:normal;font-stretch:normal;font-family:Arial;-inkscape-font-specification:Arial;fill:#ffffff;fill-opacity:1"
         d="m 267.26871,189.88528 0,-14.41785 2.19934,0 0,2.18576 q 0.84172,-1.5341 1.54768,-2.02285 0.71953,-0.48874 1.57483,-0.48874 1.23543,0 2.51158,0.78742 l -0.84172,2.26721 q -0.89602,-0.52947 -1.79205,-0.52947 -0.80099,0 -1.43907,0.48875 -0.63807,0.47516 -0.9096,1.33046 -0.40728,1.30331 -0.40728,2.85098 l 0,7.54833 -2.44371,0 z" />
      <path
         id="path4890"
         style="font-style:normal;font-variant:normal;font-weight:normal;font-stretch:normal;font-family:Arial;-inkscape-font-specification:Arial;fill:#ffffff;fill-opacity:1"
         d="m 285.9902,188.10681 q -1.35761,1.15397 -2.62019,1.62914 -1.24901,0.47516 -2.68808,0.47516 -2.37582,0 -3.65198,-1.15397 -1.27616,-1.16755 -1.27616,-2.97317 0,-1.05894 0.47517,-1.92781 0.48874,-0.88245 1.26258,-1.41192 0.78742,-0.52947 1.7649,-0.80099 0.71953,-0.19007 2.17218,-0.36656 2.9596,-0.35298 4.35794,-0.84172 0.0136,-0.50232 0.0136,-0.63808 0,-1.49337 -0.69238,-2.1043 -0.93675,-0.82814 -2.78311,-0.82814 -1.72417,0 -2.55231,0.61092 -0.81457,0.59735 -1.20828,2.13146 l -2.3894,-0.32583 q 0.32583,-1.5341 1.07252,-2.47086 0.74669,-0.95033 2.1586,-1.45264 1.41192,-0.5159 3.27185,-0.5159 1.84636,0 3.00033,0.43444 1.15397,0.43444 1.69701,1.09967 0.54305,0.65165 0.76027,1.65629 0.12218,0.6245 0.12218,2.25363 l 0,3.25828 q 0,3.4076 0.14934,4.31721 0.16291,0.89602 0.6245,1.72416 l -2.55231,0 q -0.38013,-0.76026 -0.48874,-1.77847 z m -0.20364,-5.4576 q -1.33046,0.54304 -3.99139,0.92317 -1.50695,0.21722 -2.13145,0.48874 -0.6245,0.27153 -0.9639,0.801 -0.33941,0.51589 -0.33941,1.15397 0,0.97748 0.73311,1.62913 0.74669,0.65166 2.17218,0.65166 1.41192,0 2.51159,-0.61093 1.09967,-0.6245 1.61556,-1.69702 0.39371,-0.82814 0.39371,-2.4437 l 0,-0.89602 z" />
      <path
         id="path4892"
         style="font-style:normal;font-variant:normal;font-weight:normal;font-stretch:normal;font-family:Arial;-inkscape-font-specification:Arial;fill:#ffffff;fill-opacity:1"
         d="m 297.39415,187.69953 0.35298,2.1586 q -1.03179,0.21722 -1.84635,0.21722 -1.33047,0 -2.06358,-0.42086 -0.73311,-0.42086 -1.03178,-1.09967 -0.29868,-0.69238 -0.29868,-2.89171 l 0,-8.29502 -1.79205,0 0,-1.90066 1.79205,0 0,-3.57052 2.43013,-1.46622 0,5.03674 2.45728,0 0,1.90066 -2.45728,0 0,8.43078 q 0,1.04536 0.12219,1.34404 0.13576,0.29867 0.42086,0.47516 0.29867,0.17649 0.84172,0.17649 0.40728,0 1.07251,-0.095 z" />
      <path
         id="path4894"
         style="font-style:normal;font-variant:normal;font-weight:normal;font-stretch:normal;font-family:Arial;-inkscape-font-specification:Arial;fill:#ffffff;fill-opacity:1"
         d="m 298.86037,182.67636 q 0,-4.00496 2.22649,-5.93277 1.85993,-1.60199 4.53443,-1.60199 2.97317,0 4.86025,1.95497 1.88708,1.94138 1.88708,5.37615 0,2.7831 -0.84172,4.38509 -0.82814,1.5884 -2.43012,2.47085 -1.58841,0.88245 -3.47549,0.88245 -3.02748,0 -4.90099,-1.94139 -1.85993,-1.94138 -1.85993,-5.59336 z m 2.51159,0 q 0,2.76953 1.20827,4.15429 1.20828,1.37119 3.04106,1.37119 1.8192,0 3.02747,-1.38476 1.20828,-1.38477 1.20828,-4.22218 0,-2.6745 -1.22185,-4.04569 -1.20828,-1.38476 -3.0139,-1.38476 -1.83278,0 -3.04106,1.37119 -1.20827,1.37119 -1.20827,4.14072 z m 2.89171,-9.00098 1.80563,-3.80132 3.20397,0 -2.98675,3.80132 -2.02285,0 z" />
      <path
         id="path4896"
         style="font-style:normal;font-variant:normal;font-weight:normal;font-stretch:normal;font-family:Arial;-inkscape-font-specification:Arial;fill:#ffffff;fill-opacity:1"
         d="m 315.21961,189.88528 0,-14.41785 2.19934,0 0,2.18576 q 0.84172,-1.5341 1.54767,-2.02285 0.71954,-0.48874 1.57484,-0.48874 1.23542,0 2.51158,0.78742 l -0.84172,2.26721 q -0.89602,-0.52947 -1.79205,-0.52947 -0.80099,0 -1.43907,0.48875 -0.63808,0.47516 -0.9096,1.33046 -0.40728,1.30331 -0.40728,2.85098 l 0,7.54833 -2.44371,0 z" />
      <path
         id="path4898"
         style="font-style:normal;font-variant:normal;font-weight:normal;font-stretch:normal;font-family:Arial;-inkscape-font-specification:Arial;fill:#ffffff;fill-opacity:1"
         d="m 324.54642,172.79293 0,-2.81026 2.4437,0 0,2.81026 -2.4437,0 z m 0,17.09235 0,-14.41785 2.4437,0 0,14.41785 -2.4437,0 z" />
      <path
         id="path4900"
         style="font-style:normal;font-variant:normal;font-weight:normal;font-stretch:normal;font-family:Arial;-inkscape-font-specification:Arial;fill:#ffffff;fill-opacity:1"
         d="m 329.81395,182.67636 q 0,-4.00496 2.22649,-5.93277 1.85993,-1.60199 4.53443,-1.60199 2.97317,0 4.86025,1.95497 1.88709,1.94138 1.88709,5.37615 0,2.7831 -0.84172,4.38509 -0.82815,1.5884 -2.43013,2.47085 -1.58841,0.88245 -3.47549,0.88245 -3.02748,0 -4.90099,-1.94139 -1.85993,-1.94138 -1.85993,-5.59336 z m 2.51159,0 q 0,2.76953 1.20828,4.15429 1.20827,1.37119 3.04105,1.37119 1.8192,0 3.02748,-1.38476 1.20827,-1.38477 1.20827,-4.22218 0,-2.6745 -1.22185,-4.04569 -1.20828,-1.38476 -3.0139,-1.38476 -1.83278,0 -3.04105,1.37119 -1.20828,1.37119 -1.20828,4.14072 z" />
      <path
         id="path4902"
         style="font-style:normal;font-variant:normal;font-weight:normal;font-stretch:normal;font-family:Arial;-inkscape-font-specification:Arial;fill:#ffffff;fill-opacity:1"
         d="m 363.26555,189.88528 0,-1.8192 q -1.37119,2.14503 -4.03212,2.14503 -1.72417,0 -3.17681,-0.95033 -1.43907,-0.95033 -2.24006,-2.64734 -0.78742,-1.7106 -0.78742,-3.92351 0,-2.1586 0.71954,-3.90992 0.71953,-1.7649 2.1586,-2.70165 1.43907,-0.93676 3.21754,-0.93676 1.30331,0 2.32152,0.55663 1.01821,0.54304 1.65629,1.42549 l 0,-7.14105 2.43013,0 0,19.90261 -2.26721,0 z m -7.72482,-7.19535 q 0,2.76954 1.16754,4.14072 1.16755,1.37119 2.75596,1.37119 1.60198,0 2.71522,-1.3033 1.12682,-1.31689 1.12682,-4.00496 0,-2.9596 -1.14039,-4.34437 -1.1404,-1.38476 -2.81026,-1.38476 -1.62914,0 -2.7288,1.33046 -1.08609,1.33046 -1.08609,4.19502 z" />
      <path
         id="path4904"
         style="font-style:normal;font-variant:normal;font-weight:normal;font-stretch:normal;font-family:Arial;-inkscape-font-specification:Arial;fill:#ffffff;fill-opacity:1"
         d="m 379.25823,185.24225 2.52516,0.31225 q -0.59735,2.21291 -2.21291,3.43476 -1.61556,1.22185 -4.12714,1.22185 -3.16324,0 -5.02317,-1.94139 -1.84636,-1.95496 -1.84636,-5.47118 0,-3.6384 1.87351,-5.64767 1.87351,-2.00927 4.86026,-2.00927 2.89171,0 4.72449,1.96854 1.83278,1.96854 1.83278,5.53907 0,0.21721 -0.0136,0.65165 l -10.7523,0 q 0.13577,2.37582 1.34404,3.6384 1.20828,1.26258 3.0139,1.26258 1.34404,0 2.29437,-0.70596 0.95033,-0.70595 1.50695,-2.25363 z m -8.02349,-3.95066 8.05064,0 q -0.16291,-1.8192 -0.92317,-2.7288 -1.16755,-1.41192 -3.02748,-1.41192 -1.68344,0 -2.83741,1.12682 -1.1404,1.12682 -1.26258,3.0139 z" />
      <path
         id="path4906"
         style="font-style:normal;font-variant:normal;font-weight:normal;font-stretch:normal;font-family:Arial;-inkscape-font-specification:Arial;fill:#ffffff;fill-opacity:1"
         d="m 392.88867,189.88528 0,-19.90261 6.85594,0 q 2.32152,0 3.54337,0.2851 1.7106,0.39371 2.91887,1.4255 1.57483,1.33046 2.34867,3.40761 0.78742,2.06357 0.78742,4.72449 0,2.26721 -0.52947,4.01854 -0.52947,1.75132 -1.35761,2.90529 -0.82815,1.14039 -1.8192,1.80562 -0.97749,0.65166 -2.37583,0.99106 -1.38476,0.3394 -3.19039,0.3394 l -7.18177,0 z m 2.63377,-2.34867 4.24933,0 q 1.96853,0 3.08178,-0.36655 1.12682,-0.36656 1.79205,-1.03179 0.93675,-0.93675 1.45264,-2.51158 0.52947,-1.58841 0.52947,-3.84205 0,-3.12251 -1.03178,-4.79237 -1.01821,-1.68344 -2.48444,-2.25364 -1.05893,-0.40729 -3.40761,-0.40729 l -4.18144,0 0,15.20527 z" />
      <path
         id="path4908"
         style="font-style:normal;font-variant:normal;font-weight:normal;font-stretch:normal;font-family:Arial;-inkscape-font-specification:Arial;fill:#ffffff;fill-opacity:1"
         d="m 422.53895,185.24225 2.52516,0.31225 q -0.59735,2.21291 -2.21291,3.43476 -1.61556,1.22185 -4.12715,1.22185 -3.16324,0 -5.02317,-1.94139 -1.84635,-1.95496 -1.84635,-5.47118 0,-3.6384 1.87351,-5.64767 1.8735,-2.00927 4.86025,-2.00927 2.89172,0 4.7245,1.96854 1.83277,1.96854 1.83277,5.53907 0,0.21721 -0.0136,0.65165 l -10.7523,0 q 0.13576,2.37582 1.34404,3.6384 1.20827,1.26258 3.0139,1.26258 1.34404,0 2.29436,-0.70596 0.95033,-0.70595 1.50696,-2.25363 z m -8.0235,-3.95066 8.05065,0 q -0.16292,-1.8192 -0.92318,-2.7288 -1.16755,-1.41192 -3.02748,-1.41192 -1.68344,0 -2.83741,1.12682 -1.14039,1.12682 -1.26258,3.0139 z" />
      <path
         id="path4910"
         style="font-style:normal;font-variant:normal;font-weight:normal;font-stretch:normal;font-family:Arial;-inkscape-font-specification:Arial;fill:#ffffff;fill-opacity:1"
         d="m 427.16841,185.58165 2.41655,-0.38013 q 0.20364,1.45264 1.12682,2.22648 0.93675,0.77384 2.60662,0.77384 1.68344,0 2.498,-0.6788 0.81457,-0.69239 0.81457,-1.61556 0,-0.82815 -0.71953,-1.30331 -0.50232,-0.32583 -2.49801,-0.82815 -2.68808,-0.6788 -3.73344,-1.16754 -1.03178,-0.50232 -1.57483,-1.37119 -0.52947,-0.88245 -0.52947,-1.94139 0,-0.9639 0.43444,-1.77847 0.44801,-0.82815 1.20827,-1.37119 0.5702,-0.42086 1.54768,-0.70596 0.99106,-0.29868 2.11788,-0.29868 1.69702,0 2.97317,0.48874 1.28973,0.48875 1.90066,1.33047 0.61093,0.82814 0.84172,2.22648 l -2.3894,0.32583 q -0.16291,-1.11324 -0.95033,-1.73775 -0.77384,-0.6245 -2.19933,-0.6245 -1.68344,0 -2.40298,0.55662 -0.71953,0.55662 -0.71953,1.30331 0,0.47517 0.29867,0.8553 0.29868,0.39371 0.93676,0.65165 0.36655,0.13576 2.1586,0.6245 2.59304,0.69239 3.61125,1.1404 1.03179,0.43444 1.61556,1.27616 0.58378,0.84172 0.58378,2.09072 0,1.22185 -0.71954,2.30794 -0.70596,1.07252 -2.04999,1.66987 -1.34404,0.58377 -3.04106,0.58377 -2.81026,0 -4.29006,-1.16755 -1.46622,-1.16754 -1.8735,-3.46191 z" />
      <path
         id="path4912"
         style="font-style:normal;font-variant:normal;font-weight:normal;font-stretch:normal;font-family:Arial;-inkscape-font-specification:Arial;fill:#ffffff;fill-opacity:1"
         d="m 451.9177,185.24225 2.52516,0.31225 q -0.59735,2.21291 -2.21291,3.43476 -1.61556,1.22185 -4.12714,1.22185 -3.16324,0 -5.02317,-1.94139 -1.84636,-1.95496 -1.84636,-5.47118 0,-3.6384 1.87351,-5.64767 1.87351,-2.00927 4.86025,-2.00927 2.89172,0 4.7245,1.96854 1.83278,1.96854 1.83278,5.53907 0,0.21721 -0.0136,0.65165 l -10.7523,0 q 0.13576,2.37582 1.34404,3.6384 1.20828,1.26258 3.0139,1.26258 1.34404,0 2.29437,-0.70596 0.95033,-0.70595 1.50695,-2.25363 z m -8.0235,-3.95066 8.05065,0 q -0.16291,-1.8192 -0.92318,-2.7288 -1.16754,-1.41192 -3.02747,-1.41192 -1.68344,0 -2.83741,1.12682 -1.1404,1.12682 -1.26259,3.0139 z" />
      <path
         id="path4914"
         style="font-style:normal;font-variant:normal;font-weight:normal;font-stretch:normal;font-family:Arial;-inkscape-font-specification:Arial;fill:#ffffff;fill-opacity:1"
         d="m 457.52464,189.88528 0,-14.41785 2.19934,0 0,2.05 q 1.5884,-2.37583 4.58873,-2.37583 1.30331,0 2.3894,0.47517 1.09966,0.46159 1.64271,1.22185 0.54305,0.76026 0.76026,1.80563 0.13576,0.6788 0.13576,2.37582 l 0,8.86521 -2.4437,0 0,-8.77018 q 0,-1.49337 -0.2851,-2.22648 -0.2851,-0.74669 -1.01821,-1.18113 -0.71953,-0.44801 -1.69701,-0.44801 -1.56126,0 -2.70165,0.99106 -1.12682,0.99106 -1.12682,3.76059 l 0,7.87415 -2.44371,0 z" />
      <path
         id="path4916"
         style="font-style:normal;font-variant:normal;font-weight:normal;font-stretch:normal;font-family:Arial;-inkscape-font-specification:Arial;fill:#ffffff;fill-opacity:1"
         d="m 477.00639,189.88528 -5.48476,-14.41785 2.57947,0 3.09536,8.63442 q 0.50232,1.39834 0.92318,2.90529 0.32582,-1.14039 0.9096,-2.74237 l 3.20396,-8.79734 2.51159,0 -5.45761,14.41785 -2.28079,0 z" />
      <path
         id="path4918"
         style="font-style:normal;font-variant:normal;font-weight:normal;font-stretch:normal;font-family:Arial;-inkscape-font-specification:Arial;fill:#ffffff;fill-opacity:1"
         d="m 485.99378,182.67636 q 0,-4.00496 2.22649,-5.93277 1.85993,-1.60199 4.53442,-1.60199 2.97318,0 4.86026,1.95497 1.88708,1.94138 1.88708,5.37615 0,2.7831 -0.84172,4.38509 -0.82814,1.5884 -2.43013,2.47085 -1.5884,0.88245 -3.47549,0.88245 -3.02747,0 -4.90098,-1.94139 -1.85993,-1.94138 -1.85993,-5.59336 z m 2.51158,0 q 0,2.76953 1.20828,4.15429 1.20828,1.37119 3.04105,1.37119 1.81921,0 3.02748,-1.38476 1.20828,-1.38477 1.20828,-4.22218 0,-2.6745 -1.22185,-4.04569 -1.20828,-1.38476 -3.01391,-1.38476 -1.83277,0 -3.04105,1.37119 -1.20828,1.37119 -1.20828,4.14072 z" />
      <path
         id="path4920"
         style="font-style:normal;font-variant:normal;font-weight:normal;font-stretch:normal;font-family:Arial;-inkscape-font-specification:Arial;fill:#ffffff;fill-opacity:1"
         d="m 502.32588,189.88528 0,-19.90261 2.44371,0 0,19.90261 -2.44371,0 z" />
      <path
         id="path4922"
         style="font-style:normal;font-variant:normal;font-weight:normal;font-stretch:normal;font-family:Arial;-inkscape-font-specification:Arial;fill:#ffffff;fill-opacity:1"
         d="m 512.57585,189.88528 -5.48476,-14.41785 2.57947,0 3.09536,8.63442 q 0.50231,1.39834 0.92317,2.90529 0.32583,-1.14039 0.9096,-2.74237 l 3.20397,-8.79734 2.51159,0 -5.45761,14.41785 -2.28079,0 z" />
      <path
         id="path4924"
         style="font-style:normal;font-variant:normal;font-weight:normal;font-stretch:normal;font-family:Arial;-inkscape-font-specification:Arial;fill:#ffffff;fill-opacity:1"
         d="m 522.48645,172.79293 0,-2.81026 2.4437,0 0,2.81026 -2.4437,0 z m 0,17.09235 0,-14.41785 2.4437,0 0,14.41785 -2.4437,0 z" />
      <path
         id="path4926"
         style="font-style:normal;font-variant:normal;font-weight:normal;font-stretch:normal;font-family:Arial;-inkscape-font-specification:Arial;fill:#ffffff;fill-opacity:1"
         d="m 528.66357,189.88528 0,-14.41785 2.18576,0 0,2.02284 q 0.67881,-1.05893 1.80563,-1.69701 1.12682,-0.65166 2.56589,-0.65166 1.60198,0 2.62019,0.66523 1.03179,0.66523 1.45265,1.85993 1.71059,-2.52516 4.45297,-2.52516 2.14503,0 3.299,1.1947 1.15397,1.18113 1.15397,3.65198 l 0,9.897 -2.43013,0 0,-9.08243 q 0,-1.46622 -0.24437,-2.1043 -0.23079,-0.65165 -0.8553,-1.04536 -0.6245,-0.39371 -1.46622,-0.39371 -1.52053,0 -2.52516,1.01821 -1.00463,1.00463 -1.00463,3.23112 l 0,8.37647 -2.44371,0 0,-9.36753 q 0,-1.62913 -0.59735,-2.4437 -0.59735,-0.81457 -1.95496,-0.81457 -1.03179,0 -1.91423,0.54305 -0.86888,0.54304 -1.26258,1.5884 -0.39371,1.04537 -0.39371,3.01391 l 0,7.48044 -2.44371,0 z" />
      <path
         id="path4928"
         style="font-style:normal;font-variant:normal;font-weight:normal;font-stretch:normal;font-family:Arial;-inkscape-font-specification:Arial;fill:#ffffff;fill-opacity:1"
         d="m 561.72147,185.24225 2.52516,0.31225 q -0.59735,2.21291 -2.21291,3.43476 -1.61556,1.22185 -4.12714,1.22185 -3.16324,0 -5.02317,-1.94139 -1.84636,-1.95496 -1.84636,-5.47118 0,-3.6384 1.87351,-5.64767 1.87351,-2.00927 4.86026,-2.00927 2.89171,0 4.72449,1.96854 1.83278,1.96854 1.83278,5.53907 0,0.21721 -0.0136,0.65165 l -10.75229,0 q 0.13576,2.37582 1.34403,3.6384 1.20828,1.26258 3.0139,1.26258 1.34404,0 2.29437,-0.70596 0.95033,-0.70595 1.50695,-2.25363 z m -8.02349,-3.95066 8.05064,0 q -0.16291,-1.8192 -0.92317,-2.7288 -1.16755,-1.41192 -3.02748,-1.41192 -1.68344,0 -2.83741,1.12682 -1.1404,1.12682 -1.26258,3.0139 z" />
      <path
         id="path4930"
         style="font-style:normal;font-variant:normal;font-weight:normal;font-stretch:normal;font-family:Arial;-inkscape-font-specification:Arial;fill:#ffffff;fill-opacity:1"
         d="m 567.3284,189.88528 0,-14.41785 2.19933,0 0,2.05 q 1.58841,-2.37583 4.58874,-2.37583 1.3033,0 2.38939,0.47517 1.09967,0.46159 1.64272,1.22185 0.54304,0.76026 0.76026,1.80563 0.13576,0.6788 0.13576,2.37582 l 0,8.86521 -2.4437,0 0,-8.77018 q 0,-1.49337 -0.2851,-2.22648 -0.2851,-0.74669 -1.01821,-1.18113 -0.71954,-0.44801 -1.69702,-0.44801 -1.56125,0 -2.70165,0.99106 -1.12682,0.99106 -1.12682,3.76059 l 0,7.87415 -2.4437,0 z" />
      <path
         id="path4932"
         style="font-style:normal;font-variant:normal;font-weight:normal;font-stretch:normal;font-family:Arial;-inkscape-font-specification:Arial;fill:#ffffff;fill-opacity:1"
         d="m 588.14063,187.69953 0.35298,2.1586 q -1.03179,0.21722 -1.84636,0.21722 -1.33046,0 -2.06357,-0.42086 -0.73311,-0.42086 -1.03179,-1.09967 -0.29867,-0.69238 -0.29867,-2.89171 l 0,-8.29502 -1.79205,0 0,-1.90066 1.79205,0 0,-3.57052 2.43013,-1.46622 0,5.03674 2.45728,0 0,1.90066 -2.45728,0 0,8.43078 q 0,1.04536 0.12218,1.34404 0.13576,0.29867 0.42086,0.47516 0.29868,0.17649 0.84172,0.17649 0.40729,0 1.07252,-0.095 z" />
      <path
         id="path4934"
         style="font-style:normal;font-variant:normal;font-weight:normal;font-stretch:normal;font-family:Arial;-inkscape-font-specification:Arial;fill:#ffffff;fill-opacity:1"
         d="m 589.60685,182.67636 q 0,-4.00496 2.22648,-5.93277 1.85993,-1.60199 4.53443,-1.60199 2.97317,0 4.86026,1.95497 1.88708,1.94138 1.88708,5.37615 0,2.7831 -0.84172,4.38509 -0.82814,1.5884 -2.43013,2.47085 -1.58841,0.88245 -3.47549,0.88245 -3.02748,0 -4.90098,-1.94139 -1.85993,-1.94138 -1.85993,-5.59336 z m 2.51158,0 q 0,2.76953 1.20828,4.15429 1.20827,1.37119 3.04105,1.37119 1.8192,0 3.02748,-1.38476 1.20827,-1.38477 1.20827,-4.22218 0,-2.6745 -1.22185,-4.04569 -1.20827,-1.38476 -3.0139,-1.38476 -1.83278,0 -3.04105,1.37119 -1.20828,1.37119 -1.20828,4.14072 z" />
      <path
         id="path4936"
         style="font-style:normal;font-variant:normal;font-weight:normal;font-stretch:normal;font-family:Arial;-inkscape-font-specification:Arial;fill:#ffffff;fill-opacity:1"
         d="m 623.05842,189.88528 0,-1.8192 q -1.37119,2.14503 -4.03211,2.14503 -1.72417,0 -3.17681,-0.95033 -1.43907,-0.95033 -2.24007,-2.64734 -0.78741,-1.7106 -0.78741,-3.92351 0,-2.1586 0.71953,-3.90992 0.71954,-1.7649 2.15861,-2.70165 1.43907,-0.93676 3.21754,-0.93676 1.30331,0 2.32152,0.55663 1.01821,0.54304 1.65629,1.42549 l 0,-7.14105 2.43013,0 0,19.90261 -2.26722,0 z m -7.72482,-7.19535 q 0,2.76954 1.16755,4.14072 1.16755,1.37119 2.75596,1.37119 1.60198,0 2.71522,-1.3033 1.12682,-1.31689 1.12682,-4.00496 0,-2.9596 -1.14039,-4.34437 -1.1404,-1.38476 -2.81026,-1.38476 -1.62914,0 -2.72881,1.33046 -1.08609,1.33046 -1.08609,4.19502 z" />
      <path
         id="path4938"
         style="font-style:normal;font-variant:normal;font-weight:normal;font-stretch:normal;font-family:Arial;-inkscape-font-specification:Arial;fill:#ffffff;fill-opacity:1"
         d="m 639.05112,185.24225 2.52516,0.31225 q -0.59735,2.21291 -2.21291,3.43476 -1.61556,1.22185 -4.12714,1.22185 -3.16324,0 -5.02317,-1.94139 -1.84635,-1.95496 -1.84635,-5.47118 0,-3.6384 1.8735,-5.64767 1.87351,-2.00927 4.86026,-2.00927 2.89171,0 4.72449,1.96854 1.83278,1.96854 1.83278,5.53907 0,0.21721 -0.0136,0.65165 l -10.75229,0 q 0.13576,2.37582 1.34403,3.6384 1.20828,1.26258 3.0139,1.26258 1.34404,0 2.29437,-0.70596 0.95033,-0.70595 1.50695,-2.25363 z m -8.02349,-3.95066 8.05064,0 q -0.16291,-1.8192 -0.92317,-2.7288 -1.16755,-1.41192 -3.02748,-1.41192 -1.68344,0 -2.83741,1.12682 -1.1404,1.12682 -1.26258,3.0139 z" />
      <path
         id="path4940"
         style="font-style:normal;font-variant:normal;font-weight:normal;font-stretch:normal;font-family:Arial;-inkscape-font-specification:Arial;fill:#ffffff;fill-opacity:1"
         d="m 651.78552,183.49093 2.48443,-0.21722 q 0.17649,1.49337 0.81457,2.45728 0.65165,0.95033 2.00927,1.54768 1.35761,0.58377 3.05463,0.58377 1.50695,0 2.66092,-0.44801 1.15397,-0.44801 1.71059,-1.22185 0.5702,-0.78742 0.5702,-1.7106 0,-0.93675 -0.54305,-1.62913 -0.54304,-0.70596 -1.79205,-1.18113 -0.80099,-0.31225 -3.54337,-0.9639 -2.74238,-0.66523 -3.84204,-1.24901 -1.4255,-0.74668 -2.13146,-1.84635 -0.69238,-1.11324 -0.69238,-2.48443 0,-1.50695 0.8553,-2.81026 0.85529,-1.31689 2.49801,-1.99569 1.64271,-0.67881 3.65198,-0.67881 2.21291,0 3.89635,0.71953 1.69701,0.70596 2.60661,2.09073 0.90961,1.38477 0.97749,3.13609 l -2.52516,0.19006 q -0.20365,-1.88708 -1.38477,-2.85099 -1.16755,-0.9639 -3.46191,-0.9639 -2.3894,0 -3.48907,0.88245 -1.08609,0.86887 -1.08609,2.1043 0,1.07251 0.77384,1.7649 0.76026,0.69238 3.96423,1.42549 3.21754,0.71953 4.41224,1.26258 1.73775,0.80099 2.56589,2.03642 0.82815,1.22185 0.82815,2.82384 0,1.5884 -0.9096,3.00032 -0.90961,1.39834 -2.6202,2.18576 -1.69702,0.77384 -3.82847,0.77384 -2.70165,0 -4.53443,-0.78742 -1.8192,-0.78741 -2.86456,-2.36225 -1.03179,-1.5884 -1.08609,-3.58409 z" />
      <path
         id="path4942"
         style="font-style:normal;font-variant:normal;font-weight:normal;font-stretch:normal;font-family:Arial;-inkscape-font-specification:Arial;fill:#ffffff;fill-opacity:1"
         d="m 670.95501,172.79293 0,-2.81026 2.44371,0 0,2.81026 -2.44371,0 z m 0,17.09235 0,-14.41785 2.44371,0 0,14.41785 -2.44371,0 z" />
      <path
         id="path4944"
         style="font-style:normal;font-variant:normal;font-weight:normal;font-stretch:normal;font-family:Arial;-inkscape-font-specification:Arial;fill:#ffffff;fill-opacity:1"
         d="m 676.15469,185.58165 2.41655,-0.38013 q 0.20364,1.45264 1.12682,2.22648 0.93675,0.77384 2.60662,0.77384 1.68344,0 2.49801,-0.6788 0.81456,-0.69239 0.81456,-1.61556 0,-0.82815 -0.71953,-1.30331 -0.50232,-0.32583 -2.49801,-0.82815 -2.68807,-0.6788 -3.73344,-1.16754 -1.03178,-0.50232 -1.57483,-1.37119 -0.52947,-0.88245 -0.52947,-1.94139 0,-0.9639 0.43444,-1.77847 0.44801,-0.82815 1.20828,-1.37119 0.57019,-0.42086 1.54767,-0.70596 0.99106,-0.29868 2.11788,-0.29868 1.69702,0 2.97317,0.48874 1.28974,0.48875 1.90066,1.33047 0.61093,0.82814 0.84172,2.22648 l -2.3894,0.32583 q -0.16291,-1.11324 -0.95033,-1.73775 -0.77384,-0.6245 -2.19933,-0.6245 -1.68344,0 -2.40297,0.55662 -0.71954,0.55662 -0.71954,1.30331 0,0.47517 0.29868,0.8553 0.29867,0.39371 0.93675,0.65165 0.36655,0.13576 2.1586,0.6245 2.59304,0.69239 3.61125,1.1404 1.03179,0.43444 1.61556,1.27616 0.58378,0.84172 0.58378,2.09072 0,1.22185 -0.71954,2.30794 -0.70596,1.07252 -2.04999,1.66987 -1.34404,0.58377 -3.04106,0.58377 -2.81026,0 -4.29005,-1.16755 -1.46623,-1.16754 -1.87351,-3.46191 z" />
      <path
         id="path4946"
         style="font-style:normal;font-variant:normal;font-weight:normal;font-stretch:normal;font-family:Arial;-inkscape-font-specification:Arial;fill:#ffffff;fill-opacity:1"
         d="m 696.36954,187.69953 0.35298,2.1586 q -1.03179,0.21722 -1.84636,0.21722 -1.33046,0 -2.06357,-0.42086 -0.73311,-0.42086 -1.03178,-1.09967 -0.29868,-0.69238 -0.29868,-2.89171 l 0,-8.29502 -1.79205,0 0,-1.90066 1.79205,0 0,-3.57052 2.43013,-1.46622 0,5.03674 2.45728,0 0,1.90066 -2.45728,0 0,8.43078 q 0,1.04536 0.12218,1.34404 0.13576,0.29867 0.42086,0.47516 0.29868,0.17649 0.84172,0.17649 0.40729,0 1.07252,-0.095 z" />
      <path
         id="path4948"
         style="font-style:normal;font-variant:normal;font-weight:normal;font-stretch:normal;font-family:Arial;-inkscape-font-specification:Arial;fill:#ffffff;fill-opacity:1"
         d="m 708.61521,185.24225 2.52516,0.31225 q -0.59735,2.21291 -2.21291,3.43476 -1.61556,1.22185 -4.12714,1.22185 -3.16324,0 -5.02317,-1.94139 -1.84636,-1.95496 -1.84636,-5.47118 0,-3.6384 1.87351,-5.64767 1.87351,-2.00927 4.86025,-2.00927 2.89172,0 4.7245,1.96854 1.83278,1.96854 1.83278,5.53907 0,0.21721 -0.0136,0.65165 l -10.7523,0 q 0.13576,2.37582 1.34404,3.6384 1.20828,1.26258 3.0139,1.26258 1.34404,0 2.29437,-0.70596 0.95033,-0.70595 1.50695,-2.25363 z m -8.0235,-3.95066 8.05065,0 q -0.16291,-1.8192 -0.92318,-2.7288 -1.16754,-1.41192 -3.02747,-1.41192 -1.68344,0 -2.83742,1.12682 -1.14039,1.12682 -1.26258,3.0139 z" />
      <path
         id="path4950"
         style="font-style:normal;font-variant:normal;font-weight:normal;font-stretch:normal;font-family:Arial;-inkscape-font-specification:Arial;fill:#ffffff;fill-opacity:1"
         d="m 714.22217,189.88528 0,-14.41785 2.18575,0 0,2.02284 q 0.67881,-1.05893 1.80563,-1.69701 1.12682,-0.65166 2.56589,-0.65166 1.60198,0 2.62019,0.66523 1.03179,0.66523 1.45265,1.85993 1.71059,-2.52516 4.45297,-2.52516 2.14503,0 3.299,1.1947 1.15397,1.18113 1.15397,3.65198 l 0,9.897 -2.43013,0 0,-9.08243 q 0,-1.46622 -0.24437,-2.1043 -0.23079,-0.65165 -0.85529,-1.04536 -0.6245,-0.39371 -1.46622,-0.39371 -1.52053,0 -2.52517,1.01821 -1.00463,1.00463 -1.00463,3.23112 l 0,8.37647 -2.4437,0 0,-9.36753 q 0,-1.62913 -0.59735,-2.4437 -0.59735,-0.81457 -1.95497,-0.81457 -1.03178,0 -1.91423,0.54305 -0.86887,0.54304 -1.26258,1.5884 -0.39371,1.04537 -0.39371,3.01391 l 0,7.48044 -2.4437,0 z" />
      <path
         id="path4952"
         style="font-style:normal;font-variant:normal;font-weight:normal;font-stretch:normal;font-family:Arial;-inkscape-font-specification:Arial;fill:#ffffff;fill-opacity:1"
         d="m 746.81845,188.10681 q -1.35762,1.15397 -2.6202,1.62914 -1.249,0.47516 -2.68807,0.47516 -2.37583,0 -3.65198,-1.15397 -1.27616,-1.16755 -1.27616,-2.97317 0,-1.05894 0.47517,-1.92781 0.48874,-0.88245 1.26258,-1.41192 0.78741,-0.52947 1.76489,-0.80099 0.71954,-0.19007 2.17219,-0.36656 2.95959,-0.35298 4.35793,-0.84172 0.0136,-0.50232 0.0136,-0.63808 0,-1.49337 -0.69238,-2.1043 -0.93676,-0.82814 -2.78311,-0.82814 -1.72417,0 -2.55231,0.61092 -0.81457,0.59735 -1.20828,2.13146 l -2.3894,-0.32583 q 0.32583,-1.5341 1.07252,-2.47086 0.74668,-0.95033 2.1586,-1.45264 1.41192,-0.5159 3.27185,-0.5159 1.84635,0 3.00033,0.43444 1.15397,0.43444 1.69701,1.09967 0.54305,0.65165 0.76027,1.65629 0.12218,0.6245 0.12218,2.25363 l 0,3.25828 q 0,3.4076 0.14934,4.31721 0.16291,0.89602 0.6245,1.72416 l -2.55231,0 q -0.38013,-0.76026 -0.48874,-1.77847 z m -0.20365,-5.4576 q -1.33046,0.54304 -3.99138,0.92317 -1.50695,0.21722 -2.13145,0.48874 -0.6245,0.27153 -0.96391,0.801 -0.3394,0.51589 -0.3394,1.15397 0,0.97748 0.73311,1.62913 0.74669,0.65166 2.17218,0.65166 1.41192,0 2.51159,-0.61093 1.09966,-0.6245 1.61556,-1.69702 0.3937,-0.82814 0.3937,-2.4437 l 0,-0.89602 z" />
      <path
         id="path4954"
         style="font-style:normal;font-variant:normal;font-weight:normal;font-stretch:normal;font-family:Arial;-inkscape-font-specification:Arial;fill:#ffffff;fill-opacity:1"
         d="m 751.90951,185.58165 2.41655,-0.38013 q 0.20364,1.45264 1.12682,2.22648 0.93675,0.77384 2.60662,0.77384 1.68344,0 2.49801,-0.6788 0.81457,-0.69239 0.81457,-1.61556 0,-0.82815 -0.71954,-1.30331 -0.50232,-0.32583 -2.49801,-0.82815 -2.68807,-0.6788 -3.73343,-1.16754 -1.03179,-0.50232 -1.57484,-1.37119 -0.52947,-0.88245 -0.52947,-1.94139 0,-0.9639 0.43444,-1.77847 0.44801,-0.82815 1.20828,-1.37119 0.57019,-0.42086 1.54768,-0.70596 0.99105,-0.29868 2.11787,-0.29868 1.69702,0 2.97318,0.48874 1.28973,0.48875 1.90065,1.33047 0.61093,0.82814 0.84173,2.22648 l -2.3894,0.32583 q -0.16292,-1.11324 -0.95033,-1.73775 -0.77384,-0.6245 -2.19934,-0.6245 -1.68344,0 -2.40297,0.55662 -0.71954,0.55662 -0.71954,1.30331 0,0.47517 0.29868,0.8553 0.29867,0.39371 0.93675,0.65165 0.36656,0.13576 2.15861,0.6245 2.59304,0.69239 3.61125,1.1404 1.03178,0.43444 1.61556,1.27616 0.58377,0.84172 0.58377,2.09072 0,1.22185 -0.71953,2.30794 -0.70596,1.07252 -2.05,1.66987 -1.34404,0.58377 -3.04105,0.58377 -2.81026,0 -4.29006,-1.16755 -1.46623,-1.16754 -1.87351,-3.46191 z" />
    </g>
  </g>
</svg>
