<?xml version="1.0" encoding="UTF-8" standalone="no"?>
<!-- Generator: Adobe Illustrator 19.0.0, SVG Export Plug-In . SVG Version: 6.00 Build 0)  -->

<svg
   xmlns:dc="http://purl.org/dc/elements/1.1/"
   xmlns:cc="http://creativecommons.org/ns#"
   xmlns:rdf="http://www.w3.org/1999/02/22-rdf-syntax-ns#"
   xmlns:svg="http://www.w3.org/2000/svg"
   xmlns="http://www.w3.org/2000/svg"
   xmlns:sodipodi="http://sodipodi.sourceforge.net/DTD/sodipodi-0.dtd"
   xmlns:inkscape="http://www.inkscape.org/namespaces/inkscape"
   version="1.1"
   id="Camada_1"
   x="0px"
   y="0px"
   viewBox="-72 90 734 276"
   xml:space="preserve"
   inkscape:version="0.91 r13725"
   sodipodi:docname="veterinaria flat II_nome.svg"
   width="734"
   height="276"><metadata
     id="metadata27"><rdf:RDF><cc:Work
         rdf:about=""><dc:format>image/svg+xml</dc:format><dc:type
           rdf:resource="http://purl.org/dc/dcmitype/StillImage" /><dc:title></dc:title></cc:Work></rdf:RDF></metadata><defs
     id="defs25" /><sodipodi:namedview
     pagecolor="#ffffff"
     bordercolor="#666666"
     borderopacity="1"
     objecttolerance="10"
     gridtolerance="10"
     guidetolerance="10"
     inkscape:pageopacity="0"
     inkscape:pageshadow="2"
     inkscape:window-width="1366"
     inkscape:window-height="709"
     id="namedview23"
     showgrid="false"
     showguides="true"
     inkscape:guide-bbox="true"
     inkscape:zoom="0.54357394"
     inkscape:cx="405.07725"
     inkscape:cy="101.22797"
     inkscape:window-x="0"
     inkscape:window-y="0"
     inkscape:window-maximized="1"
     inkscape:current-layer="Camada_1" /><style
     type="text/css"
     id="style3">
	.st0{fill:#1ABC9C;stroke:#1ABC9C;stroke-miterlimit:10;}
	.st1{display:none;opacity:0.29;fill:#33794C;stroke:#36985B;stroke-miterlimit:10;enable-background:new    ;}
	.st2{display:none;}
	.st3{opacity:0.3;fill:url(#XMLID_3_);enable-background:new    ;}
	.st4{fill:#EBEFF0;}
	.st5{fill:#EBEFF0;stroke:#EBEFF0;stroke-miterlimit:10;}
	.st6{fill:#EBEFF0;stroke:#EBEFF0;stroke-linejoin:bevel;stroke-miterlimit:10;}
</style><g
     id="g4155"
     transform="matrix(0.47894161,0,0,0.47894161,-48.705607,46.70826)"><g
       id="Camada_1_1_"><polygon
         style="fill:#1abc9c;stroke:#1abc9c;stroke-miterlimit:10"
         points="367.5,523.8 160.3,665.3 -46.2,522.8 -45.5,238.8 161.7,97.3 368.2,239.9 "
         class="st0"
         id="XMLID_1_" /><polygon
         style="display:none;opacity:0.28999999;fill:#33794c;stroke:#36985b;stroke-miterlimit:10;enable-background:new"
         points="-46.2,522.8 160.3,665.3 161,97.3 -45.5,238.8 "
         class="st1"
         id="XMLID_4_" /><g
         style="display:none"
         class="st2"
         id="Camada_3" /><linearGradient
         gradientTransform="translate(0,12)"
         y2="159.0325"
         x2="178.35001"
         y1="2131.1211"
         x1="178.35001"
         gradientUnits="userSpaceOnUse"
         id="XMLID_3_"><stop
           id="stop10"
           style="stop-color:#FFFFFF;stop-opacity:0"
           offset="0" /><stop
           id="stop12"
           style="stop-color:#CDCED3;stop-opacity:0.2513"
           offset="0.2513" /><stop
           id="stop14"
           style="stop-color:#000000"
           offset="1" /></linearGradient><path
         style="opacity:0.3;fill:url(#XMLID_3_);enable-background:new"
         inkscape:connector-curvature="0"
         d="m 335.3,265.8 c -1.5,-1.5 -3.2,-2.8 -5.1,-3.8 -6.2,-3.1 -12.4,-5.9 -18.7,-8.4 l -54.8,-55.9 c 0,0 -2.7,-2.3 -5.4,-3.5 l -35.9,-36.6 c -1,0.4 -34.2,-35.9 -103.2,-9 -60.3,27.6 -39.1,85.6 -37.8,92 1.7,6.8 26,38.8 32.5,40 l 53.8,55 0,55 -10.4,4.8 -139,-142.2 -22.7,10.3 161.3,353 32.5,33.5 130.2,-88.5 0,0 41.3,-28.4 0,0 13.7,-9.3 0.5,-210.4 0,0 0,-2 0,-12 -32.8,-33.6 z"
         class="st3"
         id="XMLID_5_" /><polygon
         style="fill:#ebeff0"
         id="polygon17"
         points="149.9,616.9 -11.4,263.5 11.3,253.2 161.4,581.5 310.6,253.3 333.4,263.6 172.8,616.9 "
         class="st4" /><path
         style="fill:#ebeff0;stroke:#ebeff0;stroke-miterlimit:10"
         inkscape:connector-curvature="0"
         d="m 159.3,560.9 c 3,-136.4 3.3,-263.5 -3.2,-368 l 15.5,4.4 0.1,14.5 3.1,-13.9 4.8,1.4 c 3.6,101.6 -1.4,216.5 -11,338.3 l -9.3,23.3 z"
         class="st5"
         id="XMLID_22_" /><path
         style="fill:#ebeff0;stroke:#ebeff0;stroke-linejoin:bevel;stroke-miterlimit:10"
         inkscape:connector-curvature="0"
         d="m 257.4,199.2 c -4.2,-4.6 -19.5,-9.6 -20.5,-11.9 -8.8,0.9 -13.4,11.9 -13.4,11.9 0,0 1,14.3 6.9,20 6,5.8 21,18.1 26.6,16.8 5.6,-1.3 8.3,-3.5 8.3,-6.2 0,-2.7 -3.7,-26 -7.9,-30.6 z m -21.3,12 c 0,0 11.8,-1 11.8,9.9 -6,-0.1 -10.3,-3 -11.8,-9.9 z m 22.8,6.3 c -2.3,-3.9 -3.7,-9.1 0,-12.6 0,0 6.1,8.8 0,12.6 z"
         class="st6"
         id="XMLID_18_" /><g
         id="XMLID_15_"><path
           style="fill:#ebeff0"
           inkscape:connector-curvature="0"
           d="m 185.3,523.9 c -1.1,-4.7 -2.6,-9.1 -5,-13.1 -2.3,-3.9 -5.5,-7.2 -9.2,-9.7 -3.7,-2.5 -7.8,-4.4 -12.1,-5.9 -4.3,-1.6 -8.8,-2.9 -13.4,-4.3 -4.6,-1.5 -9.3,-3.2 -13.9,-5.6 -4.6,-2.4 -9.1,-5.7 -12.7,-10.1 -3.6,-4.3 -6,-9.5 -7.5,-14.8 l -1,-3.9 -0.6,-3.9 c -0.2,-1.3 -0.3,-2.6 -0.4,-3.9 l -0.1,-2 0,-0.5 0,-0.2 c 0,-0.1 0,0.1 0,-0.3 l 0,-0.1 0,-0.9 c 0,-0.6 0,-1.1 0,-1.8 l 0.1,-2.2 c 0,-0.8 0.1,-1.4 0.2,-2.1 0.1,-0.7 0.2,-1.4 0.3,-2.1 0.5,-2.8 1.3,-5.6 2.4,-8.3 2.1,-5.4 5.5,-10.2 9.3,-14.2 1.9,-2 4,-3.8 6.1,-5.5 2.1,-1.7 4.3,-3.2 6.5,-4.6 4.4,-2.8 8.9,-5.2 13.3,-7.3 8.9,-4.3 17.8,-7.8 26.3,-11.5 8.4,-3.7 16.5,-7.6 22.9,-12.5 3.2,-2.4 5.9,-5.1 7.9,-7.9 2.1,-2.8 3.4,-5.9 4.1,-9.2 0.3,-1.7 0.6,-3.4 0.6,-5.2 0,-0.4 0,-0.9 0,-1.4 l 0,-0.7 0,-0.3 0,-0.1 c 0.1,1 0,0.2 0,0.4 l 0,-0.2 -0.1,-1.8 -0.1,-0.9 0,-0.4 0,-0.4 c -0.1,-0.9 -0.2,-1.8 -0.4,-2.8 -0.2,-1 -0.3,-2 -0.6,-2.9 l -0.3,-1.4 -0.4,-1.4 c -0.2,-0.9 -0.6,-1.8 -0.9,-2.7 -2.6,-7 -6.9,-12.4 -13.3,-16.6 -6.4,-4.3 -14.6,-7.3 -23.2,-10.1 -8.7,-2.8 -17.9,-5.3 -27.3,-8.5 -9.4,-3.2 -18.9,-7 -28,-12.4 -9.1,-5.3 -17.6,-12.1 -24.6,-20.3 -7,-8.2 -12.5,-17.5 -16.6,-27.1 l -0.1,-0.2 c -0.1,-0.3 -0.2,-0.6 -0.3,-0.8 l -1.1,-3.8 -0.5,-1.9 c -0.2,-0.6 -0.3,-1.3 -0.4,-2 l -0.9,-4.2 -0.6,-4 c -0.7,-5.4 -1,-11 -0.5,-16.7 0.5,-5.7 1.7,-11.3 3.7,-16.8 2,-5.5 4.8,-10.6 8.3,-15.2 3.4,-4.6 7.4,-8.7 11.7,-12.2 4.3,-3.5 8.9,-6.6 13.7,-9 4.8,-2.5 9.7,-4.6 14.7,-6.3 5,-1.7 10,-3 15.1,-4 5.1,-1 10.2,-1.7 15.3,-2.1 2.6,-0.2 5.1,-0.3 7.7,-0.4 l 3.8,0 1,0 0.5,0 0.5,0 0.2,0 1.8,0.1 c 2.1,0 5.3,0.3 8.1,0.7 l 4,0.7 c 1.3,0.3 2.7,0.6 4,0.9 5.3,1.3 10.5,3.2 15.4,5.7 9.8,4.9 18.4,11.9 25.3,19.9 3.4,4 6.5,8.3 9.2,12.8 1.4,2.2 2.6,4.6 3.8,6.9 0.6,1.2 1.1,2.4 1.7,3.6 0.3,0.6 0.5,1.2 0.8,1.9 l 0.4,1 0.4,1.2 -16.9,6.1 -0.5,-1.2 c -0.2,-0.4 -0.4,-0.9 -0.7,-1.4 -0.5,-0.9 -1,-1.9 -1.5,-2.8 -1,-1.8 -2.1,-3.7 -3.3,-5.4 -2.3,-3.5 -5,-6.9 -7.8,-10 -5.7,-6.1 -12.3,-11.2 -19.6,-14.5 -3.7,-1.7 -7.5,-2.9 -11.4,-3.8 -1,-0.2 -2,-0.4 -3,-0.6 l -3,-0.4 c -2,-0.1 -3.5,-0.4 -6.1,-0.4 l -1.8,0 -0.2,0 -0.1,0 -0.1,0 c -0.1,0 0.6,0 0.3,0 l -0.4,0 -0.8,0 -3.3,0.1 c -2.2,0.1 -4.4,0.3 -6.5,0.5 -4.3,0.5 -8.6,1.1 -12.9,2 -4.2,1 -8.4,2 -12.3,3.5 -4,1.4 -7.8,3.1 -11.4,5.1 -7.2,3.9 -13.4,9 -17.8,15.1 -2.2,3 -3.9,6.3 -5.2,9.8 -1.3,3.5 -2,7.1 -2.4,10.9 -0.4,3.8 -0.1,7.8 0.4,11.7 l 0.5,3 0.7,3 c 0.1,0.5 0.2,1 0.3,1.5 l 0.4,1.5 0.8,3 -0.4,-1.1 c 3.4,7.8 7.7,15 13,21.2 2.7,3.1 5.6,6 8.7,8.6 3.2,2.6 6.6,5 10.2,7.2 7.2,4.3 15.3,7.7 23.8,10.7 8.5,3 17.6,5.6 26.9,8.6 4.7,1.6 9.4,3.2 14.2,5.3 4.8,2.1 9.6,4.6 14.3,7.8 4.6,3.2 9.1,7.2 12.7,11.9 1.8,2.4 3.5,4.9 4.8,7.5 1.4,2.6 2.5,5.3 3.5,8 0.4,1.4 0.9,2.7 1.2,4.1 0.2,0.7 0.4,1.4 0.5,2 l 0.4,2 c 0.3,1.4 0.5,2.7 0.7,4.1 0.2,1.3 0.3,2.8 0.5,4.2 l 0.1,0.5 0,0.4 0.1,0.9 0.1,1.8 0,0.2 0,0.7 0,0.1 0,0.5 0,1.1 c 0,0.7 0,1.4 -0.1,2.2 -0.2,2.9 -0.6,5.9 -1.3,8.8 -1.4,5.9 -4.2,11.6 -7.8,16.4 -3.6,4.8 -7.9,8.7 -12.3,11.9 -4.4,3.2 -9,5.7 -13.6,8 -4.6,2.2 -9.1,4.2 -13.7,6 -9.1,3.6 -17.9,6.6 -26.3,10.2 -8.3,3.5 -16.1,7.5 -22,12.8 -5.8,5.3 -9.2,11.9 -9.8,20 l -0.1,0.9 0,0.1 c 0,-0.4 0,0 0,-0.1 l 0,0.2 0,0.4 0,1.6 c 0,1.1 -0.1,2.2 0,3.2 l 0.2,3.1 0.5,3 c 0.7,4 2.1,7.6 4.2,10.9 4.2,6.6 12.1,10.9 20.6,14.8 4.2,2 8.7,3.9 13,6.1 4.3,2.2 8.7,4.8 12.4,8.3 3.7,3.4 6.7,7.6 8.6,12.2 1.9,4.6 2.7,9.5 2.8,14.2 z"
           class="st4"
           id="XMLID_17_" /></g></g></g><path
     style="font-style:normal;font-variant:normal;font-weight:normal;font-stretch:normal;font-size:medium;line-height:125%;font-family:mry_KacstQurn;-inkscape-font-specification:mry_KacstQurn;letter-spacing:-1.7682991px;word-spacing:0px;baseline-shift:baseline;fill:#1abc9c;fill-opacity:1;stroke:none;stroke-width:1px;stroke-linecap:butt;stroke-linejoin:miter;stroke-opacity:1"
     d="m 217.55319,90.81451 c -18.50978,0 -33.05648,4.76458 -43.63347,14.29372 -10.50144,9.52917 -15.74814,22.56905 -15.74814,39.11961 0,14.29377 3.81691,25.45285 11.44749,33.47739 7.6305,8.02455 19.97648,13.91757 37.0508,17.67909 l 13.94266,3.00917 c 11.63467,2.5913 19.98973,6.47822 25.05158,11.66072 5.13744,5.18251 7.69857,12.37113 7.69857,21.56592 0,10.53225 -3.54331,18.64037 -10.64503,24.32439 -7.10172,5.68404 -17.19743,8.5261 -30.2676,8.5261 -8.61275,0 -17.37801,-1.46277 -26.29291,-4.38848 -8.91496,-2.92556 -18.01586,-7.27222 -27.30855,-13.03986 l 0,26.07975 c 9.67041,3.92874 19.0077,6.8961 27.99815,8.90222 9.06608,2.00615 17.59504,3.00922 25.60331,3.00922 21.22959,0 37.33043,-4.68093 48.28518,-14.04296 11.03029,-9.36195 16.53808,-23.11233 16.53808,-41.25113 0,-15.2132 -4.07801,-27.3336 -12.23742,-36.36121 -8.08379,-9.11121 -20.66617,-15.46398 -37.74045,-19.05828 l -13.81724,-3.13457 c -12.54125,-2.59129 -21.08278,-5.97667 -25.61581,-10.15607 -4.45747,-4.2631 -6.68296,-10.53226 -6.68296,-18.80752 0,-9.86351 3.35687,-17.47016 10.08081,-22.81984 6.79953,-5.34966 16.43509,-8.02451 28.90086,-8.02451 7.17728,0 14.61217,1.12852 22.31832,3.38531 7.70604,2.25695 15.91194,5.68407 24.60022,10.2815 l 0,-24.70057 c -8.61271,-3.17638 -17.04237,-5.55863 -25.27731,-7.14687 -8.23497,-1.58814 -16.31645,-2.38224 -24.24914,-2.38224 z m 84.63383,3.38535 0,187.19752 22.88245,0 0,-187.19752 -22.88245,0 z m 57.65134,0 0,187.19752 22.89497,0 0,-89.14766 83.17945,0 0,89.14766 22.88246,0 0,-187.19752 -22.88246,0 0,76.73464 -83.17945,0 0,-76.73464 -22.89497,0 z m 142.76158,0 64.59759,187.19752 25.95435,0 64.47219,-187.19752 -23.79782,0 -53.71423,157.607 -53.60144,-157.607 -23.91064,0 z"
     id="path4176"
     inkscape:connector-curvature="0" /><path
     style="font-style:normal;font-weight:normal;font-size:medium;line-height:125%;font-family:sans-serif;letter-spacing:-1.60285473px;word-spacing:0px;fill:#1abc9c;fill-opacity:1;stroke:none;stroke-width:1px;stroke-linecap:butt;stroke-linejoin:miter;stroke-opacity:1"
     d="m 170.21522,297.89915 c -3.99281,0 -7.13051,0.86149 -9.41211,2.58398 -2.2653,1.72249 -3.39844,4.07863 -3.39844,7.07031 0,2.58372 0.82274,4.60222 2.46875,6.05274 1.64602,1.4505 4.31099,2.51538 7.99414,3.19531 l 3.00586,0.54297 c 2.50977,0.4684 4.31238,1.17259 5.4043,2.10937 1.1082,0.9368 1.66211,2.2364 1.66211,3.89844 0,1.9038 -0.76691,3.36903 -2.29883,4.39649 -1.53194,1.02744 -3.70794,1.54101 -6.52735,1.54101 -1.85787,0 -3.74684,-0.26414 -5.66992,-0.79297 -1.92306,-0.52884 -3.88802,-1.31487 -5.89258,-2.35742 l 0,4.71289 c 2.08604,0.71015 4.0997,1.24675 6.03907,1.60938 1.95566,0.36262 3.79593,0.54492 5.52343,0.54492 4.5795,0 8.05098,-0.8468 10.41407,-2.53906 2.37938,-1.69227 3.57031,-4.17827 3.57031,-7.45704 0,-2.74992 -0.88053,-4.94043 -2.64063,-6.57226 -1.74379,-1.64694 -4.45747,-2.79561 -8.14062,-3.44531 l -2.98242,-0.56641 c -2.70533,-0.46839 -4.54757,-1.08046 -5.52539,-1.83594 -0.96154,-0.77058 -1.44141,-1.9026 -1.44141,-3.39843 0,-1.78293 0.72533,-3.158 2.17578,-4.125 1.46675,-0.96701 3.5434,-1.45118 6.23242,-1.45118 1.54824,0 3.1541,0.20533 4.81641,0.61328 1.66231,0.40796 3.43051,1.02641 5.30469,1.85743 l 0,-4.46485 c -1.85788,-0.57416 -3.67479,-1.00393 -5.45118,-1.29101 -1.77639,-0.28709 -3.51926,-0.43164 -5.23046,-0.43164 z m 43.21484,0 c -3.99281,0 -7.1305,0.86149 -9.41211,2.58398 -2.2653,1.72249 -3.39844,4.07863 -3.39844,7.07031 0,2.58372 0.82274,4.60222 2.46875,6.05274 1.64601,1.4505 4.31098,2.51538 7.99414,3.19531 l 3.00782,0.54297 c 2.50976,0.4684 4.31043,1.17259 5.40234,2.10937 1.10821,0.9368 1.66211,2.2364 1.66211,3.89844 0,1.9038 -0.7669,3.36903 -2.29883,4.39649 -1.53193,1.02744 -3.70598,1.54101 -6.52539,1.54101 -1.85787,0 -3.74881,-0.26414 -5.67187,-0.79297 -1.92306,-0.52884 -3.88803,-1.31487 -5.89258,-2.35742 l 0,4.71289 c 2.08604,0.71015 4.0997,1.24675 6.03906,1.60938 1.95566,0.36262 3.7979,0.54492 5.52539,0.54492 4.57951,0 8.05098,-0.8468 10.41406,-2.53906 2.37939,-1.69227 3.56836,-4.17827 3.56836,-7.45704 0,-2.74992 -0.88053,-4.94043 -2.64062,-6.57226 -1.7438,-1.64694 -4.45747,-2.79561 -8.14063,-3.44531 l -2.98242,-0.56641 c -2.70533,-0.46839 -4.54561,-1.08046 -5.52344,-1.83594 -0.96153,-0.77058 -1.44336,-1.9026 -1.44336,-3.39843 0,-1.78293 0.72533,-3.158 2.17578,-4.125 1.46674,-0.96701 3.54535,-1.45118 6.23438,-1.45118 1.54823,0 3.15213,0.20533 4.81445,0.61328 1.66231,0.40796 3.43052,1.02641 5.30469,1.85743 l 0,-4.46485 c -1.85787,-0.57416 -3.67478,-1.00393 -5.45117,-1.29101 -1.77639,-0.28709 -3.51927,-0.43164 -5.23047,-0.43164 z m 290.2207,0 c -5.70401,0 -10.16965,1.54903 -13.39648,4.64648 -3.21054,3.08234 -4.81641,7.38788 -4.81641,12.91797 0,5.51497 1.60587,9.82247 4.81641,12.91992 3.22683,3.08233 7.69247,4.62305 13.39648,4.62305 2.60754,0 5.05953,-0.31658 7.35742,-0.95117 2.29791,-0.64972 4.40183,-1.60334 6.3086,-2.85743 l 0,-14.52734 -12.95703,0 0,3.76172 8.0664,0 0,9.08984 c -1.0919,0.58926 -2.32244,1.02737 -3.6914,1.31446 -1.36897,0.27197 -2.92418,0.4082 -4.66797,0.4082 -4.46543,0 -7.82326,-1.157 -10.07227,-3.46875 -2.23271,-2.31176 -3.34961,-5.74943 -3.34961,-10.3125 0,-4.57819 1.1169,-8.02222 3.34961,-10.33398 2.24901,-2.31175 5.60684,-3.46876 10.07227,-3.46876 2.2653,10e-6 4.42507,0.36264 6.47851,1.0879 2.05345,0.72525 3.99113,1.80678 5.81641,3.24218 l 0,-4.87304 c -1.80899,-1.05767 -3.78823,-1.85841 -5.93945,-2.40235 -2.13493,-0.54394 -4.3921,-0.8164 -6.77149,-0.8164 z m 136.37305,0 c -5.13361,0 -9.24015,1.59509 -12.32031,4.7832 -3.06388,3.17301 -4.59571,7.43248 -4.59571,12.78125 0,5.34876 1.53183,9.6102 4.59571,12.7832 3.08016,3.173 7.1867,4.75977 12.32031,4.75977 5.11731,0 9.20762,-1.58677 12.27148,-4.75977 3.06388,-3.1881 4.59571,-7.44955 4.59571,-12.7832 0,-5.34877 -1.53183,-9.60824 -4.59571,-12.78125 -3.06386,-3.18811 -7.15417,-4.7832 -12.27148,-4.7832 z m -450.89063,0.61132 0,33.83789 4.9375,0 0,-33.83789 -4.9375,0 z m 38.1543,0 0,3.85352 12.95703,0 0,29.98437 4.96289,0 0,-29.98437 12.95508,0 0,-3.85352 -30.875,0 z m 34.00196,0 0,33.83789 23.51757,0 0,-3.85156 -18.58007,0 0,-12.26172 17.38281,0 0,-3.85351 -17.38281,0 0,-10.01758 18.14062,0 0,-3.85352 -23.07812,0 z m 30.01757,0 0,33.83789 4.79102,0 0,-29.71289 9.41211,23.20899 4.96289,0 9.41015,-23.20899 0,29.71289 4.81641,0 0,-33.83789 -7.35742,0 -9.36328,23.02735 -9.31445,-23.02735 -7.35743,0 z m 50.9668,0 -13.93359,33.83789 5.20703,0 3.32422,-8.67968 16.45117,0 3.32617,8.67968 5.13281,0 -13.91015,-33.83789 -5.59766,0 z m 37.42187,0 0,33.83789 4.9375,0 0,-33.83789 -4.9375,0 z m 13.09961,0 0,33.83789 4.79297,0 0,-28.30664 16.18164,28.30664 6.65039,0 0,-33.83789 -4.79101,0 0,28.3086 -16.1836,-28.3086 -6.65039,0 z m 30.72657,0 0,3.85352 12.95703,0 0,29.98437 4.96289,0 0,-29.98437 12.95508,0 0,-3.85352 -30.875,0 z m 34.00195,0 0,33.83789 23.51758,0 0,-3.85156 -18.58008,0 0,-12.26172 17.38086,0 0,-3.85351 -17.38086,0 0,-10.01758 18.13867,0 0,-3.85352 -23.07617,0 z m 67.17187,0 0,33.83789 4.9375,0 0,-14.30078 5.37891,0 c 1.95566,0 3.49659,0.37097 4.62109,1.11133 1.14081,0.74036 2.31354,2.24333 3.51954,4.50977 l 4.66992,8.67968 5.30469,0 3.3457,0 3.32422,-8.67968 16.45312,0 3.32422,8.67968 5.13281,0 -13.9082,-33.83789 -5.59961,0 -13.13086,31.88672 -3.95312,-7.29492 c -1.01042,-1.90379 -2.02083,-3.40039 -3.03125,-4.48828 -0.99413,-1.08789 -2.02077,-1.79845 -3.08008,-2.13086 2.03715,-0.54394 3.58522,-1.51669 4.64453,-2.92187 1.07561,-1.40518 1.61328,-3.17425 1.61328,-5.30469 0,-3.26366 -1.02664,-5.70359 -3.08008,-7.32031 -2.05344,-1.61672 -5.16581,-2.42579 -9.33789,-2.42579 l -11.14844,0 z m 63.65235,0 0,33.83789 10.14453,0 c 7.04038,10e-6 12.22421,-1.36674 15.54883,-4.10156 3.32462,-2.73482 4.98633,-7.01929 4.98633,-12.85156 0,-5.80205 -1.65457,-10.06154 -4.96289,-12.78125 -3.30833,-2.73482 -8.4993,-4.10352 -15.57227,-4.10352 l -10.14453,0 z m 51.67578,3.10547 c 3.58537,0 6.42177,1.23884 8.50781,3.7168 2.10234,2.47796 3.15235,5.85487 3.15235,10.13086 0,4.26088 -1.05001,7.63142 -3.15235,10.10937 -2.08604,2.47796 -4.92244,3.7168 -8.50781,3.7168 -3.58538,0 -6.43801,-1.23884 -8.55664,-3.7168 -2.10233,-2.47795 -3.15234,-5.84849 -3.15234,-10.10937 0,-4.27599 1.05001,-7.6529 3.15234,-10.13086 2.11863,-2.47796 4.97126,-3.7168 8.55664,-3.7168 z m -110.39063,0.65821 6.21094,0 c 2.37939,0 4.17097,0.50524 5.37696,1.51757 1.22229,0.99724 1.83398,2.4855 1.83398,4.46485 0,1.97934 -0.61169,3.48232 -1.83398,4.50976 -1.20599,1.01234 -2.99757,1.51953 -5.37696,1.51953 l -6.21094,0 0,-12.01171 z m 63.65235,0 5.96484,0 c 5.03582,0 8.72029,1.05654 11.05078,3.17187 2.3468,2.10022 3.51953,5.41637 3.51953,9.94922 10e-6,4.56307 -1.17273,7.90419 -3.51953,10.01953 -2.33049,2.11533 -6.01496,3.17188 -11.05078,3.17188 l -5.96484,0 0,-26.3125 z m -248.22461,0.74804 6.72266,16.83985 -13.42188,0 6.69922,-16.83985 z m 222.92578,0 6.72266,16.83985 -13.41992,0 6.69726,-16.83985 z m 14.57031,31.38672 -3.50195,4.21485 2.73438,0 4.07421,-4.21485 -3.30664,0 z m -385.88867,6.05078 c -3.75311,0 -6.75596,1.12165 -9.00781,3.36719 -2.23995,2.23489 -3.35938,5.23652 -3.35938,9.00391 0,3.76738 1.11943,6.769 3.35938,9.0039 2.25185,2.23489 5.2547,3.35157 9.00781,3.35157 3.74118,0 6.73076,-1.11668 8.9707,-3.35157 2.23995,-2.24554 3.36133,-5.24716 3.36133,-9.0039 0,-3.76739 -1.12138,-6.76902 -3.36133,-9.00391 -2.23994,-2.24554 -5.22952,-3.36719 -8.9707,-3.36719 z m 67.98438,0 c -3.7531,0 -6.75596,1.12165 -9.00782,3.36719 -2.23994,2.23489 -3.35937,5.23652 -3.35937,9.00391 0,3.76738 1.11943,6.769 3.35937,9.0039 2.25186,2.23489 5.25472,3.35157 9.00782,3.35157 3.74118,0 6.73075,-1.11668 8.9707,-3.35157 2.23995,-2.24554 3.36133,-5.24716 3.36133,-9.0039 0,-3.76739 -1.12138,-6.76902 -3.36133,-9.00391 -2.23995,-2.24554 -5.22952,-3.36719 -8.9707,-3.36719 z m 26.16406,0 c -2.91907,0 -5.21281,0.60514 -6.88086,1.81836 -1.65613,1.21323 -2.48438,2.87328 -2.48438,4.98047 0,1.81983 0.60327,3.242 1.80664,4.26367 1.20338,1.02166 3.15106,1.7711 5.84376,2.25 l 2.19726,0.38282 c 1.83485,0.32991 3.15094,0.82454 3.94922,1.48437 0.81019,0.65982 1.2168,1.57543 1.2168,2.74609 0,1.34094 -0.55972,2.37398 -1.67969,3.09766 -1.11997,0.72367 -2.71221,1.08594 -4.77344,1.08594 -1.35826,0 -2.7386,-0.18807 -4.14453,-0.56055 -1.40592,-0.37248 -2.8431,-0.92583 -4.30859,-1.66016 l 0,3.32227 c 1.52507,0.50019 2.99623,0.87739 4.41406,1.13281 1.42975,0.25542 2.77611,0.38282 4.03906,0.38282 3.34801,0 5.88567,-0.59517 7.61328,-1.78711 1.73953,-1.19194 2.60938,-2.94256 2.60938,-5.25196 0,-1.9369 -0.64292,-3.48148 -1.92969,-4.63086 -1.27486,-1.16001 -3.25847,-1.96816 -5.95117,-2.42578 l -2.17969,-0.39843 c -1.97782,-0.32992 -3.32419,-0.76085 -4.03906,-1.29297 -0.70297,-0.54276 -1.05469,-1.34094 -1.05469,-2.39453 0,-1.2558 0.52944,-2.22514 1.58984,-2.90626 1.07232,-0.6811 2.59268,-1.02148 4.5586,-1.02148 1.13188,0 2.30424,0.1443 3.51953,0.43164 1.21529,0.28734 2.50873,0.72326 3.87891,1.3086 l 0,-3.14454 c -1.35827,-0.40441 -2.68764,-0.70795 -3.98633,-0.91015 -1.29869,-0.20221 -2.57319,-0.30274 -3.82422,-0.30274 z m 353.93555,0 c -3.7531,0 -6.75596,1.12165 -9.00782,3.36719 -2.23994,2.23489 -3.35937,5.23652 -3.35937,9.00391 0,3.76738 1.11943,6.769 3.35937,9.0039 2.25186,2.23489 5.25472,3.35157 9.00782,3.35157 3.74118,0 6.73076,-1.11668 8.9707,-3.35157 2.23995,-2.24554 3.36133,-5.24716 3.36133,-9.0039 0,-3.76739 -1.12138,-6.76902 -3.36133,-9.00391 -2.23994,-2.24554 -5.22952,-3.36719 -8.9707,-3.36719 z m -487.08008,0.42969 0,23.83398 7.41601,0 c 5.14711,10e-6 8.93662,-0.96241 11.36719,-2.88867 2.43058,-1.92626 3.64453,-4.94478 3.64453,-9.05273 0,-4.08666 -1.20829,-7.08633 -3.62695,-9.00195 -2.41867,-1.92627 -6.21383,-2.89063 -11.38477,-2.89063 l -7.41601,0 z m 68.62695,0 0,23.83398 3.61133,0 0,-11.3496 13.11719,0 0,11.3496 3.60937,0 0,-23.83398 -3.60937,0 0,9.76953 -13.11719,0 0,-9.76953 -3.61133,0 z m 79.56641,0 0,23.83398 3.60937,0 0,-9.57812 4.53906,0 c 2.99058,0 5.24838,-0.60211 6.77344,-1.80469 1.53698,-1.20258 2.30664,-2.98007 2.30664,-5.33203 0,-2.33067 -0.76966,-4.09624 -2.30664,-5.29883 -1.52506,-1.21322 -3.78286,-1.82031 -6.77344,-1.82031 l -8.14843,0 z m 22.08984,0 0,23.83398 3.60938,0 0,-23.83398 -3.60938,0 z m 7.09375,0 0,2.71484 9.47266,0 0,21.11914 3.6289,0 0,-21.11914 9.47071,0 0,-2.71484 -22.57227,0 z m 30.09766,0 -10.1875,23.83398 3.80664,0 2.42968,-6.11328 12.0293,0 2.42969,6.11328 3.75391,0 -10.16993,-23.83398 -4.09179,0 z m 18.13867,0 0,23.83398 16.60351,0 0,-2.71484 -12.99218,0 0,-21.11914 -3.61133,0 z m 28.7207,0 10.1875,23.83398 4.0918,0 10.16992,-23.83398 -3.75391,0 -8.4707,20.06641 -8.45312,-20.06641 -3.77149,0 z m 28.32617,0 0,23.83398 17.19336,0 0,-2.71484 -13.58203,0 0,-8.63476 12.70703,0 0,-2.71485 -12.70703,0 0,-7.05469 13.25977,0 0,-2.71484 -16.8711,0 z m 19.46289,0 0,2.71484 9.47266,0 0,21.11914 3.62891,0 0,-21.11914 9.4707,0 0,-2.71484 -22.57227,0 z m 26.07618,0 0,23.83398 17.1914,0 0,-2.71484 -13.58203,0 0,-8.63476 12.70703,0 0,-2.71485 -12.70703,0 0,-7.05469 13.26172,0 0,-2.71484 -16.87109,0 z m 23.16211,0 0,23.83398 3.60937,0 0,-10.07226 3.93164,0 c 1.42975,0 2.55679,0.25977 3.37891,0.78125 0.83402,0.52147 1.69058,1.58138 2.57226,3.17773 l 3.41407,6.11328 3.8789,0 -3.66406,-6.51367 c -0.7387,-1.34094 -1.47809,-2.39391 -2.2168,-3.16015 -0.72679,-0.76625 -1.4775,-1.26588 -2.25195,-1.5 1.48933,-0.38313 2.62204,-1.07081 3.39648,-2.06055 0.78636,-0.98974 1.17969,-2.23381 1.17969,-3.73437 0,-2.29875 -0.75071,-4.01752 -2.25195,-5.15626 -1.50124,-1.13873 -3.778,-1.70898 -6.82813,-1.70898 l -8.14843,0 z m 25.44921,0 0,23.83398 3.60938,0 0,-23.83398 -3.60938,0 z m 10.79493,0 0,23.83398 3.50195,0 0,-19.93945 11.83203,19.93945 4.86133,0 0,-23.83398 -3.50391,0 0,19.93945 -11.83008,-19.93945 -4.86132,0 z m 34.25976,0 -10.1875,23.83398 3.80664,0 2.43164,-6.11328 12.02735,0 2.42968,6.11328 3.75391,0 -10.16992,-23.83398 -4.0918,0 z m 18.14063,0 0,23.83398 3.60937,0 0,-10.07226 3.93164,0 c 1.42975,0 2.5568,0.25977 3.37891,0.78125 0.83403,0.52147 1.69058,1.58138 2.57226,3.17773 l 3.41407,6.11328 3.8789,0 -3.66406,-6.51367 c -0.73871,-1.34094 -1.4781,-2.39391 -2.2168,-3.16015 -0.72679,-0.76625 -1.4775,-1.26588 -2.25195,-1.5 1.48933,-0.38313 2.62204,-1.07081 3.39649,-2.06055 0.78635,-0.98974 1.17968,-2.23381 1.17968,-3.73437 0,-2.29875 -0.75071,-4.01752 -2.25195,-5.15626 -1.50124,-1.13873 -3.778,-1.70898 -6.82813,-1.70898 l -8.14843,0 z m 25.44922,0 0,23.83398 3.60937,0 0,-23.83398 -3.60937,0 z m -426.45899,2.1875 c 2.62121,0 4.69368,0.87184 6.21875,2.61719 1.53698,1.74534 2.30664,4.12494 2.30664,7.13672 0,3.00114 -0.76966,5.3738 -2.30664,7.11914 -1.52507,1.74534 -3.59754,2.61914 -6.21875,2.61914 -2.62121,0 -4.70696,-0.8738 -6.25586,-2.61914 -1.53698,-1.74534 -2.30469,-4.118 -2.30469,-7.11914 0,-3.01178 0.76771,-5.39138 2.30469,-7.13672 1.5489,-1.74535 3.63465,-2.61719 6.25586,-2.61719 z m 67.98438,0 c 2.62121,0 4.69368,0.87184 6.21875,2.61719 1.53698,1.74534 2.30664,4.12494 2.30664,7.13672 0,3.00114 -0.76966,5.3738 -2.30664,7.11914 -1.52507,1.74534 -3.59754,2.61914 -6.21875,2.61914 -2.62121,0 -4.70696,-0.8738 -6.25586,-2.61914 -1.53698,-1.74534 -2.30469,-4.118 -2.30469,-7.11914 0,-3.01178 0.76771,-5.39138 2.30469,-7.13672 1.5489,-1.74535 3.63465,-2.61719 6.25586,-2.61719 z m 380.09961,0 c 2.62121,0 4.69368,0.87184 6.21875,2.61719 1.53698,1.74534 2.30664,4.12494 2.30664,7.13672 0,3.00114 -0.76966,5.3738 -2.30664,7.11914 -1.52507,1.74534 -3.59754,2.61914 -6.21875,2.61914 -2.62121,0 -4.70696,-0.8738 -6.25586,-2.61914 -1.53698,-1.74534 -2.30469,-4.118 -2.30469,-7.11914 0,-3.01178 0.76771,-5.39138 2.30469,-7.13672 1.5489,-1.74535 3.63465,-2.61719 6.25586,-2.61719 z m -483.47071,0.46289 4.36133,0 c 3.68161,0 6.37434,0.74445 8.07813,2.23438 1.7157,1.47928 2.57226,3.81511 2.57226,7.00781 0,3.21399 -0.85656,5.56671 -2.57226,7.05664 -1.70379,1.48993 -4.39652,2.23437 -8.07813,2.23437 l -4.36133,0 0,-18.5332 z m 148.19336,0 4.53906,0 c 1.67996,0 2.97906,0.38912 3.89649,1.16602 0.91742,0.77688 1.37695,1.87666 1.37695,3.30273 0,1.43671 -0.45953,2.54537 -1.37695,3.32227 -0.91743,0.77688 -2.21653,1.16406 -3.89649,1.16406 l -4.53906,0 0,-8.95508 z m 203.16797,0 4.53906,0 c 1.73953,0 3.04996,0.35728 3.93164,1.07031 0.8936,0.7024 1.3418,1.75038 1.3418,3.14454 0,1.39414 -0.4482,2.4521 -1.3418,3.17578 -0.88168,0.71303 -2.19211,1.07031 -3.93164,1.07031 l -4.53906,0 0,-8.46094 z m 88.64453,0 4.53906,0 c 1.73953,0 3.04996,0.35728 3.93164,1.07031 0.8936,0.7024 1.3418,1.75038 1.3418,3.14454 0,1.39414 -0.4482,2.4521 -1.3418,3.17578 -0.88168,0.71303 -2.19211,1.07031 -3.93164,1.07031 l -4.53906,0 0,-8.46094 z m -234.10351,0.52735 4.91406,11.85937 -9.81055,0 4.89649,-11.85937 z m 214.39062,0 4.91602,11.85937 -9.8125,0 4.89648,-11.85937 z"
     id="path4249"
     inkscape:connector-curvature="0" /></svg>