<?xml version="1.0" encoding="UTF-8" standalone="no"?>
<!-- Generator: Adobe Illustrator 19.0.0, SVG Export Plug-In . SVG Version: 6.00 Build 0)  -->

<svg
   xmlns:dc="http://purl.org/dc/elements/1.1/"
   xmlns:cc="http://creativecommons.org/ns#"
   xmlns:rdf="http://www.w3.org/1999/02/22-rdf-syntax-ns#"
   xmlns:svg="http://www.w3.org/2000/svg"
   xmlns="http://www.w3.org/2000/svg"
   xmlns:sodipodi="http://sodipodi.sourceforge.net/DTD/sodipodi-0.dtd"
   xmlns:inkscape="http://www.inkscape.org/namespaces/inkscape"
   version="1.1"
   id="Camada_1"
   x="0px"
   y="0px"
   viewBox="-72 90 451 166"
   xml:space="preserve"
   inkscape:version="0.91 r13725"
   sodipodi:docname="veterinaria_flat _II_nome.svg"
   width="451"
   height="166"><metadata
     id="metadata27"><rdf:RDF><cc:Work
         rdf:about=""><dc:format>image/svg+xml</dc:format><dc:type
           rdf:resource="http://purl.org/dc/dcmitype/StillImage" /><dc:title></dc:title></cc:Work></rdf:RDF></metadata><defs
     id="defs25" /><sodipodi:namedview
     pagecolor="#ffffff"
     bordercolor="#666666"
     borderopacity="1"
     objecttolerance="10"
     gridtolerance="10"
     guidetolerance="10"
     inkscape:pageopacity="0"
     inkscape:pageshadow="2"
     inkscape:window-width="1319"
     inkscape:window-height="744"
     id="namedview23"
     showgrid="false"
     showguides="true"
     inkscape:guide-bbox="true"
     inkscape:zoom="1.0871479"
     inkscape:cx="363.32459"
     inkscape:cy="99.002179"
     inkscape:window-x="47"
     inkscape:window-y="24"
     inkscape:window-maximized="1"
     inkscape:current-layer="Camada_1" /><style
     type="text/css"
     id="style3">
	.st0{fill:#1ABC9C;stroke:#1ABC9C;stroke-miterlimit:10;}
	.st1{display:none;opacity:0.29;fill:#33794C;stroke:#36985B;stroke-miterlimit:10;enable-background:new    ;}
	.st2{display:none;}
	.st3{opacity:0.3;fill:url(#XMLID_3_);enable-background:new    ;}
	.st4{fill:#EBEFF0;}
	.st5{fill:#EBEFF0;stroke:#EBEFF0;stroke-miterlimit:10;}
	.st6{fill:#EBEFF0;stroke:#EBEFF0;stroke-linejoin:bevel;stroke-miterlimit:10;}
</style><g
     id="g4155"
     transform="matrix(0.28493924,0,0,0.28493924,-49.765644,65.895699)"><g
       id="Camada_1_1_"><polygon
         style="fill:#1abc9c;stroke:#1abc9c;stroke-miterlimit:10"
         points="368.2,239.9 367.5,523.8 160.3,665.3 -46.2,522.8 -45.5,238.8 161.7,97.3 "
         class="st0"
         id="XMLID_1_" /><polygon
         style="display:none;opacity:0.28999999;fill:#33794c;stroke:#36985b;stroke-miterlimit:10;enable-background:new"
         points="160.3,665.3 161,97.3 -45.5,238.8 -46.2,522.8 "
         class="st1"
         id="XMLID_4_" /><g
         style="display:none"
         class="st2"
         id="Camada_3" /><linearGradient
         gradientTransform="translate(0,12)"
         y2="159.0325"
         x2="178.35001"
         y1="2131.1211"
         x1="178.35001"
         gradientUnits="userSpaceOnUse"
         id="XMLID_3_"><stop
           id="stop10"
           style="stop-color:#FFFFFF;stop-opacity:0"
           offset="0" /><stop
           id="stop12"
           style="stop-color:#CDCED3;stop-opacity:0.2513"
           offset="0.2513" /><stop
           id="stop14"
           style="stop-color:#000000"
           offset="1" /></linearGradient><path
         style="opacity:0.3;fill:url(#XMLID_3_);enable-background:new"
         inkscape:connector-curvature="0"
         d="m 335.3,265.8 c -1.5,-1.5 -3.2,-2.8 -5.1,-3.8 -6.2,-3.1 -12.4,-5.9 -18.7,-8.4 l -54.8,-55.9 c 0,0 -2.7,-2.3 -5.4,-3.5 l -35.9,-36.6 c -1,0.4 -34.2,-35.9 -103.2,-9 -60.3,27.6 -39.1,85.6 -37.8,92 1.7,6.8 26,38.8 32.5,40 l 53.8,55 0,55 -10.4,4.8 -139,-142.2 -22.7,10.3 161.3,353 32.5,33.5 130.2,-88.5 0,0 41.3,-28.4 0,0 13.7,-9.3 0.5,-210.4 0,0 0,-2 0,-12 -32.8,-33.6 z"
         class="st3"
         id="XMLID_5_" /><polygon
         style="fill:#ebeff0"
         id="polygon17"
         points="161.4,581.5 310.6,253.3 333.4,263.6 172.8,616.9 149.9,616.9 -11.4,263.5 11.3,253.2 "
         class="st4" /><path
         style="fill:#ebeff0;stroke:#ebeff0;stroke-miterlimit:10"
         inkscape:connector-curvature="0"
         d="m 159.3,560.9 c 3,-136.4 3.3,-263.5 -3.2,-368 l 15.5,4.4 0.1,14.5 3.1,-13.9 4.8,1.4 c 3.6,101.6 -1.4,216.5 -11,338.3 l -9.3,23.3 z"
         class="st5"
         id="XMLID_22_" /><path
         style="fill:#ebeff0;stroke:#ebeff0;stroke-linejoin:bevel;stroke-miterlimit:10"
         inkscape:connector-curvature="0"
         d="m 257.4,199.2 c -4.2,-4.6 -19.5,-9.6 -20.5,-11.9 -8.8,0.9 -13.4,11.9 -13.4,11.9 0,0 1,14.3 6.9,20 6,5.8 21,18.1 26.6,16.8 5.6,-1.3 8.3,-3.5 8.3,-6.2 0,-2.7 -3.7,-26 -7.9,-30.6 z m -21.3,12 c 0,0 11.8,-1 11.8,9.9 -6,-0.1 -10.3,-3 -11.8,-9.9 z m 22.8,6.3 c -2.3,-3.9 -3.7,-9.1 0,-12.6 0,0 6.1,8.8 0,12.6 z"
         class="st6"
         id="XMLID_18_" /><g
         id="XMLID_15_"><path
           style="fill:#ebeff0"
           inkscape:connector-curvature="0"
           d="m 185.3,523.9 c -1.1,-4.7 -2.6,-9.1 -5,-13.1 -2.3,-3.9 -5.5,-7.2 -9.2,-9.7 -3.7,-2.5 -7.8,-4.4 -12.1,-5.9 -4.3,-1.6 -8.8,-2.9 -13.4,-4.3 -4.6,-1.5 -9.3,-3.2 -13.9,-5.6 -4.6,-2.4 -9.1,-5.7 -12.7,-10.1 -3.6,-4.3 -6,-9.5 -7.5,-14.8 l -1,-3.9 -0.6,-3.9 c -0.2,-1.3 -0.3,-2.6 -0.4,-3.9 l -0.1,-2 0,-0.5 0,-0.2 c 0,-0.1 0,0.1 0,-0.3 l 0,-0.1 0,-0.9 c 0,-0.6 0,-1.1 0,-1.8 l 0.1,-2.2 c 0,-0.8 0.1,-1.4 0.2,-2.1 0.1,-0.7 0.2,-1.4 0.3,-2.1 0.5,-2.8 1.3,-5.6 2.4,-8.3 2.1,-5.4 5.5,-10.2 9.3,-14.2 1.9,-2 4,-3.8 6.1,-5.5 2.1,-1.7 4.3,-3.2 6.5,-4.6 4.4,-2.8 8.9,-5.2 13.3,-7.3 8.9,-4.3 17.8,-7.8 26.3,-11.5 8.4,-3.7 16.5,-7.6 22.9,-12.5 3.2,-2.4 5.9,-5.1 7.9,-7.9 2.1,-2.8 3.4,-5.9 4.1,-9.2 0.3,-1.7 0.6,-3.4 0.6,-5.2 0,-0.4 0,-0.9 0,-1.4 l 0,-0.7 0,-0.3 0,-0.1 c 0.1,1 0,0.2 0,0.4 l 0,-0.2 -0.1,-1.8 -0.1,-0.9 0,-0.4 0,-0.4 c -0.1,-0.9 -0.2,-1.8 -0.4,-2.8 -0.2,-1 -0.3,-2 -0.6,-2.9 l -0.3,-1.4 -0.4,-1.4 c -0.2,-0.9 -0.6,-1.8 -0.9,-2.7 -2.6,-7 -6.9,-12.4 -13.3,-16.6 -6.4,-4.3 -14.6,-7.3 -23.2,-10.1 -8.7,-2.8 -17.9,-5.3 -27.3,-8.5 -9.4,-3.2 -18.9,-7 -28,-12.4 -9.1,-5.3 -17.6,-12.1 -24.6,-20.3 -7,-8.2 -12.5,-17.5 -16.6,-27.1 l -0.1,-0.2 c -0.1,-0.3 -0.2,-0.6 -0.3,-0.8 l -1.1,-3.8 -0.5,-1.9 c -0.2,-0.6 -0.3,-1.3 -0.4,-2 l -0.9,-4.2 -0.6,-4 c -0.7,-5.4 -1,-11 -0.5,-16.7 0.5,-5.7 1.7,-11.3 3.7,-16.8 2,-5.5 4.8,-10.6 8.3,-15.2 3.4,-4.6 7.4,-8.7 11.7,-12.2 4.3,-3.5 8.9,-6.6 13.7,-9 4.8,-2.5 9.7,-4.6 14.7,-6.3 5,-1.7 10,-3 15.1,-4 5.1,-1 10.2,-1.7 15.3,-2.1 2.6,-0.2 5.1,-0.3 7.7,-0.4 l 3.8,0 1,0 0.5,0 0.5,0 0.2,0 1.8,0.1 c 2.1,0 5.3,0.3 8.1,0.7 l 4,0.7 c 1.3,0.3 2.7,0.6 4,0.9 5.3,1.3 10.5,3.2 15.4,5.7 9.8,4.9 18.4,11.9 25.3,19.9 3.4,4 6.5,8.3 9.2,12.8 1.4,2.2 2.6,4.6 3.8,6.9 0.6,1.2 1.1,2.4 1.7,3.6 0.3,0.6 0.5,1.2 0.8,1.9 l 0.4,1 0.4,1.2 -16.9,6.1 -0.5,-1.2 c -0.2,-0.4 -0.4,-0.9 -0.7,-1.4 -0.5,-0.9 -1,-1.9 -1.5,-2.8 -1,-1.8 -2.1,-3.7 -3.3,-5.4 -2.3,-3.5 -5,-6.9 -7.8,-10 -5.7,-6.1 -12.3,-11.2 -19.6,-14.5 -3.7,-1.7 -7.5,-2.9 -11.4,-3.8 -1,-0.2 -2,-0.4 -3,-0.6 l -3,-0.4 c -2,-0.1 -3.5,-0.4 -6.1,-0.4 l -1.8,0 -0.2,0 -0.1,0 -0.1,0 c -0.1,0 0.6,0 0.3,0 l -0.4,0 -0.8,0 -3.3,0.1 c -2.2,0.1 -4.4,0.3 -6.5,0.5 -4.3,0.5 -8.6,1.1 -12.9,2 -4.2,1 -8.4,2 -12.3,3.5 -4,1.4 -7.8,3.1 -11.4,5.1 -7.2,3.9 -13.4,9 -17.8,15.1 -2.2,3 -3.9,6.3 -5.2,9.8 -1.3,3.5 -2,7.1 -2.4,10.9 -0.4,3.8 -0.1,7.8 0.4,11.7 l 0.5,3 0.7,3 c 0.1,0.5 0.2,1 0.3,1.5 l 0.4,1.5 0.8,3 -0.4,-1.1 c 3.4,7.8 7.7,15 13,21.2 2.7,3.1 5.6,6 8.7,8.6 3.2,2.6 6.6,5 10.2,7.2 7.2,4.3 15.3,7.7 23.8,10.7 8.5,3 17.6,5.6 26.9,8.6 4.7,1.6 9.4,3.2 14.2,5.3 4.8,2.1 9.6,4.6 14.3,7.8 4.6,3.2 9.1,7.2 12.7,11.9 1.8,2.4 3.5,4.9 4.8,7.5 1.4,2.6 2.5,5.3 3.5,8 0.4,1.4 0.9,2.7 1.2,4.1 0.2,0.7 0.4,1.4 0.5,2 l 0.4,2 c 0.3,1.4 0.5,2.7 0.7,4.1 0.2,1.3 0.3,2.8 0.5,4.2 l 0.1,0.5 0,0.4 0.1,0.9 0.1,1.8 0,0.2 0,0.7 0,0.1 0,0.5 0,1.1 c 0,0.7 0,1.4 -0.1,2.2 -0.2,2.9 -0.6,5.9 -1.3,8.8 -1.4,5.9 -4.2,11.6 -7.8,16.4 -3.6,4.8 -7.9,8.7 -12.3,11.9 -4.4,3.2 -9,5.7 -13.6,8 -4.6,2.2 -9.1,4.2 -13.7,6 -9.1,3.6 -17.9,6.6 -26.3,10.2 -8.3,3.5 -16.1,7.5 -22,12.8 -5.8,5.3 -9.2,11.9 -9.8,20 l -0.1,0.9 0,0.1 c 0,-0.4 0,0 0,-0.1 l 0,0.2 0,0.4 0,1.6 c 0,1.1 -0.1,2.2 0,3.2 l 0.2,3.1 0.5,3 c 0.7,4 2.1,7.6 4.2,10.9 4.2,6.6 12.1,10.9 20.6,14.8 4.2,2 8.7,3.9 13,6.1 4.3,2.2 8.7,4.8 12.4,8.3 3.7,3.4 6.7,7.6 8.6,12.2 1.9,4.6 2.7,9.5 2.8,14.2 z"
           class="st4"
           id="XMLID_17_" /></g></g></g><path
     style="font-style:normal;font-variant:normal;font-weight:normal;font-stretch:normal;font-size:medium;line-height:125%;font-family:mry_KacstQurn;-inkscape-font-specification:mry_KacstQurn;letter-spacing:-1.7682991px;word-spacing:0px;baseline-shift:baseline;fill:#1abc9c;fill-opacity:1;stroke:none;stroke-width:1px;stroke-linecap:butt;stroke-linejoin:miter;stroke-opacity:1"
     d="m 108.6411,92.13606 c -11.012126,0 -19.666471,2.83461 -25.959094,8.50383 -6.247676,5.66925 -9.369123,13.42713 -9.369123,23.27364 0,8.50387 2.270814,15.1428 6.810515,19.91688 4.539651,4.77409 11.884716,8.28005 22.042832,10.51792 l 8.29497,1.79025 c 6.92188,1.54166 11.8926,3.85412 14.90407,6.93738 3.05645,3.08326 4.58015,7.36002 4.58015,12.83032 0,6.26601 -2.10804,11.08982 -6.3331,14.47144 -4.22507,3.38163 -10.23136,5.07248 -18.00726,5.07248 -5.12403,0 -10.338793,-0.87025 -15.642583,-2.61087 -5.303825,-1.74051 -10.718265,-4.32649 -16.246817,-7.75787 l 0,15.51577 c 5.753264,2.33734 11.308353,4.10273 16.657084,5.29624 5.393732,1.19353 10.467906,1.79029 15.232316,1.79029 12.63023,0 22.20918,-2.78485 28.72655,-8.35465 6.56231,-5.56976 9.83909,-13.75034 9.83909,-24.54175 0,-9.05087 -2.42615,-16.26173 -7.28047,-21.63257 -4.80933,-5.42057 -12.29504,-9.20006 -22.45312,-11.33844 l -8.22037,-1.86486 c -7.461231,-1.54165 -12.542891,-3.55574 -15.239749,-6.04221 -2.651908,-2.53627 -3.97593,-6.26601 -3.97593,-11.18925 0,-5.86816 1.99712,-10.39361 5.997431,-13.57633 4.045277,-3.1827 9.777818,-4.77406 17.194138,-4.77406 4.27002,0 8.6933,0.67139 13.27796,2.01404 4.58459,1.34273 9.46657,3.38165 14.63554,6.11682 l 0,-14.69523 c -5.12401,-1.88974 -10.13912,-3.30703 -15.03837,-4.25193 -4.89927,-0.94484 -9.70723,-1.41728 -14.42666,-1.41728 z m 50.35164,2.01406 0,111.3704 13.61358,0 0,-111.3704 -13.61358,0 z m 34.29882,0 0,111.3704 13.62102,0 0,-53.03708 49.48639,0 0,53.03708 13.61358,0 0,-111.3704 -13.61358,0 0,45.65214 -49.48639,0 0,-45.65214 -13.62102,0 z m 84.93389,0 38.43138,111.3704 15.44116,0 38.35677,-111.3704 -14.15816,0 -31.95648,93.76596 -31.88939,-93.76596 -14.22528,0 z"
     id="path4176"
     inkscape:connector-curvature="0" /><path
     style="font-style:normal;font-weight:normal;font-size:medium;line-height:125%;font-family:sans-serif;letter-spacing:-1.60285473px;word-spacing:0px;fill:#1abc9c;fill-opacity:1;stroke:none;stroke-width:1px;stroke-linecap:butt;stroke-linejoin:miter;stroke-opacity:1"
     d="m 80.478073,215.33801 c -2.375468,0 -4.242196,0.51253 -5.5996,1.5373 -1.347707,1.02477 -2.021851,2.42652 -2.021851,4.20637 0,1.53715 0.489477,2.73803 1.468746,3.601 0.979275,0.86295 2.564759,1.49648 4.755995,1.901 l 1.788292,0.32303 c 1.493152,0.27867 2.565586,0.69761 3.21521,1.25493 0.659307,0.55734 0.988843,1.33052 0.988843,2.31932 0,1.13264 -0.456254,2.00436 -1.367654,2.61563 -0.9114,0.61126 -2.205982,0.9168 -3.883345,0.9168 -1.105315,0 -2.22913,-0.15714 -3.373238,-0.47176 -1.144096,-0.31463 -2.31312,-0.78227 -3.505704,-1.40251 l 0,2.80386 c 1.241059,0.42249 2.439056,0.74174 3.592856,0.95747 1.163491,0.21574 2.258333,0.3242 3.286086,0.3242 2.724501,0 4.789808,-0.50379 6.195695,-1.51058 1.415577,-1.00679 2.124099,-2.4858 2.124099,-4.43645 0,-1.63602 -0.523857,-2.93924 -1.571003,-3.91007 -1.037438,-0.97982 -2.6519,-1.66321 -4.84314,-2.04974 l -1.774344,-0.33697 c -1.609498,-0.27867 -2.705511,-0.64281 -3.287251,-1.09227 -0.572054,-0.45845 -0.857546,-1.13193 -0.857546,-2.02184 0,-1.06073 0.431525,-1.87882 1.294449,-2.45411 0.872621,-0.57531 2.108095,-0.86336 3.707884,-0.86336 0.921109,0 1.87649,0.12215 2.865454,0.36486 0.988965,0.24271 2.040935,0.61065 3.155947,1.10505 l 0,-2.6563 c -1.10532,-0.34159 -2.18626,-0.59727 -3.243098,-0.76806 -1.056837,-0.17081 -2.093735,-0.2568 -3.111782,-0.2568 z m 25.710027,0 c -2.37546,0 -4.24219,0.51253 -5.59959,1.5373 -1.347709,1.02477 -2.021862,2.42652 -2.021862,4.20637 0,1.53715 0.48948,2.73803 1.468752,3.601 0.97927,0.86295 2.56475,1.49648 4.75599,1.901 l 1.78946,0.32303 c 1.49314,0.27867 2.56443,0.69761 3.21404,1.25493 0.65932,0.55734 0.98885,1.33052 0.98885,2.31932 0,1.13264 -0.45625,2.00436 -1.36765,2.61563 -0.9114,0.61126 -2.20482,0.9168 -3.88219,0.9168 -1.10531,0 -2.2303,-0.15714 -3.37439,-0.47176 -1.1441,-0.31463 -2.313127,-0.78227 -3.505702,-1.40251 l 0,2.80386 c 1.241058,0.42249 2.439052,0.74174 3.592842,0.95747 1.1635,0.21574 2.25951,0.3242 3.28725,0.3242 2.72451,0 4.78981,-0.50379 6.19569,-1.51058 1.41559,-1.00679 2.12295,-2.4858 2.12295,-4.43645 0,-1.63602 -0.52386,-2.93924 -1.571,-3.91007 -1.03745,-0.97982 -2.6519,-1.66321 -4.84314,-2.04974 l -1.77436,-0.33697 c -1.6095,-0.27867 -2.70434,-0.64281 -3.28608,-1.09227 -0.57205,-0.45845 -0.85871,-1.13193 -0.85871,-2.02184 0,-1.06073 0.43153,-1.87882 1.29445,-2.45411 0.87261,-0.57531 2.10925,-0.86336 3.70905,-0.86336 0.9211,0 1.87531,0.12215 2.86428,0.36486 0.98898,0.24271 2.04095,0.61065 3.15596,1.10505 l 0,-2.6563 c -1.10532,-0.34159 -2.18626,-0.59727 -3.2431,-0.76806 -1.05684,-0.17081 -2.09373,-0.2568 -3.11179,-0.2568 z m 172.66251,0 c -3.39351,0 -6.05028,0.92157 -7.97003,2.76435 -1.91006,1.83379 -2.86545,4.39531 -2.86545,7.68536 0,3.28105 0.95539,5.84373 2.86545,7.68651 1.91975,1.83379 4.57652,2.75042 7.97003,2.75042 1.55133,0 3.0101,-0.18835 4.3772,-0.56588 1.3671,-0.38654 2.6188,-0.95389 3.75321,-1.69999 l 0,-8.64283 -7.7086,0 0,2.23798 4.79899,0 0,5.40786 c -0.64961,0.35058 -1.3817,0.61122 -2.19615,0.78203 -0.81444,0.1618 -1.73969,0.24285 -2.77714,0.24285 -2.65664,0 -4.65433,-0.68834 -5.99235,-2.06368 -1.32831,-1.37535 -1.9928,-3.42054 -1.9928,-6.13527 0,-2.72373 0.66449,-4.7727 1.9928,-6.14805 1.33802,-1.37534 3.33571,-2.06369 5.99235,-2.06369 1.34771,0 2.63263,0.21575 3.8543,0.64723 1.22166,0.43148 2.37446,1.07492 3.46038,1.92889 l 0,-2.89915 c -1.07623,-0.62924 -2.25375,-1.10563 -3.53359,-1.42923 -1.27014,-0.32362 -2.61301,-0.48571 -4.0286,-0.48571 z m 81.13314,0 c -3.05417,0 -5.49729,0.94897 -7.32979,2.84569 -1.82281,1.88774 -2.73415,4.42185 -2.73415,7.60402 0,3.18216 0.91134,5.71745 2.73415,7.60517 1.8325,1.88774 4.27562,2.83176 7.32979,2.83176 3.04447,0 5.47794,-0.94402 7.30074,-2.83176 1.82281,-1.89671 2.73414,-4.432 2.73414,-7.60517 0,-3.18217 -0.91133,-5.71628 -2.73414,-7.60402 -1.8228,-1.89672 -4.25627,-2.84569 -7.30074,-2.84569 z m -268.250723,0.36369 0,20.13136 2.937497,0 0,-20.13136 -2.937497,0 z m 22.699343,0 0,2.2926 7.70859,0 0,17.83876 2.9526,0 0,-17.83876 7.70744,0 0,-2.2926 -18.36863,0 z m 20.22896,0 0,20.13136 13.99143,0 0,-2.29143 -11.05393,0 0,-7.29493 10.34164,0 0,-2.29259 -10.34164,0 0,-5.95981 10.79249,0 0,-2.2926 -13.72999,0 z m 17.85851,0 0,20.13136 2.85034,0 0,-17.67725 5.59961,13.80784 2.95259,0 5.59843,-13.80784 0,17.67725 2.86545,0 0,-20.13136 -4.37718,0 -5.57055,13.69979 -5.5415,-13.69979 -4.37719,0 z m 30.32194,0 -8.28957,20.13136 3.09784,0 1.97769,-5.16385 9.78738,0 1.97886,5.16385 3.05369,0 -8.27564,-20.13136 -3.33025,0 z m 22.26359,0 0,20.13136 2.9375,0 0,-20.13136 -2.9375,0 z m 7.79343,0 0,20.13136 2.8515,0 0,-16.84062 9.62703,16.84062 3.95655,0 0,-20.13136 -2.85034,0 0,16.84179 -9.6282,-16.84179 -3.95654,0 z m 18.28031,0 0,2.2926 7.70859,0 0,17.83876 2.9526,0 0,-17.83876 7.70744,0 0,-2.2926 -18.36863,0 z m 20.22896,0 0,20.13136 13.99144,0 0,-2.29143 -11.05395,0 0,-7.29493 10.34049,0 0,-2.29259 -10.34049,0 0,-5.95981 10.79134,0 0,-2.2926 -13.72883,0 z m 39.96291,0 0,20.13136 2.9375,0 0,-8.50805 3.2001,0 c 1.16349,0 2.08024,0.22071 2.74925,0.66118 0.6787,0.44046 1.3764,1.33464 2.0939,2.68302 l 2.77829,5.16385 3.15595,0 1.99048,0 1.97769,-5.16385 9.78854,0 1.9777,5.16385 3.05369,0 -8.27448,-20.13136 -3.3314,0 -7.81202,18.97053 -2.35185,-4.34 c -0.60113,-1.13263 -1.20226,-2.02301 -1.8034,-2.67024 -0.59144,-0.64722 -1.20222,-1.06996 -1.83244,-1.26771 1.21197,-0.32362 2.13298,-0.90234 2.76319,-1.73833 0.63992,-0.83599 0.9598,-1.88848 0.9598,-3.15595 0,-1.94167 -0.61078,-3.39327 -1.83245,-4.35511 -1.22166,-0.96184 -3.07332,-1.44319 -5.55544,-1.44319 l -6.6326,0 z m 37.86903,0 0,20.13136 6.03534,0 c 4.18857,0 7.27261,-0.81313 9.25054,-2.44017 1.97794,-1.62704 2.96654,-4.17602 2.96654,-7.64584 0,-3.45185 -0.98436,-5.98597 -2.95259,-7.60401 -1.96824,-1.62705 -5.05653,-2.44134 -9.26449,-2.44134 l -6.03534,0 z m 30.74374,1.84756 c 2.13306,0 3.82054,0.73702 5.0616,2.21126 1.25075,1.47422 1.87544,3.48326 1.87544,6.0272 0,2.53495 -0.62469,4.5402 -1.87544,6.01442 -1.24106,1.47422 -2.92854,2.21125 -5.0616,2.21125 -2.13307,0 -3.8302,-0.73703 -5.09064,-2.21125 -1.25076,-1.47422 -1.87545,-3.47947 -1.87545,-6.01442 0,-2.54394 0.62469,-4.55298 1.87545,-6.0272 1.26044,-1.47424 2.95757,-2.21126 5.09064,-2.21126 z m -65.67527,0.39159 3.6951,0 c 1.41559,0 2.48146,0.30058 3.19894,0.90286 0.72719,0.59329 1.0911,1.4787 1.0911,2.65629 0,1.17758 -0.36391,2.07176 -1.0911,2.68302 -0.71748,0.60227 -1.78335,0.90402 -3.19894,0.90402 l -3.6951,0 0,-7.14619 z m 37.86902,0 3.54869,0 c 2.99599,0 5.18801,0.62857 6.5745,1.88706 1.3962,1.24949 2.09389,3.22239 2.09389,5.91914 10e-6,2.71473 -0.69769,4.70248 -2.09389,5.96097 -1.38649,1.25849 -3.57851,1.88706 -6.5745,1.88706 l -3.54869,0 0,-15.65423 z m -147.67756,0.44503 3.99954,10.01863 -7.98515,0 3.98561,-10.01863 z m 132.62639,0 3.99955,10.01863 -7.98398,0 3.98443,-10.01863 z m 8.6684,18.67307 -2.08343,2.50757 1.62677,0 2.42389,-2.50757 -1.96723,0 z m -229.578769,3.59982 c -2.232858,0 -4.019362,0.66731 -5.359059,2.00326 -1.332631,1.32961 -1.99862,3.11539 -1.99862,5.35675 0,2.24134 0.665989,4.02711 1.99862,5.35674 1.339697,1.32961 3.126201,1.99396 5.359059,1.99396 2.225757,0 4.004369,-0.66435 5.336989,-1.99396 1.33262,-1.33596 1.99977,-3.12173 1.99977,-5.35674 0,-2.24136 -0.66715,-4.02714 -1.99977,-5.35675 -1.33262,-1.33595 -3.111232,-2.00326 -5.336989,-2.00326 z m 40.446299,0 c -2.23285,0 -4.01935,0.66731 -5.35907,2.00326 -1.33262,1.32961 -1.99861,3.11539 -1.99861,5.35675 0,2.24134 0.66599,4.02711 1.99861,5.35674 1.33972,1.32961 3.12622,1.99396 5.35907,1.99396 2.22577,0 4.00437,-0.66435 5.33699,-1.99396 1.33262,-1.33596 1.99977,-3.12173 1.99977,-5.35674 0,-2.24136 -0.66715,-4.02714 -1.99977,-5.35675 -1.33262,-1.33595 -3.11122,-2.00326 -5.33699,-2.00326 z m 15.56593,0 c -1.73667,0 -3.10129,0.36002 -4.09367,1.08181 -0.98529,0.72179 -1.47804,1.70941 -1.47804,2.96306 0,1.08267 0.3589,1.92877 1.07483,2.53661 0.71593,0.60781 1.87468,1.05368 3.47666,1.33859 l 1.30723,0.22776 c 1.09161,0.19627 1.8746,0.49055 2.34952,0.8831 0.48202,0.39255 0.72392,0.93728 0.72392,1.63375 0,0.79777 -0.333,1.41237 -0.99931,1.84291 -0.6663,0.43054 -1.61359,0.64606 -2.83989,0.64606 -0.80807,0 -1.62929,-0.11189 -2.46572,-0.33349 -0.83643,-0.2216 -1.69146,-0.55081 -2.56333,-0.98769 l 0,1.97654 c 0.90732,0.29758 1.78256,0.52199 2.62608,0.67395 0.85061,0.15195 1.6516,0.22775 2.40297,0.22775 1.99185,0 3.5016,-0.35408 4.52941,-1.06322 1.03491,-0.70912 1.55242,-1.75063 1.55242,-3.12458 0,-1.15232 -0.38249,-2.07124 -1.14805,-2.75505 -0.75845,-0.69014 -1.93857,-1.17093 -3.54056,-1.44319 l -1.29677,-0.23704 c -1.17667,-0.19628 -1.97767,-0.45265 -2.40298,-0.76923 -0.41822,-0.32291 -0.62747,-0.79777 -0.62747,-1.42459 0,-0.74712 0.31498,-1.32381 0.94585,-1.72904 0.63796,-0.4052 1.54248,-0.60771 2.71207,-0.60771 0.6734,0 1.37087,0.0858 2.09389,0.2568 0.72302,0.17094 1.49253,0.43029 2.3077,0.77853 l 0,-1.8708 c -0.80807,-0.2406 -1.59897,-0.42118 -2.3716,-0.54148 -0.77264,-0.1203 -1.53088,-0.18011 -2.27516,-0.18011 z m 210.56872,0 c -2.23285,0 -4.01936,0.66731 -5.35907,2.00326 -1.33262,1.32961 -1.99861,3.11539 -1.99861,5.35675 0,2.24134 0.66599,4.02711 1.99861,5.35674 1.33971,1.32961 3.12622,1.99396 5.35907,1.99396 2.22576,0 4.00437,-0.66435 5.33699,-1.99396 1.33262,-1.33596 1.99977,-3.12173 1.99977,-5.35674 0,-2.24136 -0.66715,-4.02714 -1.99977,-5.35675 -1.33262,-1.33595 -3.11123,-2.00326 -5.33699,-2.00326 z m -289.781096,0.25564 0,14.17968 4.412046,0 c 3.062199,0 5.316707,-0.57258 6.762745,-1.71857 1.446039,-1.14601 2.168255,-2.94183 2.168255,-5.3858 0,-2.43129 -0.718849,-4.21591 -2.157796,-5.35558 -1.438956,-1.146 -3.69683,-1.71973 -6.773204,-1.71973 l -4.412046,0 z m 40.828596,0 0,14.17968 2.1485,0 0,-6.75228 7.80388,0 0,6.75228 2.14734,0 0,-14.17968 -2.14734,0 0,5.81224 -7.80388,0 0,-5.81224 -2.1485,0 z m 47.33686,0 0,14.17968 2.14733,0 0,-5.69837 2.70045,0 c 1.77921,0 3.12245,-0.35822 4.02976,-1.07367 0.9144,-0.71546 1.3723,-1.77295 1.3723,-3.17222 0,-1.38659 -0.4579,-2.43699 -1.3723,-3.15245 -0.90731,-0.72179 -2.25055,-1.08297 -4.02976,-1.08297 l -4.84778,0 z m 13.14202,0 0,14.17968 2.14735,0 0,-14.17968 -2.14735,0 z m 4.22032,0 0,1.61515 5.63562,0 0,12.56453 2.15896,0 0,-12.56453 5.63446,0 0,-1.61515 -13.42904,0 z m 17.90616,0 -6.06091,14.17968 2.26471,0 1.4455,-3.63701 7.15665,0 1.44552,3.63701 2.23333,0 -6.05045,-14.17968 -2.43435,0 z m 10.79133,0 0,14.17968 9.87802,0 0,-1.61516 -7.72951,0 0,-12.56452 -2.14851,0 z m 17.08696,0 6.0609,14.17968 2.43436,0 6.05045,-14.17968 -2.23334,0 -5.03952,11.93822 -5.02906,-11.93822 -2.24379,0 z m 16.85224,0 0,14.17968 10.22893,0 0,-1.61516 -8.08043,0 0,-5.13712 7.55986,0 0,-1.61516 -7.55986,0 0,-4.19709 7.88871,0 0,-1.61515 -10.03721,0 z m 11.57916,0 0,1.61515 5.63562,0 0,12.56453 2.15896,0 0,-12.56453 5.63445,0 0,-1.61515 -13.42903,0 z m 15.51363,0 0,14.17968 10.22777,0 0,-1.61516 -8.08043,0 0,-5.13712 7.55986,0 0,-1.61516 -7.55986,0 0,-4.19709 7.88987,0 0,-1.61515 -10.03721,0 z m 13.77996,0 0,14.17968 2.14734,0 0,-5.99235 2.33907,0 c 0.85061,0 1.52113,0.15454 2.01023,0.46479 0.49619,0.31024 1.00579,0.94083 1.53033,1.89055 l 2.03115,3.63701 2.3077,0 -2.17989,-3.87522 c -0.43948,-0.79777 -0.87936,-1.42422 -1.31885,-1.88008 -0.43239,-0.45587 -0.87902,-0.75312 -1.33976,-0.8924 0.88606,-0.22794 1.55994,-0.63707 2.02069,-1.2259 0.46783,-0.58883 0.70184,-1.32897 0.70184,-2.2217 0,-1.36761 -0.44663,-2.39017 -1.33977,-3.06765 -0.89314,-0.67746 -2.24767,-1.01673 -4.0623,-1.01673 l -4.84778,0 z m 15.14063,0 0,14.17968 2.14735,0 0,-14.17968 -2.14735,0 z m 6.42228,0 0,14.17968 2.08344,0 0,-11.86269 7.03929,11.86269 2.89218,0 0,-14.17968 -2.0846,0 0,11.86268 -7.03813,-11.86268 -2.89218,0 z m 20.38234,0 -6.0609,14.17968 2.2647,0 1.44667,-3.63701 7.1555,0 1.4455,3.63701 2.23333,0 -6.05044,-14.17968 -2.43436,0 z m 10.7925,0 0,14.17968 2.14734,0 0,-5.99235 2.33907,0 c 0.85061,0 1.52113,0.15454 2.01024,0.46479 0.49619,0.31024 1.00578,0.94083 1.53033,1.89055 l 2.03115,3.63701 2.30769,0 -2.17988,-3.87522 c -0.43949,-0.79777 -0.87938,-1.42422 -1.31886,-1.88008 -0.43238,-0.45587 -0.87901,-0.75312 -1.33975,-0.8924 0.88605,-0.22794 1.55994,-0.63707 2.02069,-1.2259 0.46783,-0.58883 0.70183,-1.32897 0.70183,-2.2217 0,-1.36761 -0.44663,-2.39017 -1.33977,-3.06765 -0.89313,-0.67746 -2.24766,-1.01673 -4.06229,-1.01673 l -4.84779,0 z m 15.14064,0 0,14.17968 2.14734,0 0,-14.17968 -2.14734,0 z m -253.715479,1.30142 c 1.559454,0 2.792435,0.51869 3.699752,1.55706 0.914407,1.03836 1.372307,2.45407 1.372307,4.24589 0,1.78548 -0.4579,3.19705 -1.372307,4.23543 -0.907317,1.03836 -2.140298,1.55821 -3.699752,1.55821 -1.559446,0 -2.800338,-0.51985 -3.72183,-1.55821 -0.914401,-1.03838 -1.371144,-2.44995 -1.371144,-4.23543 0,-1.79182 0.456743,-3.20753 1.371144,-4.24589 0.921492,-1.03837 2.162384,-1.55706 3.72183,-1.55706 z m 40.446299,0 c 1.55946,0 2.79244,0.51869 3.69975,1.55706 0.91441,1.03836 1.37231,2.45407 1.37231,4.24589 0,1.78548 -0.4579,3.19705 -1.37231,4.23543 -0.90731,1.03836 -2.14029,1.55821 -3.69975,1.55821 -1.55944,0 -2.80034,-0.51985 -3.72183,-1.55821 -0.9144,-1.03838 -1.37114,-2.44995 -1.37114,-4.23543 0,-1.79182 0.45674,-3.20753 1.37114,-4.24589 0.92149,-1.03837 2.16239,-1.55706 3.72183,-1.55706 z m 226.13465,0 c 1.55946,0 2.79244,0.51869 3.69975,1.55706 0.91441,1.03836 1.37231,2.45407 1.37231,4.24589 0,1.78548 -0.4579,3.19705 -1.37231,4.23543 -0.90731,1.03836 -2.14029,1.55821 -3.69975,1.55821 -1.55944,0 -2.80034,-0.51985 -3.72183,-1.55821 -0.9144,-1.03838 -1.37114,-2.44995 -1.37114,-4.23543 0,-1.79182 0.45674,-3.20753 1.37114,-4.24589 0.92149,-1.03837 2.16239,-1.55706 3.72183,-1.55706 z m -287.633754,0.27539 2.594709,0 c 2.190315,0 3.79232,0.4429 4.805962,1.32931 1.020734,0.88008 1.530328,2.26974 1.530328,4.16919 0,1.91212 -0.509594,3.31184 -1.530328,4.19824 -1.013642,0.88642 -2.615647,1.32931 -4.805962,1.32931 l -2.594709,0 0,-11.02605 z m 88.165444,0 2.70045,0 c 0.99947,0 1.77235,0.2315 2.31816,0.69371 0.54581,0.46219 0.8192,1.11648 0.8192,1.9649 0,0.85476 -0.27339,1.51433 -0.8192,1.97655 -0.54581,0.46218 -1.31869,0.69253 -2.31816,0.69253 l -2.70045,0 0,-5.32769 z m 120.87179,0 2.70044,0 c 1.03491,0 1.81453,0.21256 2.33907,0.63676 0.53164,0.41789 0.79829,1.04137 0.79829,1.87081 0,0.82942 -0.26665,1.45883 -0.79829,1.88938 -0.52454,0.42421 -1.30416,0.63676 -2.33907,0.63676 l -2.70044,0 0,-5.03371 z m 52.73775,0 2.70045,0 c 1.0349,0 1.81453,0.21256 2.33907,0.63676 0.53163,0.41789 0.79828,1.04137 0.79828,1.87081 0,0.82942 -0.26665,1.45883 -0.79828,1.88938 -0.52454,0.42421 -1.30417,0.63676 -2.33907,0.63676 l -2.70045,0 0,-5.03371 z m -139.27642,0.31374 2.92354,7.05556 -5.83664,0 2.9131,-7.05556 z m 127.54853,0 2.92472,7.05556 -5.83781,0 2.91309,-7.05556 z"
     id="path4249"
     inkscape:connector-curvature="0" /></svg>