<?xml version="1.0" encoding="UTF-8" standalone="no"?>
<!-- Created with Inkscape (http://www.inkscape.org/) -->

<svg
   xmlns:dc="http://purl.org/dc/elements/1.1/"
   xmlns:cc="http://creativecommons.org/ns#"
   xmlns:rdf="http://www.w3.org/1999/02/22-rdf-syntax-ns#"
   xmlns:svg="http://www.w3.org/2000/svg"
   xmlns="http://www.w3.org/2000/svg"
   xmlns:sodipodi="http://sodipodi.sourceforge.net/DTD/sodipodi-0.dtd"
   xmlns:inkscape="http://www.inkscape.org/namespaces/inkscape"
   id="svg3336"
   version="1.1"
   inkscape:version="0.91 r13725"
   xml:space="preserve"
   width="397.5"
   height="397.5"
   viewBox="0 0 397.5 397.5"
   sodipodi:docname="addUser.svg"><metadata
     id="metadata3342"><rdf:RDF><cc:Work
         rdf:about=""><dc:format>image/svg+xml</dc:format><dc:type
           rdf:resource="http://purl.org/dc/dcmitype/StillImage" /><dc:title></dc:title></cc:Work></rdf:RDF></metadata><defs
     id="defs3340"><clipPath
       clipPathUnits="userSpaceOnUse"
       id="clipPath3350"><path
         d="M 0,318 318,318 318,0 0,0 0,318 Z"
         id="path3352"
         inkscape:connector-curvature="0" /></clipPath><clipPath
       clipPathUnits="userSpaceOnUse"
       id="clipPath3362"><path
         d="M 49.5,318 C 22.3,318 0,295.7 0,268.5 l 0,0 0,-219 C 0,22.3 22.3,0 49.5,0 l 0,0 219,0 C 295.7,0 318,22.3 318,49.5 l 0,0 0,219 c 0,27.2 -22.3,49.5 -49.5,49.5 l 0,0 -219,0 z"
         id="path3364"
         inkscape:connector-curvature="0" /></clipPath><clipPath
       clipPathUnits="userSpaceOnUse"
       id="clipPath3370"><path
         d="m 34.4491,257.665 283.6629,0 0,-257.7293768 -283.6629,0 0,257.7293768 z"
         id="path3372"
         inkscape:connector-curvature="0" /></clipPath><clipPath
       clipPathUnits="userSpaceOnUse"
       id="clipPath3386"><path
         d="M 0,318 318,318 318,0 0,0 0,318 Z"
         id="path3388"
         inkscape:connector-curvature="0" /></clipPath></defs><sodipodi:namedview
     pagecolor="#ffffff"
     bordercolor="#666666"
     borderopacity="1"
     objecttolerance="10"
     gridtolerance="10"
     guidetolerance="10"
     inkscape:pageopacity="0"
     inkscape:pageshadow="2"
     inkscape:window-width="1920"
     inkscape:window-height="1027"
     id="namedview3338"
     showgrid="false"
     inkscape:zoom="2.1584906"
     inkscape:cx="198.75"
     inkscape:cy="198.75"
     inkscape:window-x="-8"
     inkscape:window-y="-8"
     inkscape:window-maximized="1"
     inkscape:current-layer="g3344" /><g
     id="g3344"
     inkscape:groupmode="layer"
     inkscape:label="addUser"
     transform="matrix(1.25,0,0,-1.25,0,397.5)"><g
       id="g3346"><g
         id="g3348"
         clip-path="url(#clipPath3350)"><g
           id="g3354"
           transform="translate(268.5,318)"><path
             d="m 0,0 -219,0 c -27.2,0 -49.5,-22.3 -49.5,-49.5 l 0,-219 c 0,-27.2 22.3,-49.5 49.5,-49.5 l 219,0 c 27.2,0 49.5,22.3 49.5,49.5 l 0,219 C 49.5,-22.3 27.2,0 0,0"
             style="fill:#009885;fill-opacity:1;fill-rule:nonzero;stroke:none"
             id="path3356"
             inkscape:connector-curvature="0" /></g></g></g><g
       id="g3358"><g
         id="g3360"
         clip-path="url(#clipPath3362)"><g
           id="g3366"><g
             id="g3368" /><g
             id="g3374"><g
               clip-path="url(#clipPath3370)"
               id="g3376"
               style="opacity:0.49000501"><g
                 transform="translate(152.5741,247.25)"
                 id="g3378"><path
                   d="m 0,0 c -40.75,33.125 -102.125,-19.125 -67.688,-67.688 l 26.938,-27.687 -10.688,3.125 c -6.838,2.748 -12.823,7.107 -18.281,11.5 l -4.156,2.156 c -27.188,-5.861 -42.682,-29.687 -44.25,-74.906 0.369,-6.496 2.458,-12.104 5.75,-17.375 2.602,-4.107 47.718,-48.311 75.875,-76.375 l 153.5,0 c 29.563,-0.937 50.25,8.063 48.426,47 l 0,69.5 L 90,-55.125 87.875,-54.297 63.5,-54.368 59.625,-58.625 0,0 Z"
                   style="fill:#606060;fill-opacity:1;fill-rule:nonzero;stroke:none"
                   id="path3380"
                   inkscape:connector-curvature="0" /></g></g></g></g></g></g><g
       id="g3382"><g
         id="g3384"
         clip-path="url(#clipPath3386)"><g
           id="g3390"
           transform="translate(288.6064,144.5195)"><path
             d="m 0,0 c 2.145,0 4.037,-1.893 4.037,-4.037 l 0,-24.223 c 0,-2.144 -1.892,-4.037 -4.037,-4.037 l -44.408,0 0,-44.408 c 0,-2.145 -1.893,-4.037 -4.037,-4.037 l -24.223,0 c -2.145,0 -4.037,1.892 -4.037,4.037 l 0,44.408 -44.408,0 c -2.145,0 -4.037,1.893 -4.037,4.037 l 0,24.223 c 0,2.144 1.892,4.037 4.037,4.037 l 44.408,0 0,44.408 c 0,2.145 1.892,4.037 4.037,4.037 l 24.223,0 c 2.144,0 4.037,-1.892 4.037,-4.037 L -44.408,0 0,0 Z m -213.967,64.594 c 0,26.746 21.699,48.445 48.446,48.445 26.746,0 48.445,-21.699 48.445,-48.445 0,-26.746 -21.699,-48.446 -48.445,-48.446 -26.747,0 -48.446,21.7 -48.446,48.446 m 92.854,-109.002 32.297,0 0,-30.027 c -6.182,-4.541 -14.004,-6.307 -21.574,-6.307 l -110.263,0 c -20.186,0 -33.685,12.111 -33.685,32.676 0,28.511 6.687,72.289 43.651,72.289 2.019,0 3.407,-0.883 4.92,-2.145 12.364,-9.462 24.35,-15.391 40.246,-15.391 15.895,0 27.881,5.929 40.245,15.391 1.513,1.262 2.901,2.145 4.92,2.145 10.723,0 20.185,-4.037 27.376,-12.112 l -28.133,0 c -8.831,0 -16.149,-7.317 -16.149,-16.148 l 0,-24.223 c 0,-8.831 7.318,-16.148 16.149,-16.148"
             style="fill:#ebf0f1;fill-opacity:1;fill-rule:nonzero;stroke:none"
             id="path3392"
             inkscape:connector-curvature="0" /></g></g></g></g></svg>