<?xml version="1.0" encoding="UTF-8" standalone="no"?>
<!-- Created with Inkscape (http://www.inkscape.org/) -->

<svg
   xmlns:dc="http://purl.org/dc/elements/1.1/"
   xmlns:cc="http://creativecommons.org/ns#"
   xmlns:rdf="http://www.w3.org/1999/02/22-rdf-syntax-ns#"
   xmlns:svg="http://www.w3.org/2000/svg"
   xmlns="http://www.w3.org/2000/svg"
   xmlns:sodipodi="http://sodipodi.sourceforge.net/DTD/sodipodi-0.dtd"
   xmlns:inkscape="http://www.inkscape.org/namespaces/inkscape"
   id="svg3394"
   version="1.1"
   inkscape:version="0.91 r13725"
   xml:space="preserve"
   width="397.5"
   height="397.5"
   viewBox="0 0 397.5 397.5"
   sodipodi:docname="addMED.svg"><metadata
     id="metadata3400"><rdf:RDF><cc:Work
         rdf:about=""><dc:format>image/svg+xml</dc:format><dc:type
           rdf:resource="http://purl.org/dc/dcmitype/StillImage" /><dc:title></dc:title></cc:Work></rdf:RDF></metadata><defs
     id="defs3398"><clipPath
       clipPathUnits="userSpaceOnUse"
       id="clipPath3408"><path
         d="M 0,318 318,318 318,0 0,0 0,318 Z"
         id="path3410"
         inkscape:connector-curvature="0" /></clipPath><clipPath
       clipPathUnits="userSpaceOnUse"
       id="clipPath3420"><path
         d="M 49.5,318 C 22.3,318 0,295.7 0,268.5 l 0,0 0,-219 C 0,22.3 22.3,0 49.5,0 l 0,0 219,0 C 295.7,0 318,22.3 318,49.5 l 0,0 0,219 c 0,27.2 -22.3,49.5 -49.5,49.5 l 0,0 -219,0 z"
         id="path3422"
         inkscape:connector-curvature="0" /></clipPath><clipPath
       clipPathUnits="userSpaceOnUse"
       id="clipPath3428"><path
         d="m 34.4491,257.665 283.6629,0 0,-257.7293768 -283.6629,0 0,257.7293768 z"
         id="path3430"
         inkscape:connector-curvature="0" /></clipPath><clipPath
       clipPathUnits="userSpaceOnUse"
       id="clipPath3444"><path
         d="M 0,318 318,318 318,0 0,0 0,318 Z"
         id="path3446"
         inkscape:connector-curvature="0" /></clipPath></defs><sodipodi:namedview
     pagecolor="#ffffff"
     bordercolor="#666666"
     borderopacity="1"
     objecttolerance="10"
     gridtolerance="10"
     guidetolerance="10"
     inkscape:pageopacity="0"
     inkscape:pageshadow="2"
     inkscape:window-width="1920"
     inkscape:window-height="1027"
     id="namedview3396"
     showgrid="false"
     inkscape:zoom="0.59371069"
     inkscape:cx="198.75"
     inkscape:cy="198.75"
     inkscape:window-x="-8"
     inkscape:window-y="-8"
     inkscape:window-maximized="1"
     inkscape:current-layer="g3402" /><g
     id="g3402"
     inkscape:groupmode="layer"
     inkscape:label="addMED"
     transform="matrix(1.25,0,0,-1.25,0,397.5)"><g
       id="g3404"><g
         id="g3406"
         clip-path="url(#clipPath3408)"><g
           id="g3412"
           transform="translate(268.5,318)"><path
             d="m 0,0 -219,0 c -27.2,0 -49.5,-22.3 -49.5,-49.5 l 0,-219 c 0,-27.2 22.3,-49.5 49.5,-49.5 l 219,0 c 27.2,0 49.5,22.3 49.5,49.5 l 0,219 C 49.5,-22.3 27.2,0 0,0"
             style="fill:#009885;fill-opacity:1;fill-rule:nonzero;stroke:none"
             id="path3414"
             inkscape:connector-curvature="0" /></g></g></g><g
       id="g3416"><g
         id="g3418"
         clip-path="url(#clipPath3420)"><g
           id="g3424"><g
             id="g3426" /><g
             id="g3432"><g
               clip-path="url(#clipPath3428)"
               id="g3434"
               style="opacity:0.49000501"><g
                 transform="translate(152.5741,247.25)"
                 id="g3436"><path
                   d="m 0,0 c -40.75,33.125 -102.125,-19.125 -67.688,-67.688 l 26.938,-27.687 -10.688,3.125 c -6.838,2.748 -12.823,7.107 -18.281,11.5 l -4.156,2.156 c -27.188,-5.861 -42.682,-29.687 -44.25,-74.906 0.369,-6.496 2.458,-12.104 5.75,-17.375 2.602,-4.107 47.718,-48.311 75.875,-76.375 l 153.5,0 c 29.563,-0.937 50.25,8.063 48.426,47 l 0,69.5 L 90,-55.125 87.875,-54.297 63.5,-54.368 59.625,-58.625 0,0 Z"
                   style="fill:#606060;fill-opacity:1;fill-rule:nonzero;stroke:none"
                   id="path3438"
                   inkscape:connector-curvature="0" /></g></g></g></g></g></g><g
       id="g3440"><g
         id="g3442"
         clip-path="url(#clipPath3444)"><g
           id="g3448"
           transform="translate(201.0703,149)"><path
             d="M 0,0 C -5.284,9.207 -13.016,16.28 -24.241,18.732 -21.743,12.876 -21.363,6.431 -21.373,0 L 0,0 Z"
             style="fill:#ebf0f1;fill-opacity:1;fill-rule:nonzero;stroke:none"
             id="path3450"
             inkscape:connector-curvature="0" /></g><g
           id="g3452"
           transform="translate(123.0849,160.668)"><path
             d="m 0,0 c 26.746,0 48.445,21.699 48.445,48.445 0,26.746 -21.699,48.446 -48.445,48.446 -26.746,0 -48.445,-21.7 -48.445,-48.446 C -48.445,21.699 -26.746,0 0,0"
             style="fill:#ebf0f1;fill-opacity:1;fill-rule:nonzero;stroke:none"
             id="path3454"
             inkscape:connector-curvature="0" /></g><g
           id="g3456"
           transform="translate(206.6991,104.92)"><path
             d="m 0,0 c 0,1.429 -1.158,2.587 -2.587,2.587 l -8.359,0 0,-6.513 c 2.523,-2.27 4.037,-5.551 4.037,-8.957 0,-6.686 -5.425,-12.111 -12.112,-12.111 -6.686,0 -12.111,5.425 -12.111,12.111 0,3.406 1.514,6.687 4.037,8.957 l 0,6.513 -13.437,0 c -3.958,0 -7.167,3.208 -7.167,7.166 l 0,13.046 C -54.404,20.835 -59.392,14.59 -59.392,7.303 l 0,-11.229 c 2.524,-2.27 4.038,-5.551 4.038,-8.957 0,-6.686 -5.425,-12.111 -12.112,-12.111 -6.686,0 -12.111,5.425 -12.111,12.111 0,3.406 1.514,6.687 4.037,8.957 l 0,11.229 c 0,16.424 12.372,30.042 28.271,32.036 0.687,1.908 2.156,3.442 4.026,4.207 l 0,4.128 c 0,4.163 -0.379,8.326 -3.154,11.732 -10.598,-8.326 -23.718,-13.12 -37.217,-13.12 -13.499,0 -26.62,4.794 -37.218,13.12 -2.775,-3.406 -3.153,-7.569 -3.153,-11.732 l 0,-25.611 c 9.588,-3.406 16.148,-12.616 16.148,-22.835 0,-13.933 -11.778,-25.127 -25.917,-24.164 -10.629,0.723 -19.698,8.507 -21.961,18.918 -2.649,12.185 4.224,24.099 15.581,28.081 l 0,25.611 c 0,5.173 0.757,10.344 2.776,15.138 -30.026,-6.559 -35.073,-46.173 -35.073,-71.279 0,-20.564 13.499,-32.676 33.685,-32.676 l 110.264,0 c 11.93,0 21.52,4.234 27.372,11.941 0.723,0.952 1.11,2.119 1.11,3.314 L 0,0 Z"
             style="fill:#ebf0f1;fill-opacity:1;fill-rule:nonzero;stroke:none"
             id="path3458"
             inkscape:connector-curvature="0" /></g><g
           id="g3460"
           transform="translate(66.5653,104.1484)"><path
             d="m 0,0 c 0,-4.416 3.659,-8.074 8.074,-8.074 4.416,0 8.074,3.658 8.074,8.074 0,4.416 -3.658,8.074 -8.074,8.074 C 3.659,8.074 0,4.416 0,0"
             style="fill:#ebf0f1;fill-opacity:1;fill-rule:nonzero;stroke:none"
             id="path3462"
             inkscape:connector-curvature="0" /></g><g
           id="g3464"
           transform="translate(288.6064,144.5195)"><path
             d="m 0,0 c 2.145,0 4.037,-1.893 4.037,-4.037 l 0,-24.223 c 0,-2.144 -1.892,-4.037 -4.037,-4.037 l -44.408,0 0,-44.408 c 0,-2.145 -1.893,-4.037 -4.037,-4.037 l -24.223,0 c -2.145,0 -4.037,1.892 -4.037,4.037 l 0,44.408 -44.408,0 c -2.145,0 -4.037,1.893 -4.037,4.037 l 0,24.223 c 0,2.144 1.892,4.037 4.037,4.037 l 44.408,0 0,44.408 c 0,2.145 1.892,4.037 4.037,4.037 l 24.223,0 c 2.144,0 4.037,-1.892 4.037,-4.037 L -44.408,0 0,0 Z"
             style="fill:#ebf0f1;fill-opacity:1;fill-rule:nonzero;stroke:none"
             id="path3466"
             inkscape:connector-curvature="0" /></g></g></g></g></svg>