<?xml version="1.0" encoding="UTF-8" standalone="no"?>
<!-- Created with Inkscape (http://www.inkscape.org/) -->

<svg
   xmlns:dc="http://purl.org/dc/elements/1.1/"
   xmlns:cc="http://creativecommons.org/ns#"
   xmlns:rdf="http://www.w3.org/1999/02/22-rdf-syntax-ns#"
   xmlns:svg="http://www.w3.org/2000/svg"
   xmlns="http://www.w3.org/2000/svg"
   xmlns:sodipodi="http://sodipodi.sourceforge.net/DTD/sodipodi-0.dtd"
   xmlns:inkscape="http://www.inkscape.org/namespaces/inkscape"
   width="710"
   height="282"
   viewBox="0 0 710 282"
   id="svg2"
   version="1.1"
   inkscape:version="0.91 r"
   sodipodi:docname="Logo fábrica de software.svg">
  <defs
     id="defs4" />
  <sodipodi:namedview
     id="base"
     pagecolor="#ffffff"
     bordercolor="#666666"
     borderopacity="1.0"
     inkscape:pageopacity="0.0"
     inkscape:pageshadow="2"
     inkscape:zoom="0.7"
     inkscape:cx="394.22148"
     inkscape:cy="116.87047"
     inkscape:document-units="px"
     inkscape:current-layer="g4211"
     showgrid="false"
     showguides="true"
     inkscape:guide-bbox="true"
     inkscape:window-width="1323"
     inkscape:window-height="744"
     inkscape:window-x="43"
     inkscape:window-y="24"
     inkscape:window-maximized="1"
     units="px" />
  <metadata
     id="metadata7">
    <rdf:RDF>
      <cc:Work
         rdf:about="">
        <dc:format>image/svg+xml</dc:format>
        <dc:type
           rdf:resource="http://purl.org/dc/dcmitype/StillImage" />
        <dc:title></dc:title>
      </cc:Work>
    </rdf:RDF>
  </metadata>
  <g
     inkscape:label="Camada 1"
     inkscape:groupmode="layer"
     id="layer1"
     transform="translate(0,-770.3621)">
    <path
       style="fill:#008000;fill-opacity:1;fill-rule:evenodd;stroke:#000000;stroke-width:0;stroke-linecap:butt;stroke-linejoin:miter;stroke-miterlimit:4;stroke-dasharray:none;stroke-opacity:1"
       d="m 146.46894,773.09348 -9.90919,0.0713 -7.36396,6.70118 0.068,10.29015 9.07823,-6.30798 -0.10248,30.19321 8.22945,0.12253 0,-41.07038 z m -47.035285,32.04673 c -2.29052,0 -4.24418,0.40692 -5.860186,1.21971 -1.60196,0.81279 -2.67668,1.89265 -3.22472,3.23921 -0.53399,1.34655 -0.80089,3.37215 -0.80089,6.0774 l 0,10.28124 c 0,2.07443 0.0615,6.05026 0.39878,7.00861 0.33725,0.94623 0.90661,1.84993 1.70759,2.71123 0.80099,0.86132 1.8757,1.49787 3.224716,1.91033 1.34902,0.40032 3.0429,0.6015 5.08048,0.6015 1.545755,0 6.293735,-0.0718 7.544395,-0.46004 1.25065,-0.3882 2.23917,-1.26536 3.12448,-2.15093 0.88529,-0.88557 1.46776,-1.83812 1.7488,-2.85713 0.28105,-1.01902 0.52911,-5.104 0.52911,-7.33611 l 0,-9.82677 c 0,-2.23212 -0.13401,-3.85763 -0.40101,-4.87664 -0.25294,-1.01902 -0.74407,-1.93518 -1.47479,-2.74796 -0.73072,-0.81279 -1.83389,-1.49821 -3.30938,-2.05625 -1.4755,-0.57017 -6.41842,-0.7374 -8.287375,-0.7374 z m 1.589525,7.65022 c 1.21261,-1.3e-4 2.46148,0.29639 2.98635,0.81314 0.18268,0.3882 0.25902,1.36469 0.27403,2.92954 l 0.10693,11.14452 c 0.0138,1.44353 -0.0183,1.46222 -0.21499,1.87468 -1.08294,1.29335 -4.261095,1.20464 -5.757705,0.12921 -0.18268,-0.35182 -0.33745,-0.39375 -0.35422,-2.10415 l -0.10694,-10.92619 c -0.0148,-1.51632 0.0984,-2.48143 0.29519,-2.89389 0.3825,-0.67025 1.55877,-0.96673 2.771355,-0.96686 z m 38.426,4.38317 -8.04008,0.0579 -5.97493,5.43692 0.0557,8.34975 7.36507,-5.11945 -0.0824,24.49786 6.67668,0.0991 0,-33.32214 z m 63.35495,5.12726 c -2.19209,0 -4.06189,0.3895 -5.60845,1.16735 -1.53312,0.77787 -2.56211,1.81128 -3.08661,3.09998 -0.51104,1.28868 -0.76636,3.22776 -0.76636,5.81674 l 0,9.83904 c 0,1.98528 0.0593,5.79068 0.38207,6.70786 0.32276,0.90557 0.86752,1.76997 1.63408,2.59426 0.76657,0.8243 1.79556,1.43429 3.0866,1.82901 1.29105,0.38313 2.91101,0.57477 4.86103,0.57477 1.47933,0 6.02447,-0.0685 7.22137,-0.43999 1.19692,-0.37151 2.14245,-1.21095 2.9897,-2.05847 0.84725,-0.8475 1.40521,-1.75939 1.67418,-2.73462 0.26897,-0.97522 0.50571,-4.88467 0.50571,-7.02086 l 0,-9.4035 c 0,-2.1362 -0.12767,-3.692 -0.38318,-4.66722 -0.24207,-0.97523 -0.71311,-1.85204 -1.41241,-2.6299 -0.69933,-0.77785 -1.75472,-1.43418 -3.16681,-1.96825 -1.41208,-0.54565 -6.14228,-0.7062 -7.93092,-0.7062 z m -129.894501,2.58646 -7.34279,0.0479 -5.45585,4.44556 -0.003,8.97798 5.49929,-3.18239 0.0847,16.97685 7.21803,-0.0145 0,-27.25141 z m 131.416071,4.73516 c 1.16049,-1.2e-4 2.35483,0.28408 2.85714,0.77861 0.17483,0.37152 0.24739,1.30607 0.26177,2.80367 l 0.10248,10.66554 c 0.0132,1.38149 -0.0167,1.39973 -0.20495,1.79448 -1.0364,1.23777 -4.07814,1.15175 -5.51043,0.12253 -0.17484,-0.3367 -0.32373,-0.37702 -0.33976,-2.01392 l -0.10135,-10.45612 c -0.0143,-1.45116 0.0936,-2.3744 0.28181,-2.76914 0.36607,-0.64145 1.49281,-0.92552 2.65329,-0.92565 z m -107.833835,13.02253 -6.763556,0.0435 -5.027,4.0969 -0.002,8.27066 5.06599,-2.93177 0.0769,15.63907 6.649936,-0.0133 0,-25.10495 z m 82.532855,2.08299 -6.77135,0.0434 -5.03147,4.10023 -0.002,8.27958 5.07045,-2.93511 0.078,15.65467 6.65663,-0.0133 0,-25.12944 z m -143.250091,4.4099 c -1.54233,0 -2.85727,0.27365 -3.94541,0.82095 -1.07868,0.54729 -1.80307,1.27429 -2.17209,2.18099 -0.35957,0.9067 -0.53913,2.27087 -0.53913,4.09246 l 0,6.92284 c 0,1.39683 0.0413,4.07425 0.26845,4.71957 0.22709,0.63715 0.6102,1.24572 1.14953,1.82568 0.53935,0.57996 1.26374,1.00881 2.17211,1.28654 0.90836,0.26956 2.04764,0.40434 3.41964,0.40434 1.04084,0 4.23946,-0.0483 5.08158,-0.30966 0.84214,-0.2614 1.50692,-0.85176 2.10304,-1.44806 0.59612,-0.5963 0.98815,-1.23753 1.17739,-1.92369 0.18925,-0.68616 0.35645,-3.43712 0.35645,-4.94012 l 0,-6.61654 c 0,-1.503 -0.0898,-2.5976 -0.26957,-3.28375 -0.17031,-0.68616 -0.50157,-1.30289 -0.9936,-1.85018 -0.49203,-0.54729 -1.23537,-1.00881 -2.22889,-1.38457 -0.99353,-0.38392 -4.32104,-0.4968 -5.5795,-0.4968 z m 1.07045,5.15065 c 0.81651,-9e-5 1.65716,0.20008 2.01058,0.54804 0.12301,0.26138 0.17481,0.91901 0.18491,1.97269 l 0.0713,7.50431 c 0.009,0.97202 -0.0123,0.98542 -0.14481,1.26316 -0.7292,0.87088 -2.8686,0.80991 -3.87634,0.0858 -0.12301,-0.2369 -0.22709,-0.26517 -0.23838,-1.41687 l -0.0725,-7.35727 c -0.0101,-1.02102 0.0658,-1.67046 0.19828,-1.9482 0.25755,-0.45133 1.05038,-0.65155 1.86688,-0.65163 z m 110.117321,1.62517 c -1.57058,0 -2.90975,0.2781 -4.01781,0.83541 -1.09844,0.55733 -1.83531,1.2978 -2.21109,2.22111 -0.36614,0.92331 -0.55026,2.31215 -0.55026,4.16708 l 0,7.04983 c 0,1.42241 0.0427,4.14933 0.27402,4.80646 0.23125,0.64881 0.62148,1.26852 1.1707,1.85908 0.54922,0.59061 1.28608,1.02713 2.21108,1.30994 0.925,0.2745 2.08601,0.41215 3.48314,0.41215 1.0599,0 4.31649,-0.0491 5.17405,-0.31524 0.85754,-0.26617 1.53497,-0.86757 2.14201,-1.4748 0.60703,-0.6072 1.00695,-1.26061 1.19966,-1.95932 0.19272,-0.69872 0.36202,-3.49982 0.36202,-5.03036 l 0,-6.73794 c 0,-1.53053 -0.0909,-2.64519 -0.27401,-3.34391 -0.17344,-0.69872 -0.51149,-1.32628 -1.01254,-1.88359 -0.50104,-0.55731 -1.25728,-1.02756 -2.269,-1.41019 -1.01172,-0.39095 -4.40046,-0.50571 -5.68197,-0.50571 z m 49.80777,3.55667 c -2.00849,0 -3.72136,0.35662 -5.1384,1.06933 -1.4047,0.71271 -2.3465,1.65968 -2.82706,2.84043 -0.46824,1.18075 -0.70287,2.95672 -0.70287,5.32887 l 0,9.01585 c 0,1.81901 0.0541,5.30499 0.34977,6.14535 0.29572,0.82972 0.79471,1.62292 1.49707,2.37817 0.70235,0.75526 1.64526,1.31362 2.82817,1.67529 1.18292,0.35104 2.66777,0.52577 4.45446,0.52577 1.35543,0 5.51988,-0.0617 6.61653,-0.40212 1.09667,-0.3404 1.96278,-1.1104 2.73907,-1.88694 0.77628,-0.77652 1.2874,-1.61159 1.53383,-2.50514 0.24645,-0.89354 0.46338,-4.47547 0.46338,-6.43275 l 0,-8.61597 c 0,-1.95727 -0.11676,-3.3827 -0.35087,-4.27623 -0.2218,-0.89356 -0.65361,-1.69664 -1.29435,-2.40935 -0.64075,-0.7127 -1.60788,-1.31406 -2.9017,-1.8034 -1.29381,-0.49996 -5.62821,-0.64716 -7.26703,-0.64716 z m -130.698741,0.6026 -6.25563,0.0401 -4.64939,3.78835 -0.002,7.65022 4.68504,-2.71121 0.0725,14.4639 6.1498,-0.0122 0,-23.21913 z m 81.981471,1.08606 c 0.83146,-10e-5 1.68744,0.20262 2.04734,0.55694 0.12525,0.26618 0.17681,0.93647 0.18713,2.00947 l 0.0735,7.64131 c 0.009,0.98981 -0.0121,1.00262 -0.14704,1.28543 -0.74256,0.88683 -2.92143,0.82541 -3.94764,0.088 -0.12525,-0.24124 -0.23136,-0.26969 -0.24282,-1.44249 l -0.0736,-7.49205 c -0.0102,-1.03973 0.0667,-1.70102 0.20162,-1.98385 0.26227,-0.45958 1.06994,-0.66267 1.90141,-0.66276 z m 50.11186,5.0192 c 1.0633,-1.1e-4 2.1574,0.25977 2.61765,0.7129 0.16018,0.34039 0.22743,1.19758 0.2406,2.56975 l 0.0936,9.77218 c 0.0121,1.26581 -0.0158,1.28244 -0.18825,1.64411 -0.9496,1.13411 -3.73584,1.05552 -5.04817,0.11251 -0.16018,-0.3085 -0.29606,-0.34481 -0.31077,-1.8446 l -0.0936,-9.58173 c -0.013,-1.32963 0.0859,-2.17465 0.25844,-2.53633 0.33539,-0.58773 1.36721,-0.84868 2.43051,-0.84879 z m -72.04554,4.0724 -4.68615,0.0301 -3.48315,2.83819 -0.002,5.73099 3.50988,-2.03174 0.0546,10.83595 4.60706,-0.009 0,-17.39457 z m 41.63846,4.0969 -6.77135,0.0435 -5.03146,4.10025 -0.002,8.27957 5.07045,-2.93511 0.078,15.65466 6.65664,-0.0133 0,-25.12945 z m -132.431941,0.47563 -5.08827,0.0335 -3.78056,3.08103 -0.002,6.2211 3.81064,-2.20552 0.059,11.76385 5.00138,-0.0101 0,-18.88384 z m 12.67165,5.00028 c -1.30223,0 -2.4129,0.23074 -3.33166,0.69283 -0.91077,0.4621 -1.52188,1.07571 -1.83346,1.84127 -0.30359,0.76556 -0.45559,1.91728 -0.45559,3.4553 l 0,5.84572 c 0,1.17937 0.0355,3.43954 0.22723,3.98439 0.19175,0.53796 0.51483,1.05196 0.97021,1.54164 0.45537,0.48967 1.0665,0.85154 1.83346,1.08604 0.76697,0.22759 1.72991,0.34196 2.88833,0.34196 0.87881,0 3.57858,-0.041 4.28961,-0.26176 0.71104,-0.2207 1.27334,-0.71958 1.77665,-1.22306 0.50332,-0.50347 0.83494,-1.04471 0.99471,-1.62405 0.15978,-0.57934 0.29965,-2.90251 0.29965,-4.17154 l 0,-5.58617 c 0,-1.26903 -0.0755,-2.19315 -0.22724,-2.77249 -0.1438,-0.57934 -0.42332,-1.09959 -0.83875,-1.56168 -0.41545,-0.46209 -1.04252,-0.85233 -1.88138,-1.16959 -0.83886,-0.32415 -3.64921,-0.41881 -4.71177,-0.41881 z m 0.90449,4.34863 c 0.68939,-7e-5 1.39917,0.16849 1.69757,0.46227 0.10383,0.2207 0.14627,0.77561 0.15483,1.66528 l 0.0612,6.33693 c 0.008,0.8207 -0.0107,0.8315 -0.12253,1.066 -0.61568,0.73531 -2.42175,0.68382 -3.27262,0.0724 -0.10385,-0.20002 -0.19209,-0.2239 -0.20161,-1.19632 l -0.0612,-6.21218 c -0.008,-0.86208 0.0564,-1.40961 0.1682,-1.64412 0.21747,-0.38105 0.88676,-0.55018 1.57617,-0.55026 z m 84.755051,0.74854 c -1.29094,0 -2.3919,0.22919 -3.30269,0.68728 -0.90287,0.45809 -1.509,1.06563 -1.81788,1.82455 -0.30095,0.75893 -0.45113,1.90165 -0.45113,3.42633 l 0,5.79449 c 0,1.16915 0.035,3.40973 0.22501,3.94986 0.19008,0.5333 0.51097,1.04283 0.96241,1.52826 0.45143,0.48544 1.05644,0.84467 1.81676,1.07714 0.76031,0.22562 1.71542,0.33751 2.86382,0.33751 0.87119,0 3.54686,-0.0396 4.25173,-0.25842 0.70487,-0.21879 1.26211,-0.71281 1.76106,-1.21191 0.49897,-0.49912 0.82741,-1.03638 0.9858,-1.6107 0.1584,-0.57432 0.29742,-2.87674 0.29742,-4.13478 l 0,-5.53827 c 0,-1.25804 -0.0746,-2.17366 -0.22501,-2.74798 -0.14256,-0.57433 -0.42024,-1.09134 -0.83208,-1.54942 -0.41183,-0.45809 -1.03306,-0.84394 -1.86466,-1.15846 -0.83159,-0.32134 -3.6172,-0.41548 -4.67056,-0.41548 z m -24.35417,1.8201 c -1.02261,0 -1.89506,0.18183 -2.61653,0.54469 -0.7152,0.36287 -1.19448,0.84467 -1.43916,1.44584 -0.2384,0.60117 -0.35756,1.50569 -0.35756,2.71344 l 0,4.59036 c 0,0.92613 0.0266,2.70107 0.17711,3.12893 0.15057,0.42245 0.40542,0.82628 0.76302,1.21081 0.35759,0.38454 0.83688,0.66797 1.43915,0.85213 0.60227,0.17872 1.35821,0.26845 2.26789,0.26845 0.6901,0 2.81116,-0.0316 3.36953,-0.20497 0.55835,-0.17331 0.99935,-0.56481 1.39459,-0.96017 0.39524,-0.39536 0.65537,-0.82047 0.78084,-1.27541 0.12547,-0.45494 0.23615,-2.27943 0.23615,-3.27596 l 0,-4.38652 c 0,-0.99653 -0.0601,-1.72272 -0.17934,-2.17766 -0.11293,-0.45494 -0.33208,-0.86352 -0.65832,-1.22639 -0.32623,-0.36287 -0.81939,-0.66871 -1.47813,-0.91785 -0.65873,-0.25455 -2.86485,-0.32972 -3.69924,-0.32972 z m 25.24975,2.49067 c 0.68343,-7e-5 1.38727,0.16768 1.6831,0.45892 0.10293,0.21879 0.14638,0.76884 0.15482,1.65079 l 0.0601,6.28125 c 0.008,0.81358 -0.0105,0.82461 -0.12141,1.05709 -0.61035,0.72893 -2.40128,0.67852 -3.24477,0.0725 -0.10297,-0.19829 -0.18998,-0.2223 -0.19939,-1.1863 l -0.0612,-6.1576 c -0.008,-0.8546 0.0562,-1.39827 0.16707,-1.63074 0.21559,-0.37776 0.87826,-0.54573 1.56169,-0.54581 z m -24.5402,0.92453 c 0.54137,-6e-5 1.099,0.13243 1.33333,0.36313 0.0815,0.17332 0.1158,0.60908 0.12253,1.30771 l 0.0468,4.97576 c 0.006,0.64447 -0.008,0.6535 -0.0958,0.83765 -0.48349,0.57742 -1.90159,0.53694 -2.56975,0.0568 -0.0815,-0.15708 -0.15071,-0.17541 -0.15818,-0.93902 l -0.0479,-4.87774 c -0.007,-0.67697 0.0437,-1.10797 0.13145,-1.29211 0.17076,-0.29924 0.69617,-0.43214 1.23753,-0.4322 z m -68.896561,12.93565 c -3.39196,0.11393 -6.91622,1.12404 -9.63406,3.25369 l 0.45781,43.46079 -29.4825499,-21.438 0,122.00704 211.0160609,-0.2039 -0.0234,-67.64561 -71.6011,-54.17089 0.13144,52.81305 -20.04564,-15.39179 -0.11918,-58.94058 c -7.07475,-3.57767 -13.76003,-3.47215 -19.55329,-0.0568 l 0,44.14139 -29.840101,-21.88913 0.81426,52.14249 -21.18292,-16.70173 -0.50905,-57.84674 c -1.92553,-2.34496 -6.06718,-3.67975 -10.42828,-3.53327 z"
       id="path4206"
       inkscape:connector-curvature="0" />
    <g
       id="g4211"
       transform="translate(-204.91806,211.08393)">
      <path
         style="font-style:normal;font-variant:normal;font-weight:normal;font-stretch:normal;font-size:medium;line-height:125%;font-family:sans-serif;-inkscape-font-specification:sans-serif;letter-spacing:0px;word-spacing:0px;fill:#000000;fill-opacity:1;stroke:none;stroke-width:1px;stroke-linecap:butt;stroke-linejoin:miter;stroke-opacity:1"
         d="M 322.09961 88.628906 L 311.13867 103.39258 L 319.69531 103.39258 L 332.44531 88.628906 L 322.09961 88.628906 z M 597.31641 109.82422 C 584.67693 109.82422 574.72167 113.70184 567.45117 121.45703 C 560.18068 129.17494 556.54492 139.74552 556.54492 153.16797 C 556.54492 166.55314 560.18068 177.12371 567.45117 184.87891 C 574.72167 192.59682 584.67693 196.45508 597.31641 196.45508 C 602.23797 196.45508 606.89729 195.78365 611.29688 194.44141 C 615.73374 193.09917 619.92869 191.08684 623.88086 188.40234 L 623.88086 176.60156 C 620.07783 180.1436 616.01447 182.7906 611.68945 184.54297 C 607.40172 186.29535 602.83332 187.17188 597.98633 187.17188 C 588.44147 187.17188 581.13516 184.26367 576.06445 178.44727 C 570.99375 172.59359 568.45703 164.16693 568.45703 153.16797 C 568.45703 142.13173 570.99375 133.70507 576.06445 127.88867 C 581.13516 122.03499 588.44147 119.10742 597.98633 119.10742 C 602.83332 119.10742 607.40172 119.98395 611.68945 121.73633 C 616.01447 123.4887 620.07783 126.13569 623.88086 129.67773 L 623.88086 117.76562 C 620.00326 115.11842 615.84702 113.14285 611.41016 111.83789 C 607.01058 110.49564 602.31254 109.82422 597.31641 109.82422 z M 235.63672 111.33398 L 235.63672 194.83398 L 246.93359 194.83398 L 246.93359 154.95703 L 280.04297 154.95703 L 280.04297 145.44922 L 246.93359 145.44922 L 246.93359 120.8418 L 283.62109 120.8418 L 283.62109 111.33398 L 235.63672 111.33398 z M 312.64844 111.33398 L 280.76953 194.83398 L 292.68164 194.83398 L 300.28711 173.41406 L 337.92773 173.41406 L 345.5332 194.83398 L 357.27734 194.83398 L 325.45508 111.33398 L 312.64844 111.33398 z M 369.41406 111.33398 L 369.41406 194.83398 L 399.39062 194.83398 C 408.74906 194.83398 415.96445 192.8023 421.03516 188.73828 C 426.10586 184.67426 428.64062 178.912 428.64062 171.45508 C 428.64063 165.78782 427.09267 161.07239 423.99805 157.30664 C 420.94071 153.50361 416.63548 151.00561 411.08008 149.8125 C 415.70336 149.06681 419.20754 147.18412 421.59375 144.16406 C 423.97997 141.14402 425.17188 137.0787 425.17188 131.9707 C 425.17188 125.37133 422.84222 120.28244 418.18164 116.70312 C 413.52107 113.12381 406.88422 111.33398 398.27148 111.33398 L 369.41406 111.33398 z M 447.93555 111.33398 L 447.93555 194.83398 L 459.23242 194.83398 L 459.23242 159.54297 L 471.53711 159.54297 C 476.01126 159.54297 479.53283 160.45626 482.10547 162.2832 C 484.71539 164.11015 487.4011 167.82138 490.16016 173.41406 L 500.8418 194.83398 L 512.97852 194.83398 L 501.51367 172.01562 C 499.20203 167.31776 496.88977 163.6259 494.57812 160.94141 C 492.30377 158.25692 489.95475 156.50386 487.53125 155.68359 C 492.19183 154.34135 495.7347 151.93818 498.1582 148.4707 C 500.61898 145.00324 501.84766 140.63994 501.84766 135.38281 C 501.84766 127.32934 499.50059 121.30781 494.80273 117.31836 C 490.10487 113.32891 482.98235 111.33398 473.4375 111.33398 L 447.93555 111.33398 z M 527.57422 111.33398 L 527.57422 194.83398 L 538.87305 194.83398 L 538.87305 111.33398 L 527.57422 111.33398 z M 662.97461 111.33398 L 631.0957 194.83398 L 643.00781 194.83398 L 650.61328 173.41406 L 688.25195 173.41406 L 695.85938 194.83398 L 707.60352 194.83398 L 675.78125 111.33398 L 662.97461 111.33398 z M 380.71094 120.61914 L 397.43359 120.61914 C 402.95171 120.61914 407.05184 121.66206 409.73633 123.75 C 412.45811 125.83793 413.82031 128.98801 413.82031 133.20117 C 413.82031 137.45162 412.45811 140.62105 409.73633 142.70898 C 407.05184 144.75964 402.95171 145.78516 397.43359 145.78516 L 380.71094 145.78516 L 380.71094 120.61914 z M 459.23242 120.61914 L 473.4375 120.61914 C 478.88105 120.61914 482.98313 121.86717 485.74219 124.36523 C 488.53853 126.82602 489.93555 130.49853 489.93555 135.38281 C 489.93555 140.26709 488.53853 143.97637 485.74219 146.51172 C 482.98313 149.00979 478.88105 150.25977 473.4375 150.25977 L 459.23242 150.25977 L 459.23242 120.61914 z M 319.02344 122.46484 L 334.4043 164.01758 L 303.69922 164.01758 L 319.02344 122.46484 z M 669.34961 122.46484 L 684.73047 164.01758 L 654.02539 164.01758 L 669.34961 122.46484 z M 380.71094 154.95703 L 398.83203 154.95703 C 404.90942 154.95703 409.40235 156.207 412.31055 158.70508 C 415.25603 161.16586 416.72852 165.00476 416.72852 170.22461 C 416.72852 175.40717 415.25603 179.26738 412.31055 181.80273 C 409.40235 184.3008 404.90942 185.54883 398.83203 185.54883 L 380.71094 185.54883 L 380.71094 154.95703 z M 368.94531 205.82031 C 365.31235 205.82031 362.45879 206.66503 360.38281 208.35547 C 358.32167 210.04591 357.29102 212.3589 357.29102 215.29492 C 357.29102 217.83058 358.03944 219.81085 359.53711 221.23438 C 361.03478 222.6579 363.45933 223.70382 366.81055 224.37109 L 369.54688 224.9043 C 371.83045 225.36398 373.46744 226.0533 374.46094 226.97266 C 375.46927 227.89202 375.97461 229.16771 375.97461 230.79883 C 375.97461 232.66721 375.27668 234.10495 373.88281 235.11328 C 372.48894 236.12161 370.51063 236.62695 367.94531 236.62695 C 366.25488 236.62695 364.53491 236.36665 362.78516 235.84766 C 361.0354 235.32866 359.24772 234.55832 357.42383 233.53516 L 357.42383 238.16016 C 359.32186 238.85709 361.15339 239.38435 362.91797 239.74023 C 364.69738 240.09611 366.37351 240.27344 367.94531 240.27344 C 372.11209 240.27344 375.2698 239.44398 377.41992 237.7832 C 379.58487 236.12242 380.66797 233.6826 380.66797 230.46484 C 380.66797 227.76607 379.86709 225.61709 378.26562 224.01562 C 376.67899 222.39933 374.2106 221.27239 370.85938 220.63477 L 368.14453 220.07812 C 365.68301 219.61844 364.00689 219.01681 363.11719 218.27539 C 362.24231 217.51914 361.80664 216.40747 361.80664 214.93945 C 361.80664 213.1897 362.46542 211.84159 363.78516 210.89258 C 365.11971 209.94356 367.01034 209.46875 369.45703 209.46875 C 370.86573 209.46875 372.32735 209.66799 373.83984 210.06836 C 375.35234 210.46873 376.96075 211.07702 378.66602 211.89258 L 378.66602 207.51172 C 376.97558 206.94824 375.32137 206.52393 373.70508 206.24219 C 372.08878 205.96045 370.50229 205.82031 368.94531 205.82031 z M 416.0625 205.82031 C 411.39155 205.82031 407.65608 207.38488 404.85352 210.51367 C 402.06578 213.62764 400.67188 217.80934 400.67188 223.05859 C 400.67188 228.30785 402.06578 232.48955 404.85352 235.60352 C 407.65608 238.71748 411.39155 240.27344 416.0625 240.27344 C 420.71862 240.27344 424.44078 238.71748 427.22852 235.60352 C 430.01626 232.47472 431.41016 228.29302 431.41016 223.05859 C 431.41016 217.80934 430.01626 213.62764 427.22852 210.51367 C 424.44078 207.38488 420.71862 205.82031 416.0625 205.82031 z M 235.64648 206.42188 L 235.64648 239.62891 L 244.87695 239.62891 C 251.28282 239.62891 255.99844 238.28746 259.02344 235.60352 C 262.04843 232.91958 263.56055 228.71595 263.56055 222.99219 C 263.56055 217.29808 262.05509 213.11638 259.04492 210.44727 C 256.03476 207.76333 251.31248 206.42188 244.87695 206.42188 L 235.64648 206.42188 z M 285.60938 206.42188 L 285.60938 239.62891 L 307.00781 239.62891 L 307.00781 235.84766 L 290.10352 235.84766 L 290.10352 223.81445 L 305.91797 223.81445 L 305.91797 220.0332 L 290.10352 220.0332 L 290.10352 210.20312 L 306.60742 210.20312 L 306.60742 206.42188 L 285.60938 206.42188 z M 453.34961 206.42188 L 453.34961 239.62891 L 457.8418 239.62891 L 457.8418 223.76953 L 471.00977 223.76953 L 471.00977 219.98828 L 457.8418 219.98828 L 457.8418 210.20312 L 472.43359 210.20312 L 472.43359 206.42188 L 453.34961 206.42188 z M 489.09961 206.42188 L 489.09961 210.20312 L 500.88867 210.20312 L 500.88867 239.62891 L 505.4043 239.62891 L 505.4043 210.20312 L 517.19336 210.20312 L 517.19336 206.42188 L 489.09961 206.42188 z M 533.50391 206.42188 L 541.82227 239.62891 L 547.47266 239.62891 L 554.54492 210.80273 L 561.55273 239.62891 L 567.20117 239.62891 L 575.54297 206.42188 L 570.98242 206.42188 L 564.02148 234.49023 L 557.03711 206.42188 L 551.98828 206.42188 L 545.02539 234.49023 L 538.04102 206.42188 L 533.50391 206.42188 z M 602.46289 206.42188 L 589.78516 239.62891 L 594.52344 239.62891 L 597.54688 231.10938 L 612.51758 231.10938 L 615.54297 239.62891 L 620.21289 239.62891 L 607.55664 206.42188 L 602.46289 206.42188 z M 639.94922 206.42188 L 639.94922 239.62891 L 644.44336 239.62891 L 644.44336 225.59375 L 649.33594 225.59375 C 651.11535 225.59375 652.5159 225.95701 653.53906 226.68359 C 654.57705 227.41019 655.64489 228.88511 656.74219 231.10938 L 660.99023 239.62891 L 665.81836 239.62891 L 661.25781 230.55469 C 660.33845 228.68631 659.41936 227.21804 658.5 226.15039 C 657.59547 225.08274 656.66111 224.38481 655.69727 224.05859 C 657.55081 223.52477 658.95998 222.56849 659.92383 221.18945 C 660.9025 219.81041 661.39062 218.07518 661.39062 215.98438 C 661.39062 212.78144 660.45822 210.38742 658.58984 208.80078 C 656.72146 207.21414 653.88787 206.42188 650.0918 206.42188 L 639.94922 206.42188 z M 686.5332 206.42188 L 686.5332 239.62891 L 707.92969 239.62891 L 707.92969 235.84766 L 691.02539 235.84766 L 691.02539 223.81445 L 706.83984 223.81445 L 706.83984 220.0332 L 691.02539 220.0332 L 691.02539 210.20312 L 707.5293 210.20312 L 707.5293 206.42188 L 686.5332 206.42188 z M 416.0625 209.46875 C 419.32475 209.46875 421.90469 210.68337 423.80273 213.11523 C 425.71559 215.54709 426.67188 218.86215 426.67188 223.05859 C 426.67187 227.2402 425.71559 230.54666 423.80273 232.97852 C 421.90469 235.41038 419.32475 236.62695 416.0625 236.62695 C 412.80025 236.62695 410.20504 235.41038 408.27734 232.97852 C 406.36448 230.54666 405.4082 227.2402 405.4082 223.05859 C 405.4082 218.86215 406.36448 215.54709 408.27734 213.11523 C 410.20504 210.68337 412.80025 209.46875 416.0625 209.46875 z M 240.13867 210.11328 L 245.56641 210.11328 C 250.14838 210.11328 253.49868 211.15058 255.61914 213.22656 C 257.75443 215.28771 258.82227 218.54367 258.82227 222.99219 C 258.82227 227.47037 257.75443 230.74629 255.61914 232.82227 C 253.49868 234.89825 250.14838 235.9375 245.56641 235.9375 L 240.13867 235.9375 L 240.13867 210.11328 z M 644.44336 210.11328 L 650.0918 210.11328 C 652.25674 210.11328 653.88903 210.61001 654.98633 211.60352 C 656.09846 212.58219 656.6543 214.04185 656.6543 215.98438 C 656.6543 217.9269 656.09846 219.40378 654.98633 220.41211 C 653.88903 221.40561 652.25674 221.90234 650.0918 221.90234 L 644.44336 221.90234 L 644.44336 210.11328 z M 605 210.84766 L 611.11523 227.37305 L 598.9043 227.37305 L 605 210.84766 z M 441.22461 257.68164 C 438.00529 257.68164 435.46901 258.66925 433.61719 260.64453 C 431.76537 262.61031 430.83984 265.30391 430.83984 268.72266 C 430.83984 272.13192 431.76537 274.82355 433.61719 276.79883 C 435.46901 278.76461 438.00529 279.74805 441.22461 279.74805 C 442.47815 279.74805 443.66456 279.57626 444.78516 279.23438 C 445.91524 278.8925 446.9836 278.37906 447.99023 277.69531 L 447.99023 274.69141 C 447.02159 275.59358 445.98637 276.26655 444.88477 276.71289 C 443.79267 277.15922 442.62908 277.38281 441.39453 277.38281 C 438.96342 277.38281 437.10207 276.64162 435.81055 275.16016 C 434.51902 273.6692 433.87305 271.52414 433.87305 268.72266 C 433.87305 265.91169 434.51902 263.76466 435.81055 262.2832 C 437.10207 260.79224 438.96342 260.04688 441.39453 260.04688 C 442.62908 260.04688 443.79267 260.27046 444.88477 260.7168 C 445.98637 261.16314 447.02159 261.83611 447.99023 262.73828 L 447.99023 259.70508 C 447.00259 259.03082 445.94454 258.52769 444.81445 258.19531 C 443.69386 257.85344 442.49714 257.68164 441.22461 257.68164 z M 483.89062 257.68164 C 481.56397 257.68164 479.73576 258.22404 478.40625 259.30664 C 477.08623 260.38925 476.42578 261.86969 476.42578 263.75 C 476.42578 265.37391 476.90608 266.64302 477.86523 267.55469 C 478.82438 268.46635 480.37722 269.13515 482.52344 269.5625 L 484.27539 269.9043 C 485.73785 270.19869 486.7856 270.63973 487.42188 271.22852 C 488.06764 271.8173 488.39062 272.63507 488.39062 273.67969 C 488.39063 274.87625 487.94541 275.7976 487.05273 276.44336 C 486.16006 277.08913 484.89095 277.41211 483.24805 277.41211 C 482.16544 277.41211 481.06395 277.24449 479.94336 276.91211 C 478.82277 276.57973 477.67979 276.0869 476.51172 275.43164 L 476.51172 278.39453 C 477.72728 278.84087 478.89921 279.17834 480.0293 279.40625 C 481.16888 279.63417 482.24141 279.74805 483.24805 279.74805 C 485.91657 279.74805 487.93941 279.21596 489.31641 278.15234 C 490.7029 277.08873 491.39648 275.52559 491.39648 273.46484 C 491.39648 271.73648 490.88499 270.35961 489.85938 269.33398 C 488.84324 268.29886 487.26145 267.57828 485.11523 267.16992 L 483.37695 266.8125 C 481.80053 266.51811 480.728 266.13498 480.1582 265.66016 C 479.59791 265.17584 479.31836 264.4636 479.31836 263.52344 C 479.31836 262.40285 479.74075 261.53747 480.58594 260.92969 C 481.44063 260.32191 482.64987 260.01758 484.2168 260.01758 C 485.11896 260.01758 486.05479 260.14594 487.02344 260.40234 C 487.99208 260.65875 489.02313 261.048 490.11523 261.57031 L 490.11523 258.76562 C 489.03263 258.40476 487.97263 258.13356 486.9375 257.95312 C 485.90238 257.77269 484.88776 257.68164 483.89062 257.68164 z M 311.41602 258.06641 L 311.41602 271.34375 C 311.41602 274.11674 312.0993 276.21002 313.4668 277.625 C 314.8438 279.03999 316.87694 279.74805 319.56445 279.74805 C 322.24247 279.74805 324.26531 279.03999 325.63281 277.625 C 327.00981 276.21002 327.69727 274.11674 327.69727 271.34375 L 327.69727 258.06641 L 324.80664 258.06641 L 324.80664 270.98633 C 324.80664 273.26549 324.39261 274.90938 323.56641 275.91602 C 322.74021 276.91315 321.40678 277.41211 319.56445 277.41211 C 317.71263 277.41211 316.37308 276.91315 315.54688 275.91602 C 314.72068 274.90938 314.30664 273.26549 314.30664 270.98633 L 314.30664 258.06641 L 311.41602 258.06641 z M 335.58984 258.06641 L 335.58984 279.33398 L 338.46875 279.33398 L 338.46875 269.17773 L 346.90039 269.17773 L 346.90039 266.75586 L 338.46875 266.75586 L 338.46875 260.48828 L 347.8125 260.48828 L 347.8125 258.06641 L 335.58984 258.06641 z M 354.87891 258.06641 L 354.87891 279.33398 L 357.75586 279.33398 L 357.75586 270.78711 L 361.375 270.78711 C 363.75863 270.78711 365.55788 270.25084 366.77344 269.17773 C 367.99848 268.10463 368.61133 266.51866 368.61133 264.41992 C 368.61133 262.34018 367.99848 260.76452 366.77344 259.69141 C 365.55788 258.60881 363.75863 258.06641 361.375 258.06641 L 354.87891 258.06641 z M 378.57031 258.06641 L 370.45117 279.33398 L 373.48438 279.33398 L 375.42188 273.87891 L 385.00781 273.87891 L 386.94531 279.33398 L 389.9375 279.33398 L 381.83203 258.06641 L 378.57031 258.06641 z M 460.42773 258.06641 L 452.30859 279.33398 L 455.3418 279.33398 L 457.2793 273.87891 L 466.86523 273.87891 L 468.80273 279.33398 L 471.79492 279.33398 L 463.68945 258.06641 L 460.42773 258.06641 z M 495.41602 258.06641 L 495.41602 260.48828 L 502.96484 260.48828 L 502.96484 279.33398 L 505.85742 279.33398 L 505.85742 260.48828 L 513.40625 260.48828 L 513.40625 258.06641 L 495.41602 258.06641 z M 521.88281 258.06641 L 513.76367 279.33398 L 516.79883 279.33398 L 518.73633 273.87891 L 528.32227 273.87891 L 530.25977 279.33398 L 533.25195 279.33398 L 525.14648 258.06641 L 521.88281 258.06641 z M 538.82227 258.06641 L 538.82227 279.33398 L 541.61328 279.33398 L 541.61328 261.54297 L 551.04492 279.33398 L 554.91797 279.33398 L 554.91797 258.06641 L 552.12695 258.06641 L 552.12695 275.85938 L 542.69727 258.06641 L 538.82227 258.06641 z M 563.125 258.06641 L 563.125 279.33398 L 566.00195 279.33398 L 566.00195 269.20703 L 576.45898 269.20703 L 576.45898 279.33398 L 579.33594 279.33398 L 579.33594 258.06641 L 576.45898 258.06641 L 576.45898 266.78516 L 566.00195 266.78516 L 566.00195 258.06641 L 563.125 258.06641 z M 593.02734 258.06641 L 584.90625 279.33398 L 587.94141 279.33398 L 589.87891 273.87891 L 599.46484 273.87891 L 601.40234 279.33398 L 604.39453 279.33398 L 596.28906 258.06641 L 593.02734 258.06641 z M 609.96484 258.06641 L 609.96484 279.33398 L 623.19922 279.33398 L 623.19922 276.91211 L 612.8418 276.91211 L 612.8418 258.06641 L 609.96484 258.06641 z M 357.75586 260.43164 L 361.375 260.43164 C 362.71401 260.43164 363.74924 260.77746 364.48047 261.4707 C 365.2117 262.16395 365.57617 263.14738 365.57617 264.41992 C 365.57617 265.70195 365.2117 266.68957 364.48047 267.38281 C 363.74924 268.07606 362.71401 268.42188 361.375 268.42188 L 357.75586 268.42188 L 357.75586 260.43164 z M 380.19336 260.90234 L 384.11133 271.48633 L 376.29102 271.48633 L 380.19336 260.90234 z M 462.05078 260.90234 L 465.96875 271.48633 L 458.14844 271.48633 L 462.05078 260.90234 z M 523.50781 260.90234 L 527.42578 271.48633 L 519.60547 271.48633 L 523.50781 260.90234 z M 594.65039 260.90234 L 598.56836 271.48633 L 590.74805 271.48633 L 594.65039 260.90234 z M 405.83789 270.17578 L 405.83789 272.51172 L 413.51562 272.51172 L 413.51562 270.17578 L 405.83789 270.17578 z "
         transform="translate(204.91806,559.27817)"
         id="path4272" />
    </g>
  </g>
</svg>
