<?xml version="1.0" encoding="UTF-8" standalone="no"?>
<svg
   xmlns:dc="http://purl.org/dc/elements/1.1/"
   xmlns:cc="http://creativecommons.org/ns#"
   xmlns:rdf="http://www.w3.org/1999/02/22-rdf-syntax-ns#"
   xmlns:svg="http://www.w3.org/2000/svg"
   xmlns="http://www.w3.org/2000/svg"
   xmlns:sodipodi="http://sodipodi.sourceforge.net/DTD/sodipodi-0.dtd"
   xmlns:inkscape="http://www.inkscape.org/namespaces/inkscape"
   version="1.1"
   width="237"
   height="64"
   id="svg28028"
   inkscape:version="0.91 r13725"
   viewBox="0 0 237 64"
   sodipodi:docname="Logo Facomp.svg">
  <metadata
     id="metadata41679">
    <rdf:RDF>
      <cc:Work
         rdf:about="">
        <dc:format>image/svg+xml</dc:format>
        <dc:type
           rdf:resource="http://purl.org/dc/dcmitype/StillImage" />
        <dc:title />
      </cc:Work>
    </rdf:RDF>
  </metadata>
  <defs
     id="defs41677">
    <clipPath
       id="clipPath18"
       clipPathUnits="userSpaceOnUse">
      <path
         inkscape:connector-curvature="0"
         id="path20"
         d="m 0,1100 1024,0 L 1024,0 0,0 0,1100 Z" />
    </clipPath>
    <clipPath
       id="clipPath26"
       clipPathUnits="userSpaceOnUse">
      <path
         inkscape:connector-curvature="0"
         id="path28"
         d="m -23,698.598 1057,0 0,-358.598 -1057,0 0,358.598 z" />
    </clipPath>
    <clipPath
       id="clipPath48"
       clipPathUnits="userSpaceOnUse">
      <path
         inkscape:connector-curvature="0"
         id="path50"
         d="m 0,1100 1024,0 L 1024,0 0,0 0,1100 Z" />
    </clipPath>
    <clipPath
       id="clipPath56"
       clipPathUnits="userSpaceOnUse">
      <path
         inkscape:connector-curvature="0"
         id="path58"
         d="m 473.828,1054.19 87.55,0 0,-118.002 -87.55,0 0,118.002 z" />
    </clipPath>
    <clipPath
       id="clipPath60"
       clipPathUnits="userSpaceOnUse">
      <path
         inkscape:connector-curvature="0"
         id="path62"
         d="m 553.768,1024.858 c -0.344,0.35 -0.738,0.647 -1.17,0.88 -1.406,0.732 -2.848,1.393 -4.32,1.98 l -12.62,12.81 c -0.382,0.32 -0.802,0.592 -1.25,0.81 l -8.28,8.48 c -0.23,-0.09 -7.88,8.28 -23.8,2.08 -13.89,-6.37 -9,-19.75 -8.69,-21.23 0.31,-1.48 5.94,-8.95 7.49,-9.23 l 12.39,-12.72 0,-12.64 -2.39,-1.11 -32.07,32.75 -5.23,-2.38 37.2,-81.42 7.5,-7.73 30.05,20.39 9.52,6.55 3.16,2.15 0.12,48.52 0,3.31 -7.61,7.75 z" />
    </clipPath>
    <clipPath
       id="clipPath64"
       clipPathUnits="userSpaceOnUse">
      <path
         inkscape:connector-curvature="0"
         id="path66"
         d="m -32768,32767 65535,0 0,-65535 -65535,0 0,65535 z" />
    </clipPath>
    <linearGradient
       id="linearGradient68"
       spreadMethod="pad"
       gradientTransform="matrix(0,446.9556,-446.9556,0,517.60291,601.49762)"
       gradientUnits="userSpaceOnUse"
       y2="0"
       x2="1"
       y1="0"
       x1="0">
      <stop
         id="stop70"
         offset="0"
         style="stop-opacity:0;stop-color:#ffffff" />
      <stop
         id="stop72"
         offset="0.25"
         style="stop-opacity:0.25000381;stop-color:#ffffff" />
      <stop
         id="stop74"
         offset="1"
         style="stop-opacity:1;stop-color:#ffffff" />
    </linearGradient>
    <mask
       id="mask76"
       height="1"
       width="1"
       y="0"
       x="0"
       maskUnits="userSpaceOnUse">
      <g
         id="g78">
        <g
           id="g80"
           clip-path="url(#clipPath64)">
          <g
             id="g82">
            <g
               id="g84">
              <path
                 inkscape:connector-curvature="0"
                 id="path86"
                 style="fill:url(#linearGradient68);stroke:none"
                 d="m -32768,32767 65535,0 0,-65535 -65535,0 0,65535 z" />
            </g>
          </g>
        </g>
      </g>
    </mask>
    <linearGradient
       id="linearGradient88"
       spreadMethod="pad"
       gradientTransform="matrix(0,446.9556,-446.9556,0,517.60291,601.49762)"
       gradientUnits="userSpaceOnUse"
       y2="0"
       x2="1"
       y1="0"
       x1="0">
      <stop
         id="stop90"
         offset="0"
         style="stop-opacity:1;stop-color:#ffffff" />
      <stop
         id="stop92"
         offset="0.25"
         style="stop-opacity:1;stop-color:#cdced3" />
      <stop
         id="stop94"
         offset="1"
         style="stop-opacity:1;stop-color:#000000" />
    </linearGradient>
    <clipPath
       id="clipPath122"
       clipPathUnits="userSpaceOnUse">
      <path
         inkscape:connector-curvature="0"
         id="path124"
         d="m 0,1100 1024,0 L 1024,0 0,0 0,1100 Z" />
    </clipPath>
    <clipPath
       id="clipPath158"
       clipPathUnits="userSpaceOnUse">
      <path
         inkscape:connector-curvature="0"
         id="path160"
         d="m 0,1100 1024,0 L 1024,0 0,0 0,1100 Z" />
    </clipPath>
    <clipPath
       id="clipPath1350"
       clipPathUnits="userSpaceOnUse">
      <path
         inkscape:connector-curvature="0"
         id="path1352"
         d="m 714.223,579.829 0,-11.657 c 2.818,-36.659 31.995,-65.94 68.608,-68.922 l 0,0 12.339,0 C 833.703,502.389 864,534.657 864,574 l 0,0 c 0,41.422 -33.579,75 -75,75 l 0,0 c -39.459,0 -71.802,-30.474 -74.777,-69.171" />
    </clipPath>
    <clipPath
       id="clipPath1362"
       clipPathUnits="userSpaceOnUse">
      <path
         inkscape:connector-curvature="0"
         id="path1364"
         d="m 157.333,578.122 0,-14.245 C 160.65,528.67 188.301,500.546 223.29,496.5 l 0,0 17.42,0 C 278.029,500.815 307,532.524 307,571 l 0,0 c 0,41.421 -33.578,75 -75,75 l 0,0 c -39.02,0 -71.08,-29.796 -74.667,-67.878" />
    </clipPath>
    <clipPath
       id="clipPath1374"
       clipPathUnits="userSpaceOnUse">
      <path
         inkscape:connector-curvature="0"
         id="path1376"
         d="m 437,580 c 0,-41.421 33.578,-75 75,-75 l 0,0 c 41.422,0 75,33.579 75,75 l 0,0 c 0,41.421 -33.578,75 -75,75 l 0,0 c -41.422,0 -75,-33.579 -75,-75" />
    </clipPath>
    <clipPath
       id="clipPath1402"
       clipPathUnits="userSpaceOnUse">
      <path
         inkscape:connector-curvature="0"
         id="path1404"
         d="m 0,1100 1024,0 L 1024,0 0,0 0,1100 Z" />
    </clipPath>
    <clipPath
       id="clipPath1418"
       clipPathUnits="userSpaceOnUse">
      <path
         inkscape:connector-curvature="0"
         id="path1420"
         d="m 0,1100 1024,0 L 1024,0 0,0 0,1100 Z" />
    </clipPath>
    <clipPath
       id="clipPath1434"
       clipPathUnits="userSpaceOnUse">
      <path
         inkscape:connector-curvature="0"
         id="path1436"
         d="m 0,1100 1024,0 L 1024,0 0,0 0,1100 Z" />
    </clipPath>
  </defs>
  <sodipodi:namedview
     pagecolor="#ffffff"
     bordercolor="#666666"
     borderopacity="1"
     objecttolerance="10"
     gridtolerance="10"
     guidetolerance="10"
     inkscape:pageopacity="0"
     inkscape:pageshadow="2"
     inkscape:window-width="1319"
     inkscape:window-height="744"
     id="namedview41675"
     showgrid="false"
     width="841px"
     inkscape:zoom="3.1714784"
     inkscape:cx="106.34456"
     inkscape:cy="45.513724"
     inkscape:window-x="47"
     inkscape:window-y="24"
     inkscape:window-maximized="1"
     inkscape:current-layer="svg28028" />
  <path
     d="m 4.2201118,49.06983 c 1.2405,0.3752 2.1437,1.5272 2.1437,2.8899 0,1.6672 -1.3519,3.0191 -3.0191,3.0191 -1.6673,0 -3.01910007,-1.3519 -3.01910007,-3.0191 0,-1.3429 0.87690007,-2.4807 2.08920007,-2.8728 l 0.1384,-38.0297 25.9742992,-0.2684 c 0.4923,-1.3348 1.7758,-2.2866 3.2814,-2.2866 1.9307,0 3.4961,1.5654 3.4961,3.4962 0,1.9308 -1.5654,3.4961 -3.4961,3.4961 -1.4386,0 -2.674,-0.8691 -3.2105,-2.1106 L 4.5658118,13.31733 Z M 31.808911,10.35403 c 0.908,0 1.6444,0.7363 1.6444,1.6444 0,0.908 -0.7364,1.6444 -1.6444,1.6444 -0.9081,0 -1.6445,-0.7364 -1.6445,-1.6444 0,-0.9081 0.7364,-1.6444 1.6445,-1.6444 z M 3.3447118,50.53973 c 0.7842,0 1.4199,0.6358 1.4199,1.42 0,0.7842 -0.6357,1.4199 -1.4199,1.4199 -0.7842,0 -1.42,-0.6357 -1.42,-1.4199 0,-0.7842 0.6358,-1.42 1.42,-1.42 z m 7.6756992,-1.4428 c 1.2867,0.3736 2.2272,1.5612 2.2272,2.9683 0,1.7065 -1.3839,3.0904 -3.0906,3.0904 -1.7065992,0 -3.0903992,-1.3839 -3.0903992,-3.0904 0,-1.2999 0.8027,-2.4124 1.9393,-2.869 l -0.1324,-12.4658 22.9549992,0.0705 10.3121,-19.9178 10.9116,21.9654 -11.8991,0.0497 c -0.4324,1.162 -1.5515,1.99 -2.8638,1.99 -1.6871,0 -3.055,-1.3679 -3.055,-3.0548 0,-1.6871 1.3679,-3.0549 3.055,-3.0549 1.4396,0 2.6466,0.9964 2.9697,2.3372 l 8.8256,-0.0171 -7.9466,-15.5917 -8.8643,17.6583 -22.1074,-0.1414 z m 27.2689,-12.7005 c 0.7934,0 1.4368,0.6434 1.4368,1.437 0,0.7934 -0.6434,1.4368 -1.4368,1.4368 -0.7936,0 -1.437,-0.6434 -1.437,-1.4368 0,-0.7936 0.6434,-1.437 1.437,-1.437 z m -28.1323,14.2151 c 0.8028,0 1.4537,0.6509 1.4537,1.4537 0,0.8025 -0.6509,1.4535 -1.4537,1.4535 -0.8025992,0 -1.4534992,-0.651 -1.4534992,-1.4535 0,-0.8028 0.6509,-1.4537 1.4534992,-1.4537 z m 18.4557,-35.3463 c 1.9308,0 3.4962,1.5654 3.4962,3.4961 0,1.9308 -1.5654,3.4962 -3.4962,3.4962 -1.5314,0 -2.8326,-0.9849 -3.3056,-2.3557 l -14.2871,0.0328 -0.0707,10.3831 16.6691,0.0706 9.9593,-19.4932 9.085,0.1057 21.0037,41.9372 -42.1291,0.0519 c -0.3872,1.5092 -1.757,2.6249 -3.3869,2.6249 -1.9307,0 -3.4961,-1.5654 -3.4961,-3.4962 0,-1.9308 1.5654,-3.4962 3.4961,-3.4962 1.6064,0 2.96,1.0838 3.3694,2.5599 l 0.1556,0.006 38.4581,-0.5828 -18.8929,-37.4695 -6.339,-0.0704 -9.4823,19.4763 -20.6239992,0.1412 -0.1413,-15.1149 16.6596992,0.0329 c 0.4783,-1.3608 1.7749,-2.3363 3.299,-2.3363 z m -6.4623,35.209 c 0.9081,0 1.6444,0.7363 1.6444,1.6444 0,0.908 -0.7363,1.6444 -1.6444,1.6444 -0.908,0 -1.6444,-0.7364 -1.6444,-1.6444 0,-0.9081 0.7364,-1.6444 1.6444,-1.6444 z m 6.4623,-33.3573 c 0.9081,0 1.6444,0.7364 1.6444,1.6444 0,0.9081 -0.7363,1.6445 -1.6444,1.6445 -0.908,0 -1.6444,-0.7364 -1.6444,-1.6445 0,-0.908 0.7364,-1.6444 1.6444,-1.6444 z"
     style="fill:#00880a;fill-rule:evenodd;fill-opacity:1"
     id="path41673"
     inkscape:connector-curvature="0"
     sodipodi:nodetypes="cssscccssscccsssssssssscsssccccccsssccccccsssssssssscssccccccccssscccccccccccssssssssss" />
  <path
     d="m 94.284056,0.93181646 c 11.181694,0 20.996594,5.84700004 26.557494,14.64939954 0.1454,-0.0211 0.2941,-0.0324 0.4453,-0.0324 1.6869,0 3.0547,1.3678 3.0547,3.0549 0,1.6869 -1.3678,3.0548 -3.0547,3.0548 -1.6872,0 -3.055,-1.3679 -3.055,-3.0548 0,-0.88 0.3724,-1.673 0.9678,-2.2304 -5.1907,-8.1377995 -14.2962,-13.5356995 -24.663894,-13.5356995 -16.146098,0 -29.235298,13.0891995 -29.235298,29.2354995 0,16.1461 13.0892,29.2353 29.235298,29.2353 10.497094,0 19.701494,-5.5324 24.857894,-13.8401 -0.6149,-0.5588 -1.0008,-1.3648 -1.0008,-2.2609 0,-1.6871 1.3679,-3.055 3.055,-3.055 1.6869,0 3.0547,1.3679 3.0547,3.055 0,1.6869 -1.3678,3.0547 -3.0547,3.0547 -0.0372,0 -0.0741,-10e-4 -0.1111,-0.002 -5.4613,9.2511 -15.5319,15.458 -27.052694,15.458 -17.337798,0 -31.392998,-14.0551 -31.392998,-31.3931 0,-17.3378 14.0552,-31.39289954 31.392998,-31.39289954 z M 113.94125,15.513316 c 1.6869,0 3.0547,1.3679 3.0547,3.055 0,1.6869 -1.3678,3.0547 -3.0547,3.0547 -1.6871,0 -3.055,-1.3678 -3.055,-3.0547 0,-0.7238 0.2518,-1.3888 0.6725,-1.9122 -4.171,-4.733999 -10.2786,-7.720399 -17.083794,-7.720399 -12.570698,0 -22.761098,10.190399 -22.761098,22.761299 0,12.5707 10.1904,22.7611 22.761098,22.7611 6.770594,0 12.849794,-2.9565 17.019094,-7.6484 -0.391,-0.5134 -0.6236,-1.1543 -0.6236,-1.8494 0,-1.6871 1.3679,-3.0549 3.055,-3.0549 1.6869,0 3.0547,1.3678 3.0547,3.0549 0,1.6869 -1.3678,3.0548 -3.0547,3.0548 -0.1455,0 -0.2883,-0.0107 -0.4282,-0.0302 -4.596,5.4276 -11.4591,8.8743 -19.128194,8.8743 -13.838398,0 -25.056298,-11.2179 -25.056298,-25.0562 0,-13.8384 11.2179,-25.0561995 25.056298,-25.0561995 7.638094,0 14.477294,3.4180005 19.073294,8.8072995 0.1625,-0.0267 0.3289,-0.0408 0.4989,-0.0408 z m 0,1.618 c 0.7934,0 1.4368,0.6434 1.4368,1.437 0,0.7934 -0.6434,1.4368 -1.4368,1.4368 -0.7936,0 -1.4371,-0.6434 -1.4371,-1.4368 0,-0.7936 0.6435,-1.437 1.4371,-1.437 z m 7.3456,0.0354 c 0.7933,0 1.4368,0.6435 1.4368,1.437 0,0.7934 -0.6435,1.4369 -1.4368,1.4369 -0.7936,0 -1.4371,-0.6435 -1.4371,-1.4369 0,-0.7935 0.6435,-1.437 1.4371,-1.437 z m -7.3614,26.3566 c 0.7934,0 1.4368,0.6434 1.4368,1.437 0,0.7934 -0.6434,1.4368 -1.4368,1.4368 -0.7936,0 -1.4371,-0.6434 -1.4371,-1.4368 0,-0.7936 0.6435,-1.437 1.4371,-1.437 z m 7.5224,0.2471 c 0.7933,0 1.4368,0.6434 1.4368,1.437 0,0.7934 -0.6435,1.4368 -1.4368,1.4368 -0.7936,0 -1.4371,-0.6434 -1.4371,-1.4368 0,-0.7936 0.6435,-1.437 1.4371,-1.437 z"
     style="fill:#41c81f;fill-rule:evenodd;fill-opacity:1"
     id="path41673-5"
     inkscape:connector-curvature="0"
     sodipodi:nodetypes="ccsssscssscsssscssccsssscssscsssscssscsssssssssssssssssssss" />
  <path
     d="m 153.44026,26.327132 0.1373,14.9726 -5.1912,5.1562 -14.9389,0.1057 -0.0358,-23.9086 5.0498,-4.6968 28.5348,-0.1411 0.103,31.4956 c 1.1233,0.4628 1.9145,1.5684 1.9145,2.8587 0,1.7066 -1.3838,3.0904 -3.0906,3.0904 -1.7065,0 -3.0904,-1.3838 -3.0904,-3.0904 0,-1.3668 0.8873,-2.5262 2.1172,-2.9341 l 0.0686,-29.5136 -25.7095,0.0355 -3.8855,3.7437 -0.1066,21.119 12.6427,0.0352 3.7787,-3.9198 0.0987,-14.4477 c -1.2805,-0.3774 -2.2153,-1.5618 -2.2153,-2.9644 0,-1.7068 1.3839,-3.0906 3.0904,-3.0906 1.7068,0 3.0907,1.3838 3.0907,3.0906 0,1.4558 -1.0072,2.6765 -2.3626,3.0039 z m 55.0486,22.6966 0.2308,-16.7802 20.6067,-0.1238 -0.2473,-9.1111 -4.7322,-5.0852 -24.1558,0 -0.1713,31.1016 c -1.1919,0.4288 -2.0444,1.5694 -2.0444,2.9089 0,1.7065 1.3838,3.0904 3.0904,3.0904 1.7067,0 3.0906,-1.3839 3.0906,-3.0904 0,-1.423 -0.9619,-2.6213 -2.2708,-2.9805 l -4e-4,-29.3357 21.8249,0.0355 3.7436,4.2026 -0.0354,6.4982 -20.5886,-0.1055 -0.3212,18.891 c -1.1312,0.4589 -1.9292,1.5688 -1.9292,2.8648 0,1.7066 1.3838,3.0905 3.0904,3.0905 1.7067,0 3.0906,-1.3839 3.0906,-3.0905 0,-1.4231 -0.9621,-2.6216 -2.2714,-2.9806 z m -7.4231,1.4565 c 0.8028,0 1.4537,0.6509 1.4537,1.4537 0,0.8025 -0.6509,1.4534 -1.4537,1.4534 -0.8026,0 -1.4535,-0.6509 -1.4535,-1.4534 0,-0.8028 0.6509,-1.4537 1.4535,-1.4537 z m 6.6039,0.0704 c 0.8027,0 1.4537,0.651 1.4537,1.4537 0,0.8026 -0.651,1.4535 -1.4537,1.4535 -0.8026,0 -1.4535,-0.6509 -1.4535,-1.4535 0,-0.8027 0.6509,-1.4537 1.4535,-1.4537 z m -47.3176,-24.3854 -0.2029,17.7512 -9.0053,9.0763 -24.262,-0.1416 -0.001,-32.2792 9.2527,-9.1113 37.7164,0.0707 9.6765,9.1113 9.0765,-9.2879 34.5557,0.1589 8.9701,9.1467 0.0357,18.0812 -21.1186,0.1409 0.064,10.1667 c 1.2645,0.3874 2.1841,1.5639 2.1841,2.9552 0,1.7066 -1.3839,3.0905 -3.0906,3.0905 -1.7066,0 -3.0904,-1.3839 -3.0904,-3.0905 0,-1.3108 0.8162,-2.4309 1.9681,-2.8802 l 0.1991,-12.0781 20.5535,-0.0704 0.0352,-15.6105 -8.1227,-8.052 -32.314,0.2122 -9.9601,10.0646 -10.5599,-10.3471 -35.9688,0.0179 -8.2287,8.123 0.2469,29.559 20.8354,0.1416 8.4758,-8.2993 0.1678,-16.5681 c -1.2798,-0.378 -2.2142,-1.562 -2.2142,-2.9642 0,-1.7067 1.3839,-3.0906 3.0905,-3.0906 1.7067,0 3.0906,1.3839 3.0906,3.0906 0,1.3433 -0.8575,2.4867 -2.0551,2.9125 z m 53.851,24.3854 c 0.8027,0 1.4537,0.651 1.4537,1.4537 0,0.8026 -0.651,1.4535 -1.4537,1.4535 -0.8026,0 -1.4535,-0.6509 -1.4535,-1.4535 0,-0.8027 0.6509,-1.4537 1.4535,-1.4537 z m -54.8865,-28.7516 c 0.8027,0 1.4536,0.651 1.4536,1.4537 0,0.8026 -0.6509,1.4535 -1.4536,1.4535 -0.8026,0 -1.4535,-0.6509 -1.4535,-1.4535 0,-0.8027 0.6509,-1.4537 1.4535,-1.4537 z m 13.9154,27.3174 0.1021,-25.9145 7.4517,6.7807 5.3326,0 7.0985,-7.0278 0.3051,26.1084 c -1.3014,0.3641 -2.2566,1.5588 -2.2566,2.9766 0,1.7065 1.3838,3.0904 3.0904,3.0904 1.7067,0 3.0906,-1.3839 3.0906,-3.0904 0,-1.3254 -0.8346,-2.4559 -2.0068,-2.895 l -0.0679,-30.8516 -9.7471,9.6775 -4.1671,0 -9.7473,-9.9591 -0.1042,31.183 c -1.2384,0.4029 -2.1339,1.5666 -2.1339,2.9394 0,1.7065 1.3839,3.0904 3.0904,3.0904 1.7068,0 3.0907,-1.3839 3.0907,-3.0904 0,-1.4768 -1.0364,-2.7118 -2.4212,-3.0176 z m 21.1238,1.4697 c 0.8027,0 1.4537,0.6509 1.4537,1.4537 0,0.8025 -0.651,1.4535 -1.4537,1.4535 -0.8026,0 -1.4535,-0.651 -1.4535,-1.4535 0,-0.8028 0.6509,-1.4537 1.4535,-1.4537 z m -21.7933,0.0942 c 0.8028,0 1.4537,0.6509 1.4537,1.4537 0,0.8025 -0.6509,1.4535 -1.4537,1.4535 -0.8025,0 -1.4534,-0.651 -1.4534,-1.4535 0,-0.8028 0.6509,-1.4537 1.4534,-1.4537 z m -19.8503,-28.8108 c 0.8028,0 1.4537,0.6509 1.4537,1.4537 0,0.8025 -0.6509,1.4535 -1.4537,1.4535 -0.8025,0 -1.4534,-0.651 -1.4534,-1.4535 0,-0.8028 0.6509,-1.4537 1.4534,-1.4537 z m 13.211,28.8462 c 0.8028,0 1.4537,0.651 1.4537,1.4537 0,0.8026 -0.6509,1.4535 -1.4537,1.4535 -0.8025,0 -1.4535,-0.6509 -1.4535,-1.4535 0,-0.8027 0.651,-1.4537 1.4535,-1.4537 z"
     style="fill:#00880a;fill-rule:evenodd;fill-opacity:1"
     id="path41673-3"
     inkscape:connector-curvature="0"
     sodipodi:nodetypes="ccccccccsssccccccccsssccccccccssscccccccssscssssssssssccccccccccccccsssccccccccccccccsssccssssssssssccccccsssccccccssscssssssssssssssssssss" />
</svg>
