<svg id="Layer_1" data-name="Layer 1" xmlns="http://www.w3.org/2000/svg" xmlns:xlink="http://www.w3.org/1999/xlink" viewBox="0 0 399.94 177.67"><defs><style>.cls-1,.cls-6{fill:#1abc9c;}.cls-1{stroke:#1abc9c;}.cls-1,.cls-4{stroke-miterlimit:10;}.cls-2{opacity:0.3;isolation:isolate;fill:url(#linear-gradient);}.cls-3,.cls-4,.cls-5{fill:#ebeff0;}.cls-4,.cls-5{stroke:#ebeff0;}.cls-5{stroke-linejoin:bevel;}</style><linearGradient id="linear-gradient" x1="664.66" y1="-2623.73" x2="664.66" y2="-473.57" gradientTransform="matrix(0.28, 0, 0, -0.28, -119.13, -90.27)" gradientUnits="userSpaceOnUse"><stop offset="0" stop-color="#fff" stop-opacity="0"/><stop offset="0.25" stop-color="#cdced3" stop-opacity="0.25"/><stop offset="1"/></linearGradient></defs><title>Untitled-3</title><g id="g4155"><g id="Camada_1" data-name="Camada 1"><polygon id="_Path_" data-name="&lt;Path&gt;" class="cls-1" points="129.24 44.91 129.02 133.11 64.65 177.07 0.5 132.8 0.72 44.57 65.09 0.61 129.24 44.91"/><path id="_Path_2" data-name="&lt;Path&gt;" class="cls-2" d="M119,74.11a6.58,6.58,0,0,0-1.58-1.18c-1.93-1-3.85-1.83-5.81-2.61L94.6,53a8.25,8.25,0,0,0-1.68-1.09L81.77,40.49c-0.31.12-10.62-11.15-32.06-2.8C31,46.27,37.56,64.29,38,66.28S46,78.33,48.06,78.71L64.78,95.79v17.09l-3.23,1.49L18.36,70.19l-7.05,3.2L61.42,183.06l10.1,10.41L112,166h0l12.83-8.82h0l4.26-2.89,0.16-65.36h0V84.55Z" transform="translate(0 -21.15)"/><polygon id="polygon17" class="cls-3" points="65 151.03 111.35 49.07 118.43 52.27 68.54 162.03 61.42 162.03 11.31 52.24 18.36 49.04 65 151.03"/><path id="_Path_3" data-name="&lt;Path&gt;" class="cls-4" d="M64.34,165.79c0.93-42.38,1-81.86-1-114.33l4.82,1.37,0,4.5,1-4.32,1.49,0.43c1.12,31.56-.43,67.26-3.42,105.1l-2.89,7.24h0Z" transform="translate(0 -21.15)"/><path id="_Compound_Path_" data-name="&lt;Compound Path&gt;" class="cls-5" d="M94.82,53.42c-1.3-1.43-6.06-3-6.37-3.7-2.73.28-4.16,3.7-4.16,3.7s0.31,4.44,2.14,6.21,6.52,5.62,8.26,5.22,2.58-1.09,2.58-1.93S96.12,54.85,94.82,53.42ZM88.2,57.15s3.67-.31,3.67,3.08A3.5,3.5,0,0,1,88.2,57.15Zm7.08,2c-0.71-1.21-1.15-2.83,0-3.91C95.28,55.19,97.18,57.92,95.28,59.1Z" transform="translate(0 -21.15)"/><g id="_Group_" data-name="&lt;Group&gt;"><path id="_Path_4" data-name="&lt;Path&gt;" class="cls-3" d="M72.42,154.29a14,14,0,0,0-1.55-4.07,9.47,9.47,0,0,0-2.86-3,16.22,16.22,0,0,0-3.76-1.83c-1.34-.5-2.73-0.9-4.16-1.34a27.9,27.9,0,0,1-4.32-1.74,12.58,12.58,0,0,1-3.95-3.14,12.4,12.4,0,0,1-2.33-4.6l-0.31-1.21L49,132.14c-0.06-.4-0.09-0.81-0.12-1.21l0-.62v-1.18l0-.68a4.23,4.23,0,0,1,.06-0.65l0.09-.65a12.83,12.83,0,0,1,.75-2.58,13.76,13.76,0,0,1,2.89-4.41,19.6,19.6,0,0,1,1.9-1.71,21.71,21.71,0,0,1,2-1.43,38.87,38.87,0,0,1,4.13-2.27c2.76-1.34,5.53-2.42,8.17-3.57A35.12,35.12,0,0,0,76,107.29a11.47,11.47,0,0,0,2.45-2.45A7.17,7.17,0,0,0,79.72,102a9.19,9.19,0,0,0,.19-1.62V99.58c0,0.31,0,.06,0,0.12V99.65l0-.56,0-.28V98.56c0-.28-0.06-0.56-0.12-0.87a7.69,7.69,0,0,0-.19-0.9l-0.09-.43-0.12-.43c-0.06-.28-0.19-0.56-0.28-0.84a10.21,10.21,0,0,0-4.13-5.16,29.5,29.5,0,0,0-7.21-3.14c-2.7-.87-5.56-1.65-8.48-2.64a45.64,45.64,0,0,1-8.7-3.85A29.69,29.69,0,0,1,42.88,74a32.83,32.83,0,0,1-5.16-8.42l0-.06a2.14,2.14,0,0,0-.09-0.25l-0.34-1.18-0.16-.59A3.66,3.66,0,0,1,37,62.86l-0.28-1.3-0.19-1.24a24,24,0,0,1-.16-5.19,20.41,20.41,0,0,1,1.15-5.22,17.87,17.87,0,0,1,2.58-4.72,21.05,21.05,0,0,1,3.63-3.79A23.37,23.37,0,0,1,48,38.6a32.58,32.58,0,0,1,4.57-2,36,36,0,0,1,4.69-1.24A41.58,41.58,0,0,1,62,34.75c0.81-.06,1.58-0.09,2.39-0.12h1.86l0.56,0a20.16,20.16,0,0,1,2.52.22l1.24,0.22,1.24,0.28a22.16,22.16,0,0,1,4.78,1.77,25.61,25.61,0,0,1,7.86,6.18,30,30,0,0,1,2.86,4c0.43,0.68.81,1.43,1.18,2.14,0.19,0.37.34,0.75,0.53,1.12,0.09,0.19.16,0.37,0.25,0.59l0.12,0.31,0.12,0.37-5.25,1.9-0.16-.37C84,53.23,84,53.08,83.88,52.92s-0.31-.59-0.47-0.87a18.63,18.63,0,0,0-1-1.68A26.05,26.05,0,0,0,80,47.27a19.4,19.4,0,0,0-6.09-4.5,18.24,18.24,0,0,0-3.54-1.18l-0.93-.19-0.93-.12c-0.62,0-1.09-.12-1.9-0.12h-1l-1,0c-0.68,0-1.37.09-2,.16-1.34.16-2.67,0.34-4,.62A30.11,30.11,0,0,0,54.74,43a22.76,22.76,0,0,0-3.54,1.58,16.37,16.37,0,0,0-5.53,4.69,12.44,12.44,0,0,0-1.62,3,13.73,13.73,0,0,0-.75,3.39,15.89,15.89,0,0,0,.12,3.63l0.16,0.93,0.22,0.93,0.09,0.47L44,62.18l0.25,0.93-0.12-.34a26.21,26.21,0,0,0,4,6.59A24.37,24.37,0,0,0,50.89,72a29,29,0,0,0,3.17,2.24,41.11,41.11,0,0,0,7.39,3.32c2.64,0.93,5.47,1.74,8.36,2.67,1.46,0.5,2.92,1,4.41,1.65a27.16,27.16,0,0,1,4.44,2.42A17.74,17.74,0,0,1,82.61,88a15.55,15.55,0,0,1,1.49,2.33,19.45,19.45,0,0,1,1.09,2.49c0.12,0.43.28,0.84,0.37,1.27a6,6,0,0,1,.16.62l0.12,0.62c0.09,0.43.16,0.84,0.22,1.27s0.09,0.87.16,1.3l0,0.16v0.12l0,0.28,0,0.56v0.81a5.27,5.27,0,0,1,0,.68,16.59,16.59,0,0,1-.4,2.73,14,14,0,0,1-2.42,5.09,17.87,17.87,0,0,1-3.82,3.7,29.44,29.44,0,0,1-4.23,2.49c-1.43.68-2.83,1.3-4.26,1.86-2.83,1.12-5.56,2.05-8.17,3.17a24.42,24.42,0,0,0-6.83,4,9,9,0,0,0-3,6.21l0,0.28v0.68c0,0.34,0,.68,0,1l0.06,1,0.16,0.93a9.16,9.16,0,0,0,1.3,3.39c1.3,2.05,3.76,3.39,6.4,4.6,1.3,0.62,2.7,1.21,4,1.9a16.39,16.39,0,0,1,3.85,2.58,10.79,10.79,0,0,1,2.67,3.79,12.25,12.25,0,0,1,.87,4.41h0Z" transform="translate(0 -21.15)"/></g></g></g><path class="cls-6" d="M367.48,92.41q-3.52,12.65-4.13,17.71-0.33-2.2-1.68-7.84t-2.61-9.88L343.93,44.54H326.71L354,125h18.59l27.34-80.43H382.71ZM316.53,44.54h-17V76.07H267.68V44.54H250.62V125h17.05V90.26h31.85V125h17V44.54ZM230.38,125V44.54H213.32V125h17.05ZM194.56,89.35q-4.18-5.42-15.46-10.81a102.7,102.7,0,0,1-10.81-5.64A11.47,11.47,0,0,1,165,69.66a7.28,7.28,0,0,1-1-3.93,7.44,7.44,0,0,1,2.59-5.89q2.59-2.26,7.43-2.26a34.29,34.29,0,0,1,8.28,1,80.51,80.51,0,0,1,10.65,3.69l5.5-13.26a82.33,82.33,0,0,0-11.91-4.18,47.23,47.23,0,0,0-12-1.49q-12.76,0-20,6.11t-7.23,16.78a21.18,21.18,0,0,0,2.2,9.9,25,25,0,0,0,5.89,7.43,49.38,49.38,0,0,0,11.06,6.66,100.06,100.06,0,0,1,10.43,5.45,14.78,14.78,0,0,1,3.88,3.55,7,7,0,0,1,1.32,4.21,7.34,7.34,0,0,1-3,6.38q-3,2.15-8.61,2.15a40.75,40.75,0,0,1-10.32-1.49,93.83,93.83,0,0,1-13.78-5.12v15.84a51.23,51.23,0,0,0,22.78,4.84q14,0,21.81-6.27t7.84-17.16A21.1,21.1,0,0,0,194.56,89.35Z" transform="translate(0 -21.15)"/><path class="cls-6" d="M362.09,143.08a3.54,3.54,0,0,1,3-1.34q4,0,4,5.33t-4,5.32a3.51,3.51,0,0,1-3-1.34A8.38,8.38,0,0,1,362.09,143.08Zm8.58-2a7.19,7.19,0,0,0-5.57-2.09,7.29,7.29,0,0,0-5.59,2.08,8.48,8.48,0,0,0-1.95,6,8.6,8.6,0,0,0,1.94,6,8.42,8.42,0,0,0,11.14,0A10.34,10.34,0,0,0,370.66,141Zm-24,11.17h-1.44V141.94H347q4.49,0,4.49,5.08T346.68,152.21Zm6.17-11a8.34,8.34,0,0,0-6-2h-5V155h4.47q4.19,0,6.41-2.07a7.77,7.77,0,0,0,2.22-6A7.51,7.51,0,0,0,352.85,141.24Zm-22.61,7.18q1.68-5.45,2-6.83,0.09,0.39.29,1.06t1.79,5.78h-4.11Zm9.66,6.56-5.59-15.85h-4.09L324.66,155h3.61l1.14-3.76h5.75L336.3,155h3.61Zm-22.74-6.06,3.77,6.06h3.71q-1.08-1.55-4.64-6.88a5.07,5.07,0,0,0,2.17-1.7,4.67,4.67,0,0,0-.78-6,7.87,7.87,0,0,0-4.76-1.17H312V155h3.35v-6.06h1.78Zm-1.78-7h1a4.69,4.69,0,0,1,2.39.48,1.73,1.73,0,0,1,.77,1.6,1.89,1.89,0,0,1-.76,1.66,4.12,4.12,0,0,1-2.34.53h-1.08v-4.26Zm-13.37,7h3v3.29a10.86,10.86,0,0,1-2.13.22,3.64,3.64,0,0,1-3.06-1.36,6.29,6.29,0,0,1-1.05-3.92,5.65,5.65,0,0,1,1.31-3.92,4.44,4.44,0,0,1,3.48-1.46,7.94,7.94,0,0,1,3.59.86l1.11-2.68a11.74,11.74,0,0,0-4.69-1,8.3,8.3,0,0,0-6.06,2.14,8,8,0,0,0-2.19,6,8.73,8.73,0,0,0,1.88,6,7,7,0,0,0,5.46,2.1,18.73,18.73,0,0,0,2.75-.2,17.73,17.73,0,0,0,2.87-.7v-8.18H302v2.79Zm-9.28,3.31H287v-4.07h5.34V145.4H287v-3.47h5.74v-2.74h-9.09V155h9.09v-2.76ZM276.94,142h4.29v-2.79H269.3V142h4.29v13h3.35V142Zm-10.06-2.79h-3v7.47q0,1.27.16,4.35h-0.08l-6.86-11.82h-4.22V155h3v-7.43q0-1.35-.21-4.51h0.1L262.62,155h4.25V139.19ZM248.9,155V139.19h-3.35V155h3.35Zm-20.74-6.56q1.68-5.45,2-6.83,0.09,0.39.29,1.06t1.79,5.78h-4.11Zm9.66,6.56-5.59-15.85h-4.09L222.57,155h3.61l1.14-3.76h5.75l1.14,3.76h3.61Zm-24.37,0,4.07-12.36h0.1q-0.13,3-.15,3.67t0,1.22V155h3.12V139.19H216l-4,12.07H212l-3.74-12.07h-4.56V155h3v-7.34q0-1.26-.21-5h0.1l3.8,12.38h3.07Zm-13-2.76h-5.74v-4.07H200V145.4h-5.34v-3.47h5.74v-2.74h-9.09V155h9.09v-2.76ZM184.61,142h4.29v-2.79H177V142h4.29v13h3.35V142Zm-9.77,6a8.45,8.45,0,0,0-3-2.12,20.15,20.15,0,0,1-2.12-1.11,2.25,2.25,0,0,1-.65-0.64,1.43,1.43,0,0,1-.21-0.77,1.46,1.46,0,0,1,.51-1.16,2.15,2.15,0,0,1,1.46-.44,6.77,6.77,0,0,1,1.62.21,15.91,15.91,0,0,1,2.09.72l1.08-2.6a16.16,16.16,0,0,0-2.34-.82,9.27,9.27,0,0,0-2.35-.29,5.9,5.9,0,0,0-3.92,1.2,4.08,4.08,0,0,0-1.42,3.29,4.16,4.16,0,0,0,.43,1.94,4.89,4.89,0,0,0,1.15,1.46,9.66,9.66,0,0,0,2.17,1.31,19.49,19.49,0,0,1,2,1.07,2.88,2.88,0,0,1,.76.7,1.38,1.38,0,0,1,.26.83,1.44,1.44,0,0,1-.59,1.25,2.88,2.88,0,0,1-1.69.42,8,8,0,0,1-2-.29,18.36,18.36,0,0,1-2.7-1v3.11a10,10,0,0,0,4.47,1,6.68,6.68,0,0,0,4.28-1.23,4.08,4.08,0,0,0,1.54-3.37A4.14,4.14,0,0,0,174.84,148Zm-12.47,7V139.19H159V155h3.35Zm-7-7a8.45,8.45,0,0,0-3-2.12,20.15,20.15,0,0,1-2.12-1.11,2.25,2.25,0,0,1-.65-0.64,1.43,1.43,0,0,1-.21-0.77,1.46,1.46,0,0,1,.51-1.16,2.15,2.15,0,0,1,1.46-.44,6.77,6.77,0,0,1,1.62.21,15.91,15.91,0,0,1,2.09.72l1.08-2.6a16.16,16.16,0,0,0-2.34-.82,9.27,9.27,0,0,0-2.35-.29,5.9,5.9,0,0,0-3.92,1.2,4.08,4.08,0,0,0-1.42,3.29,4.16,4.16,0,0,0,.43,1.94,4.89,4.89,0,0,0,1.15,1.46,9.66,9.66,0,0,0,2.17,1.31,19.49,19.49,0,0,1,2,1.07,2.88,2.88,0,0,1,.76.7,1.38,1.38,0,0,1,.26.83,1.44,1.44,0,0,1-.59,1.25,2.88,2.88,0,0,1-1.69.42,8,8,0,0,1-2-.29,18.36,18.36,0,0,1-2.7-1v3.11a10,10,0,0,0,4.47,1,6.68,6.68,0,0,0,4.28-1.23,4.08,4.08,0,0,0,1.54-3.37A4.14,4.14,0,0,0,155.34,148Z" transform="translate(0 -21.15)"/><path class="cls-6" d="M364.57,166.28a2.7,2.7,0,0,1,2.3-1q3,0,3,4.07t-3.06,4.07a2.68,2.68,0,0,1-2.29-1A6.39,6.39,0,0,1,364.57,166.28Zm6.55-1.55a5.49,5.49,0,0,0-4.25-1.6,5.57,5.57,0,0,0-4.27,1.59,6.48,6.48,0,0,0-1.49,4.6,6.57,6.57,0,0,0,1.48,4.62,6.43,6.43,0,0,0,8.51,0A7.9,7.9,0,0,0,371.12,164.72Zm-12.5,10.65V163.31h-2.56v12.06h2.56Zm-9.79-4.63,2.88,4.63h2.84q-0.82-1.19-3.55-5.25a3.87,3.87,0,0,0,1.66-1.3,3.57,3.57,0,0,0-.59-4.61,6,6,0,0,0-3.64-.89h-3.51v12.06h2.56v-4.63h1.36Zm-1.36-5.34h0.77a3.58,3.58,0,0,1,1.83.36,1.32,1.32,0,0,1,.59,1.22,1.44,1.44,0,0,1-.58,1.27,3.15,3.15,0,0,1-1.79.4h-0.82v-3.26Zm-9.59-3.06q0.58-.41,1.62-1.26t1.46-1.27v-0.17h-2.82a23.16,23.16,0,0,1-1.94,2.48v0.22h1.67Zm-1.86,8q1.29-4.16,1.56-5.22,0.07,0.3.22,0.81t1.37,4.41H336Zm7.38,5-4.27-12.11H336l-4.25,12.11h2.75l0.88-2.87h4.39l0.88,2.87h2.75Zm-13.17-12.06h-2.3V169q0,1,.12,3.32H328l-5.24-9h-3.22v12.06h2.28v-5.67q0-1-.16-3.45h0.07l5.25,9.12h3.25V163.31Zm-13.73,12.06V163.31h-2.56v12.06h2.56Zm-9.79-4.63,2.88,4.63h2.84q-0.82-1.19-3.55-5.25a3.87,3.87,0,0,0,1.66-1.3,3.57,3.57,0,0,0-.59-4.61,6,6,0,0,0-3.64-.89h-3.51v12.06h2.56v-4.63h1.36Zm-1.36-5.34h0.77a3.58,3.58,0,0,1,1.83.36,1.32,1.32,0,0,1,.59,1.22,1.44,1.44,0,0,1-.58,1.27,3.15,3.15,0,0,1-1.79.4h-0.82v-3.26Zm-5.07,7.85h-4.39v-3.11H300v-2.09h-4.08v-2.65h4.39v-2.09h-6.94v12.06h6.94v-2.11Zm-12.07-7.82h3.27v-2.13h-9.1v2.13h3.27v9.93h2.56v-9.93ZM281,173.26h-4.39v-3.11h4.08v-2.09h-4.08v-2.65H281v-2.09h-6.94v12.06H281v-2.11Zm-13.33-2.77a21.17,21.17,0,0,0-.62,2.66q0-.33-0.25-1.17t-0.39-1.48l-2.27-7.17h-2.58l4.09,12.06h2.79l4.1-12.06H270Zm-11.07,4.88v-2.11h-4.89v-9.95h-2.56v12.06h7.45Zm-16.34-5q1.29-4.16,1.56-5.22,0.07,0.3.22,0.81t1.37,4.41h-3.14Zm7.38,5-4.27-12.11h-3.13L236,175.37h2.75l0.88-2.87H244l0.88,2.87h2.75Zm-15.26-9.93h3.27v-2.13h-9.1v2.13h3.27v9.93h2.56v-9.93Zm-7.68,9.93V163.31h-2.56v12.06h2.56Zm-6-11.11a5.13,5.13,0,0,0-3.34-.94h-3.85v12.06h2.56v-4.29h1.1a5.2,5.2,0,0,0,3.46-1,3.68,3.68,0,0,0,1.22-3A3.44,3.44,0,0,0,218.74,164.25Zm-4.63,1.15h1.16a2.3,2.3,0,0,1,1.54.43,1.67,1.67,0,0,1,.49,1.33,1.63,1.63,0,0,1-.59,1.36A2.8,2.8,0,0,1,215,169h-0.84v-3.58ZM208.74,170a6.46,6.46,0,0,0-2.32-1.62,15.4,15.4,0,0,1-1.62-.85,1.72,1.72,0,0,1-.5-0.49,1.09,1.09,0,0,1-.16-0.59,1.11,1.11,0,0,1,.39-0.88,1.64,1.64,0,0,1,1.11-.34,5.14,5.14,0,0,1,1.24.16,12.16,12.16,0,0,1,1.6.55l0.82-2a12.29,12.29,0,0,0-1.79-.63,7.08,7.08,0,0,0-1.79-.22,4.5,4.5,0,0,0-3,.92,3.12,3.12,0,0,0-1.08,2.52,3.18,3.18,0,0,0,.33,1.48,3.74,3.74,0,0,0,.88,1.11,7.44,7.44,0,0,0,1.66,1,14.72,14.72,0,0,1,1.56.82,2.23,2.23,0,0,1,.58.53,1.06,1.06,0,0,1,.2.63,1.1,1.1,0,0,1-.45,1,2.2,2.2,0,0,1-1.29.32,6.11,6.11,0,0,1-1.55-.22,14.12,14.12,0,0,1-2.07-.77v2.38a7.68,7.68,0,0,0,3.41.73,5.1,5.1,0,0,0,3.27-.94,3.12,3.12,0,0,0,1.17-2.57A3.17,3.17,0,0,0,208.74,170Zm-17-3.75a2.7,2.7,0,0,1,2.3-1q3,0,3,4.07T194,173.39a2.68,2.68,0,0,1-2.29-1A6.4,6.4,0,0,1,191.73,166.28Zm6.55-1.55a5.49,5.49,0,0,0-4.25-1.6,5.57,5.57,0,0,0-4.27,1.59,6.48,6.48,0,0,0-1.49,4.6,6.57,6.57,0,0,0,1.48,4.62,6.43,6.43,0,0,0,8.51,0A7.9,7.9,0,0,0,198.28,164.72Zm-12.51-1.41h-2.55V168h-4.77v-4.73h-2.56v12.06h2.56v-5.2h4.77v5.2h2.55V163.31Zm-24.79,3a2.7,2.7,0,0,1,2.3-1q3,0,3,4.07t-3.06,4.07a2.68,2.68,0,0,1-2.29-1A6.4,6.4,0,0,1,161,166.28Zm6.55-1.55a5.49,5.49,0,0,0-4.25-1.6,5.57,5.57,0,0,0-4.27,1.59,6.48,6.48,0,0,0-1.49,4.6,6.57,6.57,0,0,0,1.48,4.62,6.43,6.43,0,0,0,8.51,0A7.9,7.9,0,0,0,167.53,164.72Zm-18.32,8.54h-1.1v-7.85h1.36q3.43,0,3.43,3.88T149.21,173.26Zm4.72-8.39a6.37,6.37,0,0,0-4.58-1.56h-3.79v12.06H149a6.91,6.91,0,0,0,4.89-1.58,5.94,5.94,0,0,0,1.69-4.56A5.73,5.73,0,0,0,153.93,164.87Z" transform="translate(0 -21.15)"/></svg>