<svg id="Layer_1" data-name="Layer 1" xmlns="http://www.w3.org/2000/svg" xmlns:xlink="http://www.w3.org/1999/xlink" viewBox="0 0 374.76 132.42"><defs><style>.cls-1,.cls-6{fill:#00b59b;}.cls-1{stroke:#00b59b;}.cls-1,.cls-4{stroke-miterlimit:10;}.cls-2{opacity:0.3;isolation:isolate;fill:url(#linear-gradient);}.cls-3,.cls-4,.cls-5{fill:#ebeff0;}.cls-4,.cls-5{stroke:#ebeff0;}.cls-5{stroke-linejoin:bevel;}</style><linearGradient id="linear-gradient" x1="1228.57" y1="3261" x2="1228.57" y2="1664.73" gradientTransform="translate(-277.53 -427.86) scale(0.28)" gradientUnits="userSpaceOnUse"><stop offset="0" stop-color="#fff" stop-opacity="0"/><stop offset="0.25" stop-color="#cdced3" stop-opacity="0.25"/><stop offset="1"/></linearGradient></defs><title>sihv_logo_full</title><polygon id="_Path_" data-name=" Path " class="cls-1" points="96.08 33.7 95.91 99.17 48.13 131.81 0.5 98.94 0.66 33.44 48.45 0.81 96.08 33.7"/><path id="_Path_2" data-name=" Path 2" class="cls-2" d="M102.64,61.86a4.88,4.88,0,0,0-1.17-.88A47.17,47.17,0,0,0,97.15,59L84.53,46.19a6.12,6.12,0,0,0-1.25-.81L75,36.9c-0.23.09-7.88-8.28-23.8-2.08-13.89,6.37-9,19.75-8.69,21.23S48.45,65,50,65.28L62.39,78V90.64L60,91.75,27.93,59l-5.23,2.38,37.2,81.42,7.5,7.73,30.05-20.39h0l9.52-6.55h0l3.16-2.15,0.12-48.52h0V69.61Z" transform="translate(-14.17 -22.19)"/><polygon id="polygon17" class="cls-3" points="48.38 112.48 82.8 36.78 88.05 39.16 51.01 120.64 45.73 120.64 8.53 39.14 13.76 36.76 48.38 112.48"/><path id="_Path_3" data-name=" Path 3" class="cls-4" d="M62.06,129.92c0.69-31.46.74-60.77-.74-84.88l3.58,1V49.4l0.74-3.21,1.11,0.32c0.83,23.43-.32,49.93-2.54,78l-2.15,5.37h0Z" transform="translate(-14.17 -22.19)"/><path id="_Compound_Path_" data-name=" Compound Path " class="cls-5" d="M84.69,46.5c-1-1.06-4.5-2.23-4.73-2.75-2,.21-3.09,2.75-3.09,2.75s0.23,3.3,1.59,4.61S83.3,55.28,84.59,55s1.92-.81,1.92-1.43S85.65,47.56,84.69,46.5Zm-4.91,2.77S82.5,49,82.5,51.56A2.6,2.6,0,0,1,79.77,49.27ZM85,50.75c-0.53-.9-0.85-2.1,0-2.9,0,0,1.41,2,0,2.87v0Z" transform="translate(-14.17 -22.19)"/><g id="_Group_" data-name=" Group "><path id="_Path_4" data-name=" Path 4" class="cls-3" d="M68.06,121.39a10.39,10.39,0,0,0-1.15-3,7,7,0,0,0-2.12-2.23A12,12,0,0,0,62,114.78c-1-.37-2-0.67-3.09-1a20.71,20.71,0,0,1-3.21-1.29,9.34,9.34,0,0,1-2.93-2.33A9.21,9.21,0,0,1,51,106.75l-0.23-.9-0.13-.91c0-.3-0.07-0.6-0.09-0.9V102.2a3.14,3.14,0,0,1,0-.48l0.07-.48a9.53,9.53,0,0,1,.56-1.92A10.22,10.22,0,0,1,53.4,96a14.55,14.55,0,0,1,1.41-1.27,16.12,16.12,0,0,1,1.48-1.06A28.86,28.86,0,0,1,59.36,92c2-1,4.11-1.8,6.07-2.65a26.07,26.07,0,0,0,5.29-2.89,8.52,8.52,0,0,0,1.82-1.82,5.32,5.32,0,0,0,.94-2.11,6.82,6.82,0,0,0,.14-1.2V80a3.45,3.45,0,0,0-.09-0.65,5.71,5.71,0,0,0-.14-0.67l-0.07-.32-0.09-.32c0-.21-0.14-0.42-0.21-0.62A7.58,7.58,0,0,0,70,73.6a21.9,21.9,0,0,0-5.35-2.33c-2-.65-4.13-1.22-6.3-2a33.88,33.88,0,0,1-6.46-2.86,22,22,0,0,1-5.72-4.68,24.37,24.37,0,0,1-3.83-6.25v0a1.59,1.59,0,0,0-.07-0.19L42,54.42,41.86,54a2.72,2.72,0,0,1-.1-0.48l-0.21-1-0.14-.92a17.82,17.82,0,0,1-.12-3.85,15.15,15.15,0,0,1,.85-3.88,13.27,13.27,0,0,1,1.92-3.5,15.63,15.63,0,0,1,2.69-2.81,17.35,17.35,0,0,1,3.17-2.08A24.19,24.19,0,0,1,53.32,34a26.73,26.73,0,0,1,3.48-.92,30.87,30.87,0,0,1,3.52-.45c0.6,0,1.17-.07,1.77-0.09h1.8a15,15,0,0,1,1.87.16l0.92,0.16,0.92,0.21a16.45,16.45,0,0,1,3.55,1.31A19,19,0,0,1,77,39a22.27,22.27,0,0,1,2.12,3c0.32,0.5.6,1.06,0.88,1.59,0.14,0.27.25,0.56,0.39,0.83s0.12,0.27.19,0.44L80.66,45l0.09,0.27-3.9,1.41-0.12-.27c-0.07-.1-0.07-0.21-0.16-0.33s-0.23-.44-0.35-0.65a13.83,13.83,0,0,0-.74-1.25,19.34,19.34,0,0,0-1.79-2.3,14.4,14.4,0,0,0-4.52-3.34,13.54,13.54,0,0,0-2.63-.88l-0.69-.14-0.69-.09c-0.46,0-.81-0.09-1.41-0.09H62.26a13.51,13.51,0,0,0-1.48.12c-1,.12-2,0.25-3,0.46a22.35,22.35,0,0,0-2.87.79,16.9,16.9,0,0,0-2.63,1.17,12.15,12.15,0,0,0-4.11,3.48A9.24,9.24,0,0,0,47,45.65a10.19,10.19,0,0,0-.56,2.52,11.8,11.8,0,0,0,.09,2.69l0.12,0.69,0.16,0.69,0.07,0.35L47,53l0.19,0.69-0.09-.25a19.46,19.46,0,0,0,3,4.89,18.09,18.09,0,0,0,2,2A21.53,21.53,0,0,0,54.43,62a30.52,30.52,0,0,0,5.49,2.46c2,0.69,4.06,1.29,6.21,2,1.08,0.37,2.17.74,3.27,1.22a20.16,20.16,0,0,1,3.3,1.8,13.17,13.17,0,0,1,2.93,2.75,11.54,11.54,0,0,1,1.11,1.73,14.44,14.44,0,0,1,.81,1.85c0.09,0.32.21,0.62,0.27,0.94a4.45,4.45,0,0,1,.12.46L78,77.61c0.07,0.32.12,0.62,0.16,0.94s0.07,0.65.12,1V81a3.91,3.91,0,0,1,0,.5,12.32,12.32,0,0,1-.3,2,10.39,10.39,0,0,1-1.8,3.78A13.27,13.27,0,0,1,73.38,90a21.86,21.86,0,0,1-3.14,1.85c-1.06.5-2.1,1-3.16,1.38-2.1.83-4.13,1.52-6.07,2.35a18.13,18.13,0,0,0-5.07,3,6.68,6.68,0,0,0-2.23,4.61v1.46l0,0.74,0.12,0.69a6.8,6.8,0,0,0,1,2.52c1,1.52,2.79,2.52,4.75,3.42,1,0.46,2,.9,3,1.41a12.17,12.17,0,0,1,2.86,1.92,8,8,0,0,1,2,2.81,9.09,9.09,0,0,1,.65,3.27h0v0Z" transform="translate(-14.17 -22.19)"/></g><path class="cls-6" d="M356.48,71.26Q353,83.91,352.35,89q-0.33-2.2-1.68-7.84t-2.61-9.88L332.93,23.39H315.71L343,103.85h18.59l27.34-80.43H371.71Zm-51-47.87h-17V54.92H256.68V23.39H239.62v80.46h17V69.11h31.85v34.74h17V23.39h0Zm-86.15,80.46V23.39H202.32v80.46h17.06ZM183.56,68.2q-4.18-5.42-15.46-10.81a102.7,102.7,0,0,1-10.81-5.64A11.47,11.47,0,0,1,154,48.51a7.28,7.28,0,0,1-1-3.93,7.44,7.44,0,0,1,2.59-5.89q2.59-2.26,7.43-2.26a34.29,34.29,0,0,1,8.28,1,80.51,80.51,0,0,1,10.65,3.69l5.5-13.26a82.33,82.33,0,0,0-11.91-4.18,47.23,47.23,0,0,0-12-1.49q-12.76,0-20,6.11t-7.23,16.78a21.18,21.18,0,0,0,2.2,9.9,25,25,0,0,0,5.89,7.43,49.38,49.38,0,0,0,11.06,6.66,100.06,100.06,0,0,1,10.43,5.45,14.78,14.78,0,0,1,3.88,3.55,7,7,0,0,1,1.32,4.21,7.34,7.34,0,0,1-3,6.38q-3,2.15-8.61,2.15a40.75,40.75,0,0,1-10.32-1.49,93.83,93.83,0,0,1-13.78-5.12V100a51.23,51.23,0,0,0,22.78,4.84q14,0,21.81-6.27t7.84-17.16A21.1,21.1,0,0,0,183.56,68.2Z" transform="translate(-14.17 -22.19)"/><path class="cls-6" d="M351.09,121.93a3.54,3.54,0,0,1,3-1.34q4,0,4,5.33t-4,5.32a3.51,3.51,0,0,1-3-1.34A8.38,8.38,0,0,1,351.09,121.93Zm8.58-2a7.19,7.19,0,0,0-5.57-2.09,7.29,7.29,0,0,0-5.59,2.08,8.48,8.48,0,0,0-2,6,8.6,8.6,0,0,0,1.94,6,8.42,8.42,0,0,0,11.14,0,10.34,10.34,0,0,0,0-12.07v0.08Zm-24,11.17h-1.44V120.79H336q4.49,0,4.49,5.08t-4.81,5.19v0Zm6.17-11a8.34,8.34,0,0,0-6-2h-5v15.75h4.47q4.19,0,6.41-2.07a7.77,7.77,0,0,0,2.22-6,7.51,7.51,0,0,0-2.09-5.69h0Zm-22.61,7.18q1.68-5.45,2-6.83,0.09,0.39.29,1.06t1.79,5.78h-4.08Zm9.66,6.56L323.3,118h-4.09l-5.55,15.86h3.61l1.14-3.76h5.75l1.14,3.76h3.59Zm-22.74-6.06,3.77,6.06h3.71q-1.08-1.55-4.64-6.88a5.07,5.07,0,0,0,2.17-1.7,4.67,4.67,0,0,0-.78-6,7.87,7.87,0,0,0-4.76-1.17H301v15.76h3.35v-6.06h1.8Zm-1.78-7h1a4.69,4.69,0,0,1,2.39.48,1.73,1.73,0,0,1,.77,1.6,1.89,1.89,0,0,1-.76,1.66,4.12,4.12,0,0,1-2.34.53h-1.08v-4.26h0Zm-13.37,7h3v3.29a10.86,10.86,0,0,1-2.13.22,3.64,3.64,0,0,1-3.06-1.36,6.29,6.29,0,0,1-1-3.92,5.65,5.65,0,0,1,1.31-3.92,4.44,4.44,0,0,1,3.48-1.46,7.94,7.94,0,0,1,3.59.86l1.11-2.68a11.74,11.74,0,0,0-4.69-1,8.3,8.3,0,0,0-6.06,2.14,8,8,0,0,0-2.19,6,8.73,8.73,0,0,0,1.88,6,7,7,0,0,0,5.46,2.1,18.73,18.73,0,0,0,2.75-.2,17.73,17.73,0,0,0,2.87-.7V125H291v2.81Zm-9.28,3.31H276V127h5.34v-2.77H276v-3.47h5.74V118h-9.09v15.81h9.09v-2.76h0Zm-15.78-10.24h4.29v-2.79H258.3v2.79h4.29v13h3.35v-13Zm-10.06-2.79h-3v7.47q0,1.27.16,4.35H253l-6.86-11.82h-4.22v15.79h3v-7.43q0-1.35-.21-4.51h0.1l6.85,11.94h4.25V118.06Zm-18,15.79V118h-3.35v15.81h3.35Zm-20.74-6.56q1.68-5.45,2-6.83,0.09,0.39.29,1.06t1.79,5.78h-4.08Zm9.66,6.56L221.23,118h-4.09l-5.57,15.85h3.61l1.14-3.76h5.75l1.14,3.76h3.61Zm-24.37,0,4.07-12.36h0.1q-0.13,3-.15,3.67t0,1.22v7.47h3.12V118H205l-4,12.07h0L197.26,118H192.7v15.81h3v-7.34q0-1.26-.21-5h0.1l3.8,12.38h3.07v0Zm-13-2.76h-5.74V127H189v-2.77h-5.34v-3.47h5.74V118h-9.09v15.81h9.09v-2.76h0Zm-15.84-10.24h4.29v-2.79H166v2.79h4.29v13h3.35v-13h0Zm-9.77,6a8.45,8.45,0,0,0-3-2.12,20.15,20.15,0,0,1-2.12-1.11,2.25,2.25,0,0,1-.65-0.64,1.43,1.43,0,0,1-.21-0.77,1.46,1.46,0,0,1,.51-1.16,2.15,2.15,0,0,1,1.46-.44,6.77,6.77,0,0,1,1.62.21,15.91,15.91,0,0,1,2.09.72l1.08-2.6a16.16,16.16,0,0,0-2.34-.82,9.27,9.27,0,0,0-2.35-.29A5.9,5.9,0,0,0,156,119a4.08,4.08,0,0,0-1.42,3.29,4.16,4.16,0,0,0,.43,1.94,4.89,4.89,0,0,0,1.15,1.46,9.66,9.66,0,0,0,2.17,1.31,19.49,19.49,0,0,1,2,1.07,2.88,2.88,0,0,1,.76.7,1.38,1.38,0,0,1,.26.83,1.44,1.44,0,0,1-.59,1.25,2.88,2.88,0,0,1-1.69.42,8,8,0,0,1-2-.29,18.36,18.36,0,0,1-2.7-1v3.11a10,10,0,0,0,4.47,1,6.68,6.68,0,0,0,4.28-1.23,4.08,4.08,0,0,0,1.54-3.37A4.14,4.14,0,0,0,163.84,126.85Zm-12.47,7V118H148v15.81h3.37Zm-7-7a8.45,8.45,0,0,0-3-2.12,20.15,20.15,0,0,1-2.12-1.11,2.25,2.25,0,0,1-.65-0.64,1.43,1.43,0,0,1-.21-0.77,1.46,1.46,0,0,1,.51-1.16,2.15,2.15,0,0,1,1.46-.44,6.77,6.77,0,0,1,1.62.21,15.91,15.91,0,0,1,2.09.72l1.08-2.6a16.16,16.16,0,0,0-2.34-.82,9.27,9.27,0,0,0-2.35-.29,5.9,5.9,0,0,0-3.92,1.2,4.08,4.08,0,0,0-1.42,3.29,4.16,4.16,0,0,0,.43,1.94,4.89,4.89,0,0,0,1.15,1.46,9.66,9.66,0,0,0,2.17,1.31,19.49,19.49,0,0,1,2,1.07,2.88,2.88,0,0,1,.76.7,1.38,1.38,0,0,1,.26.83,1.44,1.44,0,0,1-.59,1.25,2.88,2.88,0,0,1-1.69.42,8,8,0,0,1-2-.29,18.36,18.36,0,0,1-2.7-1v3.11a10,10,0,0,0,4.47,1,6.68,6.68,0,0,0,4.28-1.23,4.08,4.08,0,0,0,1.54-3.37,4.14,4.14,0,0,0-.86-2.67h0Z" transform="translate(-14.17 -22.19)"/><path class="cls-6" d="M353.57,145.13a2.7,2.7,0,0,1,2.3-1q3,0,3,4.07t-3.06,4.07a2.68,2.68,0,0,1-2.29-1A6.39,6.39,0,0,1,353.57,145.13Zm6.55-1.55a5.49,5.49,0,0,0-4.25-1.6,5.57,5.57,0,0,0-4.27,1.59,6.48,6.48,0,0,0-1.49,4.6,6.57,6.57,0,0,0,1.48,4.62,6.43,6.43,0,0,0,8.51,0,7.9,7.9,0,0,0,0-9.22h0Zm-12.5,10.65V142.16h-2.56v12.06h2.56Zm-9.79-4.63,2.88,4.63h2.84Q342.73,153,340,149a3.87,3.87,0,0,0,1.66-1.3,3.57,3.57,0,0,0-.59-4.61,6,6,0,0,0-3.64-.89h-3.51v12.06h2.56v-4.63h1.35Zm-1.36-5.34h0.77a3.58,3.58,0,0,1,1.83.36,1.32,1.32,0,0,1,.59,1.22,1.44,1.44,0,0,1-.58,1.27,3.15,3.15,0,0,1-1.79.4h-0.82v-3.26h0Zm-9.59-3.06q0.58-.41,1.62-1.26t1.46-1.27V138.5h-2.82A23.16,23.16,0,0,1,325.2,141v0.22h1.68Zm-1.86,8q1.29-4.16,1.56-5.22,0.07,0.3.22,0.81t1.37,4.41H325Zm7.38,5-4.27-12.11H325l-4.25,12.11h2.75l0.88-2.87h4.39l0.88,2.87h2.75Zm-13.17-12.06h-2.3v5.71q0,1,.12,3.32H317l-5.24-9h-3.22v12.06h2.28v-5.67q0-1-.16-3.45h0.07l5.25,9.12h3.25V142.14ZM305.5,154.2v-12h-2.56v12.06h2.56v0Zm-9.79-4.63,2.88,4.63h2.84q-0.82-1.19-3.55-5.25a3.87,3.87,0,0,0,1.66-1.3A3.57,3.57,0,0,0,299,143a6,6,0,0,0-3.64-.89H291.8v12.06h2.56v-4.63h1.35Zm-1.36-5.34h0.77a3.58,3.58,0,0,1,1.83.36,1.32,1.32,0,0,1,.59,1.22,1.44,1.44,0,0,1-.58,1.27,3.15,3.15,0,0,1-1.79.4h-0.82v-3.26h0Zm-5.07,7.85h-4.39V149H289v-2.09h-4.08v-2.65h4.39v-2.09h-6.94V154.2h6.94v-2.11h0Zm-12.07-7.82h3.27v-2.13h-9.1v2.13h3.27v9.93h2.56v-9.93h0ZM270,152.11h-4.39V149h4.08v-2.09h-4.08v-2.65H270v-2.09h-6.94v12.06H270v-2.11h0Zm-13.33-2.77a21.17,21.17,0,0,0-.62,2.66,4.93,4.93,0,0,0-.25-1.17q-0.25-.84-0.39-1.48l-2.27-7.17h-2.58l4.09,12.06h2.79l4.1-12.06H259Zm-11.07,4.88v-2.11h-4.89v-9.95h-2.56v12.06h7.45Zm-16.34-5q1.29-4.16,1.56-5.22,0.07,0.3.22,0.81t1.37,4.41h-3.15Zm7.38,5-4.27-12.11h-3.13L225,154.22h2.75l0.88-2.87H233l0.88,2.87h2.76Zm-15.26-9.93h3.27v-2.13h-9.1v2.13h3.27v9.93h2.56v-9.93Zm-7.68,9.93V142.16h-2.56v12.06h2.56Zm-6-11.11a5.13,5.13,0,0,0-3.34-.94h-3.85v12.06h2.56v-4.29h1.1a5.2,5.2,0,0,0,3.46-1,3.68,3.68,0,0,0,1.22-3,3.44,3.44,0,0,0-1.11-2.84h0Zm-4.63,1.15h1.16a2.3,2.3,0,0,1,1.54.43,1.67,1.67,0,0,1,.49,1.33,1.63,1.63,0,0,1-.59,1.36,2.8,2.8,0,0,1-1.67.47h-0.84v-3.58h-0.09Zm-5.33,4.59a6.46,6.46,0,0,0-2.32-1.62,15.4,15.4,0,0,1-1.62-.85,1.72,1.72,0,0,1-.5-0.49,1.09,1.09,0,0,1-.16-0.59,1.11,1.11,0,0,1,.39-0.88,1.64,1.64,0,0,1,1.11-.34,5.14,5.14,0,0,1,1.24.16,12.16,12.16,0,0,1,1.6.55l0.82-2a12.29,12.29,0,0,0-1.79-.63,7.08,7.08,0,0,0-1.79-.22,4.5,4.5,0,0,0-3,.92,3.12,3.12,0,0,0-1.08,2.52,3.18,3.18,0,0,0,.33,1.48,3.74,3.74,0,0,0,.88,1.11,7.44,7.44,0,0,0,1.66,1,14.72,14.72,0,0,1,1.56.82,2.23,2.23,0,0,1,.58.53,1.06,1.06,0,0,1,.2.63,1.1,1.1,0,0,1-.45,1,2.2,2.2,0,0,1-1.29.32,6.11,6.11,0,0,1-1.55-.22,14.12,14.12,0,0,1-2.07-.77v2.38a7.68,7.68,0,0,0,3.41.73,5.1,5.1,0,0,0,3.27-.94,3.12,3.12,0,0,0,1.17-2.57A3.17,3.17,0,0,0,197.74,148.85Zm-17-3.75a2.7,2.7,0,0,1,2.3-1q3,0,3,4.07t-3,4.07a2.68,2.68,0,0,1-2.29-1,6.4,6.4,0,0,1,0-6.11v0Zm6.55-1.55a5.49,5.49,0,0,0-4.25-1.6,5.57,5.57,0,0,0-4.27,1.59,6.48,6.48,0,0,0-1.49,4.6,6.57,6.57,0,0,0,1.48,4.62,6.43,6.43,0,0,0,8.51,0,7.9,7.9,0,0,0,0-9.19v0Zm-12.51-1.41h-2.55v4.71h-4.77v-4.73H164.9v12.06h2.56V149h4.77v5.2h2.55v-12Zm-24.79,3a2.7,2.7,0,0,1,2.3-1q3,0,3,4.07t-3.06,4.07a2.68,2.68,0,0,1-2.29-1,6.4,6.4,0,0,1,.06-6.15h0Zm6.55-1.55a5.49,5.49,0,0,0-4.25-1.6,5.57,5.57,0,0,0-4.27,1.59,6.48,6.48,0,0,0-1.49,4.6A6.57,6.57,0,0,0,148,152.8a6.43,6.43,0,0,0,8.51,0,7.9,7.9,0,0,0,0-9.23v0Zm-18.32,8.54h-1.1v-7.85h1.36q3.43,0,3.43,3.88t-3.7,4v0Zm4.72-8.39a6.37,6.37,0,0,0-4.58-1.56h-3.79v12.06H138a6.91,6.91,0,0,0,4.89-1.58,5.94,5.94,0,0,0,1.69-4.56,5.73,5.73,0,0,0-1.65-4.38v0Z" transform="translate(-14.17 -22.19)"/></svg>