<svg id="Layer_1" data-name="Layer 1" xmlns="http://www.w3.org/2000/svg" xmlns:xlink="http://www.w3.org/1999/xlink" viewBox="0 0 399.94 177.67"><defs><style>.cls-1,.cls-6{fill:#1abc9c;}.cls-1{stroke:#1abc9c;}.cls-1,.cls-4{stroke-miterlimit:10;}.cls-2{opacity:0.3;isolation:isolate;fill:url(#linear-gradient);}.cls-3,.cls-4,.cls-5{fill:#ebeff0;}.cls-4,.cls-5{stroke:#ebeff0;}.cls-5{stroke-linejoin:bevel;}</style><linearGradient id="linear-gradient" x1="664.66" y1="-2623.73" x2="664.66" y2="-473.57" gradientTransform="matrix(0.28, 0, 0, -0.28, -119.13, -90.27)" gradientUnits="userSpaceOnUse"><stop offset="0" stop-color="#fff" stop-opacity="0"/><stop offset="0.25" stop-color="#cdced3" stop-opacity="0.25"/><stop offset="1"/></linearGradient></defs><title>sihv_logo_simple</title><g id="g4155"><g id="Camada_1" data-name="Camada 1"><polygon id="_Path_" data-name="&lt;Path&gt;" class="cls-1" points="129.24 44.91 129.02 133.11 64.65 177.07 0.5 132.8 0.72 44.57 65.09 0.61 129.24 44.91"/><path id="_Path_2" data-name="&lt;Path&gt;" class="cls-2" d="M119,74.11a6.58,6.58,0,0,0-1.58-1.18c-1.93-1-3.85-1.83-5.81-2.61L94.6,53a8.25,8.25,0,0,0-1.68-1.09L81.77,40.49c-0.31.12-10.62-11.15-32.06-2.8C31,46.27,37.56,64.29,38,66.28S46,78.33,48.06,78.71L64.78,95.79v17.09l-3.23,1.49L18.36,70.19l-7.05,3.2L61.42,183.06l10.1,10.41L112,166h0l12.83-8.82h0l4.26-2.89,0.16-65.36h0V84.55Z" transform="translate(0 -21.15)"/><polygon id="polygon17" class="cls-3" points="65 151.03 111.35 49.07 118.43 52.27 68.54 162.03 61.42 162.03 11.31 52.24 18.36 49.04 65 151.03"/><path id="_Path_3" data-name="&lt;Path&gt;" class="cls-4" d="M64.34,165.79c0.93-42.38,1-81.86-1-114.33l4.82,1.37,0,4.5,1-4.32,1.49,0.43c1.12,31.56-.43,67.26-3.42,105.1l-2.89,7.24h0Z" transform="translate(0 -21.15)"/><path id="_Compound_Path_" data-name="&lt;Compound Path&gt;" class="cls-5" d="M94.82,53.42c-1.3-1.43-6.06-3-6.37-3.7-2.73.28-4.16,3.7-4.16,3.7s0.31,4.44,2.14,6.21,6.52,5.62,8.26,5.22,2.58-1.09,2.58-1.93S96.12,54.85,94.82,53.42ZM88.2,57.15s3.67-.31,3.67,3.08A3.5,3.5,0,0,1,88.2,57.15Zm7.08,2c-0.71-1.21-1.15-2.83,0-3.91C95.28,55.19,97.18,57.92,95.28,59.1Z" transform="translate(0 -21.15)"/><g id="_Group_" data-name="&lt;Group&gt;"><path id="_Path_4" data-name="&lt;Path&gt;" class="cls-3" d="M72.42,154.29a14,14,0,0,0-1.55-4.07,9.47,9.47,0,0,0-2.86-3,16.22,16.22,0,0,0-3.76-1.83c-1.34-.5-2.73-0.9-4.16-1.34a27.9,27.9,0,0,1-4.32-1.74,12.58,12.58,0,0,1-3.95-3.14,12.4,12.4,0,0,1-2.33-4.6l-0.31-1.21L49,132.14c-0.06-.4-0.09-0.81-0.12-1.21l0-.62v-1.18l0-.68a4.23,4.23,0,0,1,.06-0.65l0.09-.65a12.83,12.83,0,0,1,.75-2.58,13.76,13.76,0,0,1,2.89-4.41,19.6,19.6,0,0,1,1.9-1.71,21.71,21.71,0,0,1,2-1.43,38.87,38.87,0,0,1,4.13-2.27c2.76-1.34,5.53-2.42,8.17-3.57A35.12,35.12,0,0,0,76,107.29a11.47,11.47,0,0,0,2.45-2.45A7.17,7.17,0,0,0,79.72,102a9.19,9.19,0,0,0,.19-1.62V99.58c0,0.31,0,.06,0,0.12V99.65l0-.56,0-.28V98.56c0-.28-0.06-0.56-0.12-0.87a7.69,7.69,0,0,0-.19-0.9l-0.09-.43-0.12-.43c-0.06-.28-0.19-0.56-0.28-0.84a10.21,10.21,0,0,0-4.13-5.16,29.5,29.5,0,0,0-7.21-3.14c-2.7-.87-5.56-1.65-8.48-2.64a45.64,45.64,0,0,1-8.7-3.85A29.69,29.69,0,0,1,42.88,74a32.83,32.83,0,0,1-5.16-8.42l0-.06a2.14,2.14,0,0,0-.09-0.25l-0.34-1.18-0.16-.59A3.66,3.66,0,0,1,37,62.86l-0.28-1.3-0.19-1.24a24,24,0,0,1-.16-5.19,20.41,20.41,0,0,1,1.15-5.22,17.87,17.87,0,0,1,2.58-4.72,21.05,21.05,0,0,1,3.63-3.79A23.37,23.37,0,0,1,48,38.6a32.58,32.58,0,0,1,4.57-2,36,36,0,0,1,4.69-1.24A41.58,41.58,0,0,1,62,34.75c0.81-.06,1.58-0.09,2.39-0.12h1.86l0.56,0a20.16,20.16,0,0,1,2.52.22l1.24,0.22,1.24,0.28a22.16,22.16,0,0,1,4.78,1.77,25.61,25.61,0,0,1,7.86,6.18,30,30,0,0,1,2.86,4c0.43,0.68.81,1.43,1.18,2.14,0.19,0.37.34,0.75,0.53,1.12,0.09,0.19.16,0.37,0.25,0.59l0.12,0.31,0.12,0.37-5.25,1.9-0.16-.37C84,53.23,84,53.08,83.88,52.92s-0.31-.59-0.47-0.87a18.63,18.63,0,0,0-1-1.68A26.05,26.05,0,0,0,80,47.27a19.4,19.4,0,0,0-6.09-4.5,18.24,18.24,0,0,0-3.54-1.18l-0.93-.19-0.93-.12c-0.62,0-1.09-.12-1.9-0.12h-1l-1,0c-0.68,0-1.37.09-2,.16-1.34.16-2.67,0.34-4,.62A30.11,30.11,0,0,0,54.74,43a22.76,22.76,0,0,0-3.54,1.58,16.37,16.37,0,0,0-5.53,4.69,12.44,12.44,0,0,0-1.62,3,13.73,13.73,0,0,0-.75,3.39,15.89,15.89,0,0,0,.12,3.63l0.16,0.93,0.22,0.93,0.09,0.47L44,62.18l0.25,0.93-0.12-.34a26.21,26.21,0,0,0,4,6.59A24.37,24.37,0,0,0,50.89,72a29,29,0,0,0,3.17,2.24,41.11,41.11,0,0,0,7.39,3.32c2.64,0.93,5.47,1.74,8.36,2.67,1.46,0.5,2.92,1,4.41,1.65a27.16,27.16,0,0,1,4.44,2.42A17.74,17.74,0,0,1,82.61,88a15.55,15.55,0,0,1,1.49,2.33,19.45,19.45,0,0,1,1.09,2.49c0.12,0.43.28,0.84,0.37,1.27a6,6,0,0,1,.16.62l0.12,0.62c0.09,0.43.16,0.84,0.22,1.27s0.09,0.87.16,1.3l0,0.16v0.12l0,0.28,0,0.56v0.81a5.27,5.27,0,0,1,0,.68,16.59,16.59,0,0,1-.4,2.73,14,14,0,0,1-2.42,5.09,17.87,17.87,0,0,1-3.82,3.7,29.44,29.44,0,0,1-4.23,2.49c-1.43.68-2.83,1.3-4.26,1.86-2.83,1.12-5.56,2.05-8.17,3.17a24.42,24.42,0,0,0-6.83,4,9,9,0,0,0-3,6.21l0,0.28v0.68c0,0.34,0,.68,0,1l0.06,1,0.16,0.93a9.16,9.16,0,0,0,1.3,3.39c1.3,2.05,3.76,3.39,6.4,4.6,1.3,0.62,2.7,1.21,4,1.9a16.39,16.39,0,0,1,3.85,2.58,10.79,10.79,0,0,1,2.67,3.79,12.25,12.25,0,0,1,.87,4.41h0Z" transform="translate(0 -21.15)"/></g></g></g><path class="cls-6" d="M367.48,116.41q-3.52,12.65-4.13,17.71-0.33-2.2-1.68-7.84t-2.61-9.88L343.93,68.54H326.71L354,149h18.59l27.34-80.43H382.71ZM316.53,68.54h-17v31.52H267.68V68.54H250.62V149h17.05V114.26h31.85V149h17V68.54ZM230.38,149V68.54H213.32V149h17.05Zm-35.82-35.62q-4.18-5.42-15.46-10.81a102.7,102.7,0,0,1-10.81-5.64A11.47,11.47,0,0,1,165,93.66a7.28,7.28,0,0,1-1-3.93,7.44,7.44,0,0,1,2.59-5.89q2.59-2.26,7.43-2.26a34.29,34.29,0,0,1,8.28,1,80.51,80.51,0,0,1,10.65,3.69l5.5-13.26a82.33,82.33,0,0,0-11.91-4.18,47.23,47.23,0,0,0-12-1.49q-12.76,0-20,6.11t-7.23,16.78a21.18,21.18,0,0,0,2.2,9.9,25,25,0,0,0,5.89,7.43,49.38,49.38,0,0,0,11.06,6.66,100.06,100.06,0,0,1,10.43,5.45,14.78,14.78,0,0,1,3.88,3.55,7,7,0,0,1,1.32,4.21,7.34,7.34,0,0,1-3,6.38q-3,2.15-8.61,2.15a40.75,40.75,0,0,1-10.32-1.49,93.83,93.83,0,0,1-13.78-5.12v15.84a51.23,51.23,0,0,0,22.78,4.84q14,0,21.81-6.27t7.84-17.16A21.1,21.1,0,0,0,194.56,113.35Z" transform="translate(0 -21.15)"/></svg>